<svg width="239" height="46" viewBox="0 0 239 46" fill="none" xmlns="http://www.w3.org/2000/svg">
<g clip-path="url(#clip0_201_4499)">
<mask id="mask0_201_4499" style="mask-type:luminance" maskUnits="userSpaceOnUse" x="0" y="0" width="239" height="46">
<path d="M239 0H0V46H239V0Z" fill="white"/>
</mask>
<g mask="url(#mask0_201_4499)">
<path d="M132.127 34.464C130.064 34.464 128.087 34.1941 126.196 33.6544C124.305 33.0901 122.782 32.3664 121.628 31.4832L123.654 26.9936C124.759 27.7786 126.061 28.4288 127.559 28.944C129.082 29.4346 130.617 29.68 132.164 29.68C133.343 29.68 134.288 29.5696 135.001 29.3488C135.738 29.1034 136.278 28.7722 136.622 28.3552C136.966 27.9381 137.138 27.4597 137.138 26.92C137.138 26.233 136.867 25.6933 136.327 25.3008C135.787 24.8837 135.075 24.5525 134.19 24.3072C133.306 24.0373 132.324 23.792 131.243 23.5712C130.187 23.3258 129.119 23.0314 128.038 22.688C126.982 22.3445 126.012 21.9029 125.128 21.3632C124.244 20.8234 123.519 20.112 122.954 19.2288C122.414 18.3456 122.144 17.217 122.144 15.8432C122.144 14.3712 122.537 13.0341 123.323 11.832C124.133 10.6053 125.336 9.63624 126.933 8.9248C128.554 8.1888 130.58 7.8208 133.012 7.8208C134.632 7.8208 136.229 8.01704 137.801 8.4096C139.372 8.7776 140.76 9.34184 141.964 10.1024L140.122 14.6288C138.918 13.9418 137.715 13.4389 136.511 13.12C135.308 12.7765 134.129 12.6048 132.975 12.6048C131.82 12.6048 130.875 12.7397 130.138 13.0096C129.401 13.2794 128.873 13.6352 128.554 14.0768C128.235 14.4938 128.075 14.9845 128.075 15.5488C128.075 16.2112 128.345 16.7509 128.885 17.168C129.426 17.5605 130.138 17.8794 131.022 18.1248C131.906 18.3701 132.877 18.6154 133.933 18.8608C135.013 19.1061 136.082 19.3882 137.138 19.7072C138.218 20.0261 139.201 20.4554 140.085 20.9952C140.969 21.5349 141.681 22.2464 142.222 23.1296C142.787 24.0128 143.069 25.129 143.069 26.4784C143.069 27.9258 142.664 29.2506 141.853 30.4528C141.043 31.6549 139.827 32.624 138.206 33.36C136.609 34.096 134.583 34.464 132.127 34.464Z" fill="white"/>
<path d="M158.456 34.3169C156.786 34.3169 155.325 33.9489 154.072 33.2129C152.82 32.4769 151.837 31.3606 151.125 29.8641C150.437 28.343 150.094 26.4294 150.094 24.1233C150.094 21.7926 150.425 19.879 151.088 18.3825C151.751 16.8859 152.709 15.7697 153.962 15.0337C155.214 14.2977 156.712 13.9297 158.456 13.9297C160.323 13.9297 161.993 14.359 163.467 15.2177C164.965 16.0518 166.143 17.2294 167.003 18.7505C167.887 20.2715 168.329 22.0625 168.329 24.1233C168.329 26.2086 167.887 28.0118 167.003 29.5329C166.143 31.0539 164.965 32.2315 163.467 33.0657C161.993 33.8998 160.323 34.3169 158.456 34.3169ZM146.741 41.1617V14.2241H152.23V18.2721L152.12 24.1601L152.488 30.0113V41.1617H146.741ZM157.462 29.6065C158.42 29.6065 159.267 29.3857 160.004 28.9441C160.765 28.5025 161.367 27.8769 161.809 27.0673C162.275 26.2331 162.509 25.2518 162.509 24.1233C162.509 22.9702 162.275 21.9889 161.809 21.1793C161.367 20.3697 160.765 19.7441 160.004 19.3025C159.267 18.8609 158.42 18.6401 157.462 18.6401C156.504 18.6401 155.644 18.8609 154.883 19.3025C154.121 19.7441 153.52 20.3697 153.078 21.1793C152.636 21.9889 152.415 22.9702 152.415 24.1233C152.415 25.2518 152.636 26.2331 153.078 27.0673C153.52 27.8769 154.121 28.5025 154.883 28.9441C155.644 29.3857 156.504 29.6065 157.462 29.6065Z" fill="white"/>
<path d="M182.013 34.3169C179.753 34.3169 177.764 33.8753 176.045 32.9921C174.35 32.1089 173.036 30.9067 172.103 29.3857C171.17 27.8401 170.703 26.0859 170.703 24.1233C170.703 22.1361 171.158 20.3819 172.066 18.8609C173 17.3153 174.264 16.1131 175.861 15.2545C177.457 14.3713 179.262 13.9297 181.276 13.9297C183.216 13.9297 184.96 14.3467 186.508 15.1809C188.079 15.9905 189.32 17.1681 190.228 18.7137C191.137 20.2347 191.591 22.0625 191.591 24.1969C191.591 24.4177 191.579 24.6753 191.555 24.9697C191.53 25.2395 191.505 25.4971 191.481 25.7425H175.382V22.3937H188.46L186.25 23.3873C186.25 22.3569 186.041 21.4614 185.623 20.7009C185.206 19.9403 184.629 19.3515 183.892 18.9345C183.155 18.4929 182.295 18.2721 181.313 18.2721C180.331 18.2721 179.459 18.4929 178.697 18.9345C177.961 19.3515 177.384 19.9526 176.966 20.7377C176.548 21.4982 176.34 22.4059 176.34 23.4609V24.3441C176.34 25.4235 176.573 26.3803 177.04 27.2145C177.531 28.0241 178.206 28.6497 179.066 29.0913C179.95 29.5083 180.982 29.7169 182.16 29.7169C183.216 29.7169 184.137 29.5574 184.923 29.2385C185.734 28.9195 186.471 28.4411 187.134 27.8033L190.192 31.1153C189.283 32.1457 188.141 32.943 186.765 33.5073C185.39 34.047 183.806 34.3169 182.013 34.3169Z" fill="white"/>
<path d="M205.254 34.3169C202.995 34.3169 201.005 33.8753 199.286 32.9921C197.592 32.1089 196.278 30.9067 195.344 29.3857C194.411 27.8401 193.944 26.0859 193.944 24.1233C193.944 22.1361 194.399 20.3819 195.307 18.8609C196.241 17.3153 197.505 16.1131 199.102 15.2545C200.699 14.3713 202.504 13.9297 204.517 13.9297C206.458 13.9297 208.201 14.3467 209.749 15.1809C211.32 15.9905 212.561 17.1681 213.47 18.7137C214.378 20.2347 214.833 22.0625 214.833 24.1969C214.833 24.4177 214.82 24.6753 214.796 24.9697C214.771 25.2395 214.747 25.4971 214.722 25.7425H198.623V22.3937H211.701L209.491 23.3873C209.491 22.3569 209.282 21.4614 208.865 20.7009C208.447 19.9403 207.87 19.3515 207.133 18.9345C206.396 18.4929 205.537 18.2721 204.554 18.2721C203.572 18.2721 202.7 18.4929 201.939 18.9345C201.202 19.3515 200.625 19.9526 200.207 20.7377C199.789 21.4982 199.581 22.4059 199.581 23.4609V24.3441C199.581 25.4235 199.814 26.3803 200.281 27.2145C200.772 28.0241 201.447 28.6497 202.307 29.0913C203.191 29.5083 204.223 29.7169 205.402 29.7169C206.458 29.7169 207.379 29.5574 208.165 29.2385C208.975 28.9195 209.712 28.4411 210.375 27.8033L213.433 31.1153C212.524 32.1457 211.382 32.943 210.007 33.5073C208.631 34.047 207.047 34.3169 205.254 34.3169Z" fill="white"/>
<path d="M227.169 34.3168C225.302 34.3168 223.62 33.8997 222.122 33.0656C220.623 32.2069 219.432 31.017 218.548 29.496C217.688 27.9749 217.259 26.184 217.259 24.1232C217.259 22.0378 217.688 20.2346 218.548 18.7136C219.432 17.1925 220.623 16.0149 222.122 15.1808C223.62 14.3466 225.302 13.9296 227.169 13.9296C228.839 13.9296 230.3 14.2976 231.553 15.0336C232.805 15.7696 233.775 16.8858 234.463 18.3824C235.151 19.8789 235.495 21.7925 235.495 24.1232C235.495 26.4293 235.163 28.3429 234.5 29.864C233.837 31.3605 232.879 32.4768 231.626 33.2128C230.398 33.9488 228.912 34.3168 227.169 34.3168ZM228.163 29.6064C229.096 29.6064 229.944 29.3856 230.705 28.944C231.467 28.5024 232.069 27.8768 232.511 27.0672C232.977 26.233 233.211 25.2517 233.211 24.1232C233.211 22.9701 232.977 21.9888 232.511 21.1792C232.069 20.3696 231.467 19.744 230.705 19.3024C229.944 18.8608 229.096 18.64 228.163 18.64C227.206 18.64 226.346 18.8608 225.585 19.3024C224.823 19.744 224.209 20.3696 223.743 21.1792C223.301 21.9888 223.08 22.9701 223.08 24.1232C223.08 25.2517 223.301 26.233 223.743 27.0672C224.209 27.8768 224.823 28.5024 225.585 28.944C226.346 29.3856 227.206 29.6064 228.163 29.6064ZM233.358 34.0224V29.9744L233.468 24.0864L233.1 18.2352V6.7168H238.847V34.0224H233.358Z" fill="white"/>
<path d="M49.6494 34.0227V8.2627H55.6175V34.0227H49.6494Z" fill="white"/>
<path d="M73.3797 13.9297C74.9519 13.9297 76.3518 14.2486 77.5795 14.8865C78.832 15.4998 79.8148 16.4566 80.5267 17.7569C81.2391 19.0326 81.5951 20.6763 81.5951 22.6881V34.0225H75.848V23.5713C75.848 21.9766 75.492 20.799 74.7796 20.0385C74.0921 19.2779 73.1099 18.8977 71.8324 18.8977C70.9239 18.8977 70.1009 19.0939 69.3641 19.4865C68.6522 19.8545 68.0872 20.431 67.6695 21.2161C67.2767 22.0011 67.0801 23.007 67.0801 24.2337V34.0225H61.333V14.2241H66.8222V19.7073L65.7907 18.0513C66.503 16.7265 67.5221 15.7083 68.8484 14.9969C70.1746 14.2854 71.6851 13.9297 73.3797 13.9297Z" fill="white"/>
<path d="M95.4578 34.3168C93.5914 34.3168 91.9092 33.8997 90.4107 33.0656C88.9127 32.2069 87.7214 31.017 86.8373 29.496C85.978 27.9749 85.5479 26.184 85.5479 24.1232C85.5479 22.0378 85.978 20.2346 86.8373 18.7136C87.7214 17.1925 88.9127 16.0149 90.4107 15.1808C91.9092 14.3466 93.5914 13.9296 95.4578 13.9296C97.1281 13.9296 98.5892 14.2976 99.8418 15.0336C101.094 15.7696 102.065 16.8858 102.752 18.3824C103.44 19.8789 103.784 21.7925 103.784 24.1232C103.784 26.4293 103.452 28.3429 102.789 29.864C102.126 31.3605 101.168 32.4768 99.9155 33.2128C98.6878 33.9488 97.2018 34.3168 95.4578 34.3168ZM96.4525 29.6064C97.386 29.6064 98.2333 29.3856 98.9945 28.944C99.7561 28.5024 100.358 27.8768 100.8 27.0672C101.267 26.233 101.5 25.2517 101.5 24.1232C101.5 22.9701 101.267 21.9888 100.8 21.1792C100.358 20.3696 99.7561 19.744 98.9945 19.3024C98.2333 18.8608 97.386 18.64 96.4525 18.64C95.4947 18.64 94.6354 18.8608 93.8737 19.3024C93.1125 19.744 92.4987 20.3696 92.0317 21.1792C91.5896 21.9888 91.3686 22.9701 91.3686 24.1232C91.3686 25.2517 91.5896 26.233 92.0317 27.0672C92.4987 27.8768 93.1125 28.5024 93.8737 28.944C94.6354 29.3856 95.4947 29.6064 96.4525 29.6064ZM101.647 34.0224V29.9744L101.757 24.0864L101.389 18.2352V6.7168H107.136V34.0224H101.647Z" fill="white"/>
<path d="M112.456 34.0226V14.2242H118.203V34.0226H112.456ZM115.329 11.4642C114.273 11.4642 113.414 11.1576 112.751 10.5442C112.087 9.93087 111.756 9.17035 111.756 8.26263C111.756 7.35487 112.087 6.59435 112.751 5.98104C113.414 5.36767 114.273 5.06104 115.329 5.06104C116.385 5.06104 117.245 5.35544 117.908 5.94424C118.571 6.50847 118.903 7.24447 118.903 8.15223C118.903 9.10903 118.571 9.90635 117.908 10.5442C117.269 11.1576 116.41 11.4642 115.329 11.4642Z" fill="white"/>
<path fill-rule="evenodd" clip-rule="evenodd" d="M15.5094 0.807664C15.5094 -0.116477 14.2066 -0.315172 13.9305 0.566863L0.0390337 44.9499C-0.188789 45.6778 0.627997 46.2861 1.26127 45.8601L15.1527 36.5163C15.3757 36.3663 15.5094 36.1154 15.5094 35.847V0.807664ZM22.7799 35.8474C22.7799 36.1159 22.9136 36.3668 23.1366 36.5167L37.0274 45.8601C37.6607 46.2861 38.4775 45.6778 38.2496 44.9499L24.3588 0.568901C24.0827 -0.313132 22.7799 -0.114436 22.7799 0.809706V35.8474Z" fill="white"/>
<path d="M19.5503 1.17188H18.7424C18.2963 1.17188 17.9346 1.53316 17.9346 1.97883V5.20669C17.9346 5.65236 18.2963 6.01365 18.7424 6.01365H19.5503C19.9964 6.01365 20.3581 5.65236 20.3581 5.20669V1.97883C20.3581 1.53316 19.9964 1.17188 19.5503 1.17188Z" fill="white"/>
<path d="M19.5503 10.8555H18.7424C18.2963 10.8555 17.9346 11.2168 17.9346 11.6624V14.8903C17.9346 15.336 18.2963 15.6972 18.7424 15.6972H19.5503C19.9964 15.6972 20.3581 15.336 20.3581 14.8903V11.6624C20.3581 11.2168 19.9964 10.8555 19.5503 10.8555Z" fill="white"/>
<path d="M19.5503 20.5391H18.7424C18.2963 20.5391 17.9346 20.9004 17.9346 21.346V24.5739C17.9346 25.0196 18.2963 25.3808 18.7424 25.3808H19.5503C19.9964 25.3808 20.3581 25.0196 20.3581 24.5739V21.346C20.3581 20.9004 19.9964 20.5391 19.5503 20.5391Z" fill="white"/>
<path d="M19.5503 30.2227H18.7424C18.2963 30.2227 17.9346 30.5839 17.9346 31.0296V34.2575C17.9346 34.7031 18.2963 35.0644 18.7424 35.0644H19.5503C19.9964 35.0644 20.3581 34.7031 20.3581 34.2575V31.0296C20.3581 30.5839 19.9964 30.2227 19.5503 30.2227Z" fill="white"/>
</g>
</g>
<defs>
<clipPath id="clip0_201_4499">
<rect width="239" height="46" fill="white"/>
</clipPath>
</defs>
</svg>
