<svg width="233" height="46" viewBox="0 0 233 46" fill="none" xmlns="http://www.w3.org/2000/svg">
<path d="M1.93457 16.1543H10.6361V45.5625H1.93457V16.1543Z" fill="white"/>
<path d="M35.282 15.7183C39.0007 15.7183 41.9941 16.8115 44.2628 18.998C46.5681 21.1843 47.7209 24.4277 47.7209 28.7278V45.5638H39.0195V30.0397C39.0195 27.7075 38.4989 25.9766 37.4573 24.8468C36.4161 23.6807 34.9103 23.0974 32.9392 23.0974C30.7452 23.0974 28.9976 23.7718 27.6959 25.12C26.3947 26.432 25.7436 28.3998 25.7436 31.0237V45.5638H17.042V16.1555H25.353V19.5992C26.5059 18.3602 27.9376 17.4128 29.6482 16.7568C31.3587 16.0644 33.2368 15.7183 35.282 15.7183Z" fill="white"/>
<path d="M84.8295 5.00391V45.5631H76.5186V42.1738C74.3617 44.725 71.2382 46.0001 67.1473 46.0001C64.3214 46.0001 61.7552 45.381 59.4499 44.1422C57.1812 42.9029 55.3961 41.1356 54.0949 38.8393C52.7932 36.5439 52.1426 33.8837 52.1426 30.8592C52.1426 27.8342 52.7932 25.1741 54.0949 22.8782C55.3961 20.5823 57.1812 18.8151 59.4499 17.5762C61.7552 16.3372 64.3214 15.7176 67.1473 15.7176C70.9777 15.7176 73.9711 16.902 76.1281 19.2707V5.00391H84.8295ZM68.6536 39.004C70.8477 39.004 72.6699 38.2749 74.1199 36.8171C75.5704 35.3231 76.2952 33.3372 76.2952 30.8592C76.2952 28.3812 75.5704 26.4133 74.1199 24.9556C72.6699 23.4615 70.8477 22.7144 68.6536 22.7144C66.4221 22.7144 64.5815 23.4615 63.131 24.9556C61.681 26.4133 60.9558 28.3812 60.9558 30.8592C60.9558 33.3372 61.681 35.3231 63.131 36.8171C64.5815 38.2749 66.4221 39.004 68.6536 39.004Z" fill="white"/>
<path d="M91.208 16.1543H99.9095V45.5625H91.208V16.1543Z" fill="white"/>
<path d="M6.18965 0L12.3793 6.06561L6.18965 12.1312L0 6.06561L6.18965 0Z" fill="white"/>
<path d="M95.6096 0L101.799 6.06561L95.6096 12.1312L89.4199 6.06561L95.6096 0Z" fill="white"/>
<path d="M208.735 45.6165V14.2764H196.071V5.21484H233V14.2764H220.396V45.6165H208.735Z" fill="white"/>
<path d="M135.412 26.7447V26.5874L139.011 30.709H146.838V45.6158H137.238L119.039 24.085V45.6158H107.612V5.21387H117.213L135.412 26.7447ZM146.838 19.6998H135.412V5.21387H146.838V19.6998Z" fill="white"/>
<path d="M165.114 25.06L150.479 5.21484H163.192L177.531 25.06L163.192 45.3401H150.479L165.114 25.06Z" fill="white"/>
<path d="M192.461 5.35938H180.192L173.688 14.775L179.6 22.7422L192.461 5.35938Z" fill="white"/>
<path d="M192.461 45.485H180.192L173.688 36.0693L179.6 28.1021L192.461 45.485Z" fill="white"/>
</svg>
