<svg width="284" height="46" viewBox="0 0 284 46" fill="none" xmlns="http://www.w3.org/2000/svg">
<g clip-path="url(#clip0_201_4243)">
<mask id="mask0_201_4243" style="mask-type:luminance" maskUnits="userSpaceOnUse" x="-9" y="0" width="293" height="46">
<path d="M283.693 0H-9V46H283.693V0Z" fill="white"/>
</mask>
<g mask="url(#mask0_201_4243)">
<path d="M46.0088 40.9113V17.3018H53.1259V40.9113H46.0088Z" fill="white"/>
<path d="M59.8135 40.9111V17.3016H66.5747L66.7972 22.1035L65.374 22.6371C65.6999 21.57 66.2783 20.6066 67.1086 19.747C67.9688 18.8578 68.9916 18.1464 70.1778 17.6128C71.364 17.0793 72.6096 16.8125 73.9143 16.8125C75.6938 16.8125 77.1914 17.183 78.4071 17.9241C79.6232 18.6355 80.5425 19.7174 81.1653 21.1698C81.7877 22.5926 82.0991 24.3415 82.0991 26.4164V40.9111H74.9375V26.9944C74.9375 26.0458 74.804 25.2604 74.5371 24.6379C74.2702 24.0154 73.8552 23.556 73.2919 23.2596C72.758 22.9335 72.0907 22.7853 71.29 22.8149C70.6671 22.8149 70.0888 22.9187 69.5553 23.1262C69.0215 23.304 68.5617 23.5856 68.1762 23.9709C67.7908 24.3266 67.4794 24.7416 67.242 25.2159C67.0345 25.6902 66.9306 26.2089 66.9306 26.7721V40.9111H63.4165C62.5862 40.9111 61.8744 40.9111 61.2815 40.9111C60.6883 40.9111 60.1989 40.9111 59.8135 40.9111Z" fill="white"/>
<path d="M96.9901 41.4001C94.944 41.4001 93.1201 40.8814 91.5189 39.8437C89.9473 38.7769 88.7017 37.3243 87.7824 35.4865C86.8631 33.6191 86.4033 31.4998 86.4033 29.1284C86.4033 26.7571 86.8631 24.6525 87.7824 22.8148C88.7017 20.9474 89.9619 19.4801 91.5634 18.413C93.1646 17.3459 95.0035 16.8123 97.079 16.8123C98.1467 16.8123 99.1699 16.9754 100.149 17.3014C101.127 17.6275 102.017 18.0721 102.817 18.6353C103.618 19.1985 104.271 19.8506 104.775 20.5917C105.279 21.3031 105.575 22.0441 105.664 22.8148L103.974 23.2149V8.00879H111.136V40.9109H104.508L104.108 35.531L105.531 35.7533C105.442 36.4944 105.145 37.2058 104.641 37.8875C104.167 38.5692 103.544 39.1771 102.773 39.7103C102.002 40.2144 101.112 40.6146 100.104 40.9109C99.1254 41.2372 98.0877 41.4001 96.9901 41.4001ZM98.814 35.4865C99.9112 35.4865 100.86 35.2198 101.661 34.6862C102.462 34.1527 103.069 33.4116 103.485 32.4631C103.93 31.5146 104.152 30.403 104.152 29.1284C104.152 27.8242 103.93 26.6978 103.485 25.7493C103.069 24.8007 102.462 24.0597 101.661 23.5262C100.86 22.9926 99.9112 22.7258 98.814 22.7258C97.7168 22.7258 96.768 22.9926 95.9672 23.5262C95.196 24.0597 94.5881 24.8007 94.1433 25.7493C93.6984 26.6978 93.476 27.8242 93.476 29.1284C93.476 30.403 93.6984 31.5146 94.1433 32.4631C94.5881 33.4116 95.196 34.1527 95.9672 34.6862C96.768 35.2198 97.7168 35.4865 98.814 35.4865Z" fill="white"/>
<path d="M117.555 40.9113V17.3018H124.672V40.9113H117.555Z" fill="white"/>
<path d="M138.209 33.9748L135.584 28.6393L146.616 17.3014H156.002L138.209 33.9748ZM131.358 40.911V8.00879H138.476V40.911H131.358ZM147.372 40.911L139.054 30.151L144.081 26.2384L155.779 40.911H147.372Z" fill="white"/>
<path d="M169.459 41.3558C166.849 41.3558 164.58 40.8371 162.653 39.7995C160.725 38.7323 159.227 37.2948 158.16 35.4867C157.092 33.6489 156.559 31.5592 156.559 29.2175C156.559 27.4094 156.855 25.7495 157.448 24.2377C158.041 22.726 158.872 21.4218 159.939 20.325C161.007 19.1986 162.267 18.339 163.72 17.7462C165.203 17.1237 166.819 16.8125 168.569 16.8125C170.23 16.8125 171.742 17.1089 173.106 17.7018C174.5 18.2946 175.701 19.1245 176.709 20.1916C177.717 21.2587 178.488 22.5185 179.022 23.9709C179.556 25.4234 179.793 27.0092 179.734 28.7284L179.689 30.6403H160.873L159.85 26.6387H173.907L173.151 27.4835V26.5942C173.091 25.8532 172.854 25.2011 172.439 24.6379C172.053 24.045 171.534 23.5856 170.882 23.2596C170.229 22.9335 169.488 22.7705 168.658 22.7705C167.501 22.7705 166.508 23.0076 165.677 23.4818C164.877 23.9265 164.269 24.5934 163.854 25.4827C163.438 26.3423 163.231 27.4094 163.231 28.684C163.231 29.9882 163.498 31.1294 164.032 32.1076C164.595 33.0561 165.396 33.7971 166.434 34.3307C167.501 34.8642 168.761 35.131 170.215 35.131C171.223 35.131 172.113 34.9828 172.884 34.6864C173.684 34.3899 174.544 33.8861 175.464 33.1747L178.8 37.8877C177.88 38.6878 176.902 39.3402 175.864 39.8439C174.826 40.348 173.759 40.7183 172.661 40.9556C171.594 41.2224 170.526 41.3558 169.459 41.3558Z" fill="white"/>
<path d="M184.27 40.9111V17.3016H191.031L191.253 22.1035L189.83 22.6371C190.156 21.57 190.734 20.6066 191.565 19.747C192.424 18.8578 193.448 18.1464 194.634 17.6128C195.82 17.0793 197.066 16.8125 198.37 16.8125C200.15 16.8125 201.647 17.183 202.863 17.9241C204.079 18.6354 204.998 19.7174 205.621 21.1698C206.244 22.5926 206.555 24.3415 206.555 26.4164V40.9111H199.394V26.9944C199.394 26.0459 199.26 25.2604 198.993 24.6379C198.726 24.0154 198.311 23.5559 197.748 23.2596C197.214 22.9335 196.546 22.7853 195.746 22.8149C195.123 22.8149 194.545 22.9187 194.011 23.1262C193.477 23.304 193.018 23.5856 192.632 23.9709C192.247 24.3266 191.935 24.7416 191.698 25.2159C191.49 25.6902 191.387 26.2089 191.387 26.7721V40.9111H187.873C187.042 40.9111 186.331 40.9111 185.737 40.9111C185.144 40.9111 184.655 40.9111 184.27 40.9111Z" fill="white"/>
<path d="M221.446 41.4001C219.4 41.4001 217.576 40.8815 215.975 39.8438C214.403 38.7766 213.157 37.3243 212.238 35.4865C211.319 33.6191 210.859 31.4998 210.859 29.1284C210.859 26.7571 211.319 24.6525 212.238 22.8148C213.157 20.9474 214.418 19.4801 216.019 18.413C217.621 17.3459 219.459 16.8123 221.535 16.8123C222.603 16.8123 223.626 16.9754 224.604 17.3014C225.583 17.6275 226.473 18.0721 227.274 18.6353C228.074 19.1985 228.727 19.8506 229.231 20.5916C229.735 21.3031 230.031 22.0441 230.12 22.8148L228.43 23.2149V8.00879H235.591V40.911H228.964L228.563 35.531L229.987 35.7533C229.898 36.4944 229.601 37.2058 229.097 37.8875C228.623 38.5692 228 39.1768 227.229 39.7104C226.458 40.2145 225.568 40.6147 224.56 40.911C223.581 41.2372 222.543 41.4001 221.446 41.4001ZM223.27 35.4865C224.367 35.4865 225.316 35.2198 226.117 34.6862C226.918 34.1527 227.525 33.4116 227.94 32.4631C228.385 31.5146 228.608 30.403 228.608 29.1284C228.608 27.8242 228.385 26.6978 227.94 25.7493C227.525 24.8007 226.918 24.0597 226.117 23.5262C225.316 22.9926 224.367 22.7258 223.27 22.7258C222.173 22.7258 221.224 22.9926 220.423 23.5262C219.652 24.0597 219.044 24.8007 218.599 25.7493C218.154 26.6978 217.932 27.8242 217.932 29.1284C217.932 30.403 218.154 31.5146 218.599 32.4631C219.044 33.4116 219.652 34.1527 220.423 34.6862C221.224 35.2198 222.173 35.4865 223.27 35.4865Z" fill="white"/>
<path d="M241.609 40.9111V17.3016H248.371L248.682 24.9936L247.348 23.5263C247.704 22.2517 248.282 21.1105 249.083 20.1027C249.913 19.0949 250.877 18.2946 251.974 17.7018C253.071 17.1089 254.242 16.8125 255.488 16.8125C256.022 16.8125 256.511 16.857 256.956 16.9459C257.431 17.0348 257.861 17.1386 258.246 17.2571L256.289 25.127C255.963 24.9195 255.518 24.7564 254.954 24.6379C254.42 24.4897 253.857 24.4156 253.264 24.4156C252.611 24.4156 252.004 24.5341 251.44 24.7713C250.877 24.9788 250.402 25.29 250.017 25.705C249.631 26.1199 249.32 26.609 249.083 27.1722C248.875 27.7354 248.771 28.3727 248.771 29.0841V40.9111H241.609Z" fill="white"/>
<path d="M269.573 41.3113C267.586 41.3113 265.807 40.7927 264.235 39.755C262.693 38.6878 261.462 37.2355 260.543 35.3978C259.624 33.5304 259.164 31.4258 259.164 29.0841C259.164 26.6831 259.624 24.5638 260.543 22.726C261.462 20.8882 262.723 19.4506 264.324 18.4131C265.925 17.3461 267.749 16.8125 269.795 16.8125C270.922 16.8125 271.945 16.9755 272.864 17.3016C273.814 17.6277 274.644 18.0871 275.356 18.6799C276.067 19.2431 276.675 19.9101 277.179 20.6807C277.684 21.4218 278.054 22.2221 278.292 23.0817L276.823 22.9039V17.3016H283.896V40.9111H276.69V35.2199L278.292 35.1755C278.054 36.0054 277.669 36.7909 277.135 37.532C276.601 38.273 275.949 38.9251 275.178 39.4882C274.407 40.0513 273.547 40.496 272.598 40.8222C271.649 41.1484 270.641 41.3113 269.573 41.3113ZM271.53 35.3089C272.627 35.3089 273.576 35.0569 274.377 34.553C275.178 34.0491 275.8 33.3377 276.245 32.4188C276.69 31.4702 276.912 30.3587 276.912 29.0841C276.912 27.8095 276.69 26.7128 276.245 25.7939C275.8 24.8454 275.178 24.1191 274.377 23.6152C273.576 23.0817 272.627 22.8149 271.53 22.8149C270.463 22.8149 269.528 23.0817 268.728 23.6152C267.957 24.1191 267.349 24.8454 266.904 25.7939C266.459 26.7128 266.237 27.8095 266.237 29.0841C266.237 30.3587 266.459 31.4702 266.904 32.4188C267.349 33.3377 267.957 34.0491 268.728 34.553C269.528 35.0569 270.463 35.3089 271.53 35.3089Z" fill="white"/>
<path d="M53.821 8.79191L50.6755 5.64796C50.0964 5.06917 49.1576 5.06917 48.5785 5.64796L45.4333 8.79191C44.8542 9.3707 44.8542 10.3091 45.4333 10.8879L48.5785 14.0318C49.1576 14.6106 50.0964 14.6106 50.6755 14.0318L53.821 10.8879C54.4001 10.3091 54.4001 9.3707 53.821 8.79191Z" fill="white"/>
<path d="M125.013 8.79191L121.868 5.64796C121.289 5.06917 120.35 5.06917 119.771 5.64796L116.626 8.79191C116.047 9.3707 116.047 10.3091 116.626 10.8879L119.771 14.0318C120.35 14.6106 121.289 14.6106 121.868 14.0318L125.013 10.8879C125.593 10.3091 125.593 9.3707 125.013 8.79191Z" fill="white"/>
<path fill-rule="evenodd" clip-rule="evenodd" d="M12.8676 13.4999C13.5696 12.7982 14.7078 12.7982 15.4099 13.4999L17.8973 15.9863C17.8974 15.9862 17.8974 15.9863 17.8973 15.9863C17.8973 15.9863 17.8973 15.9867 17.8973 15.9867L21.2689 19.3567C21.9709 20.0584 21.9709 21.1962 21.2689 21.8978L20.1079 23.0583C19.3752 23.7906 18.1873 23.7906 17.4547 23.0583L15.4646 21.0691C14.7319 20.3368 13.544 20.3368 12.8114 21.0691L10.8212 23.0584C10.0885 23.7907 8.90062 23.7907 8.16797 23.0584L7.00698 21.898C6.30497 21.1962 6.30497 20.0585 7.00698 19.3568L11.042 15.3236C11.0422 15.3234 11.0424 15.3234 11.0426 15.3236C11.0427 15.3237 11.0429 15.3237 11.0431 15.3236L12.8676 13.4999Z" fill="white"/>
<path fill-rule="evenodd" clip-rule="evenodd" d="M27.3002 20.5863C27.3002 27.6017 21.446 34.1456 14.9342 38.1644C14.3636 38.5167 13.6418 38.4987 13.085 38.1249C6.67625 33.8233 0.694336 27.6045 0.694336 20.5863C0.694336 13.236 6.65025 7.27734 13.9973 7.27734C21.3443 7.27734 27.3002 13.236 27.3002 20.5863ZM11.9362 30.6091C12.785 30.7823 13.5135 30.0811 13.5135 29.2152V28.9763C13.5135 28.4764 13.1675 28.0537 12.8138 27.7002L11.7083 26.5952C10.9757 25.8629 10.9757 24.6755 11.7083 23.9432L12.8138 22.8382C13.5465 22.1059 14.7344 22.1059 15.4671 22.8382L16.5726 23.9432C17.3052 24.6755 17.3052 25.8629 16.5726 26.5952L15.4671 27.7002C15.1121 28.055 14.7643 28.479 14.7643 28.9808V29.1928C14.7643 30.0541 15.5017 30.7435 16.3408 30.5472C20.8706 29.4879 24.2441 25.4248 24.2441 20.5742C24.2441 14.9176 19.6564 10.332 13.9972 10.332C8.33803 10.332 3.75036 14.9176 3.75036 20.5742C3.75036 25.5252 7.26486 29.6557 11.9362 30.6091Z" fill="white"/>
</g>
</g>
<defs>
<clipPath id="clip0_201_4243">
<rect width="284" height="46" fill="white"/>
</clipPath>
</defs>
</svg><svg width="284" height="46" viewBox="0 0 284 46" fill="none" xmlns="http://www.w3.org/2000/svg">
<g clip-path="url(#clip0_201_4243)">
<mask id="mask0_201_4243" style="mask-type:luminance" maskUnits="userSpaceOnUse" x="-9" y="0" width="293" height="46">
<path d="M283.693 0H-9V46H283.693V0Z" fill="white"/>
</mask>
<g mask="url(#mask0_201_4243)">
<path d="M46.0088 40.9113V17.3018H53.1259V40.9113H46.0088Z" fill="white"/>
<path d="M59.8135 40.9111V17.3016H66.5747L66.7972 22.1035L65.374 22.6371C65.6999 21.57 66.2783 20.6066 67.1086 19.747C67.9688 18.8578 68.9916 18.1464 70.1778 17.6128C71.364 17.0793 72.6096 16.8125 73.9143 16.8125C75.6938 16.8125 77.1914 17.183 78.4071 17.9241C79.6232 18.6355 80.5425 19.7174 81.1653 21.1698C81.7877 22.5926 82.0991 24.3415 82.0991 26.4164V40.9111H74.9375V26.9944C74.9375 26.0458 74.804 25.2604 74.5371 24.6379C74.2702 24.0154 73.8552 23.556 73.2919 23.2596C72.758 22.9335 72.0907 22.7853 71.29 22.8149C70.6671 22.8149 70.0888 22.9187 69.5553 23.1262C69.0215 23.304 68.5617 23.5856 68.1762 23.9709C67.7908 24.3266 67.4794 24.7416 67.242 25.2159C67.0345 25.6902 66.9306 26.2089 66.9306 26.7721V40.9111H63.4165C62.5862 40.9111 61.8744 40.9111 61.2815 40.9111C60.6883 40.9111 60.1989 40.9111 59.8135 40.9111Z" fill="white"/>
<path d="M96.9901 41.4001C94.944 41.4001 93.1201 40.8814 91.5189 39.8437C89.9473 38.7769 88.7017 37.3243 87.7824 35.4865C86.8631 33.6191 86.4033 31.4998 86.4033 29.1284C86.4033 26.7571 86.8631 24.6525 87.7824 22.8148C88.7017 20.9474 89.9619 19.4801 91.5634 18.413C93.1646 17.3459 95.0035 16.8123 97.079 16.8123C98.1467 16.8123 99.1699 16.9754 100.149 17.3014C101.127 17.6275 102.017 18.0721 102.817 18.6353C103.618 19.1985 104.271 19.8506 104.775 20.5917C105.279 21.3031 105.575 22.0441 105.664 22.8148L103.974 23.2149V8.00879H111.136V40.9109H104.508L104.108 35.531L105.531 35.7533C105.442 36.4944 105.145 37.2058 104.641 37.8875C104.167 38.5692 103.544 39.1771 102.773 39.7103C102.002 40.2144 101.112 40.6146 100.104 40.9109C99.1254 41.2372 98.0877 41.4001 96.9901 41.4001ZM98.814 35.4865C99.9112 35.4865 100.86 35.2198 101.661 34.6862C102.462 34.1527 103.069 33.4116 103.485 32.4631C103.93 31.5146 104.152 30.403 104.152 29.1284C104.152 27.8242 103.93 26.6978 103.485 25.7493C103.069 24.8007 102.462 24.0597 101.661 23.5262C100.86 22.9926 99.9112 22.7258 98.814 22.7258C97.7168 22.7258 96.768 22.9926 95.9672 23.5262C95.196 24.0597 94.5881 24.8007 94.1433 25.7493C93.6984 26.6978 93.476 27.8242 93.476 29.1284C93.476 30.403 93.6984 31.5146 94.1433 32.4631C94.5881 33.4116 95.196 34.1527 95.9672 34.6862C96.768 35.2198 97.7168 35.4865 98.814 35.4865Z" fill="white"/>
<path d="M117.555 40.9113V17.3018H124.672V40.9113H117.555Z" fill="white"/>
<path d="M138.209 33.9748L135.584 28.6393L146.616 17.3014H156.002L138.209 33.9748ZM131.358 40.911V8.00879H138.476V40.911H131.358ZM147.372 40.911L139.054 30.151L144.081 26.2384L155.779 40.911H147.372Z" fill="white"/>
<path d="M169.459 41.3558C166.849 41.3558 164.58 40.8371 162.653 39.7995C160.725 38.7323 159.227 37.2948 158.16 35.4867C157.092 33.6489 156.559 31.5592 156.559 29.2175C156.559 27.4094 156.855 25.7495 157.448 24.2377C158.041 22.726 158.872 21.4218 159.939 20.325C161.007 19.1986 162.267 18.339 163.72 17.7462C165.203 17.1237 166.819 16.8125 168.569 16.8125C170.23 16.8125 171.742 17.1089 173.106 17.7018C174.5 18.2946 175.701 19.1245 176.709 20.1916C177.717 21.2587 178.488 22.5185 179.022 23.9709C179.556 25.4234 179.793 27.0092 179.734 28.7284L179.689 30.6403H160.873L159.85 26.6387H173.907L173.151 27.4835V26.5942C173.091 25.8532 172.854 25.2011 172.439 24.6379C172.053 24.045 171.534 23.5856 170.882 23.2596C170.229 22.9335 169.488 22.7705 168.658 22.7705C167.501 22.7705 166.508 23.0076 165.677 23.4818C164.877 23.9265 164.269 24.5934 163.854 25.4827C163.438 26.3423 163.231 27.4094 163.231 28.684C163.231 29.9882 163.498 31.1294 164.032 32.1076C164.595 33.0561 165.396 33.7971 166.434 34.3307C167.501 34.8642 168.761 35.131 170.215 35.131C171.223 35.131 172.113 34.9828 172.884 34.6864C173.684 34.3899 174.544 33.8861 175.464 33.1747L178.8 37.8877C177.88 38.6878 176.902 39.3402 175.864 39.8439C174.826 40.348 173.759 40.7183 172.661 40.9556C171.594 41.2224 170.526 41.3558 169.459 41.3558Z" fill="white"/>
<path d="M184.27 40.9111V17.3016H191.031L191.253 22.1035L189.83 22.6371C190.156 21.57 190.734 20.6066 191.565 19.747C192.424 18.8578 193.448 18.1464 194.634 17.6128C195.82 17.0793 197.066 16.8125 198.37 16.8125C200.15 16.8125 201.647 17.183 202.863 17.9241C204.079 18.6354 204.998 19.7174 205.621 21.1698C206.244 22.5926 206.555 24.3415 206.555 26.4164V40.9111H199.394V26.9944C199.394 26.0459 199.26 25.2604 198.993 24.6379C198.726 24.0154 198.311 23.5559 197.748 23.2596C197.214 22.9335 196.546 22.7853 195.746 22.8149C195.123 22.8149 194.545 22.9187 194.011 23.1262C193.477 23.304 193.018 23.5856 192.632 23.9709C192.247 24.3266 191.935 24.7416 191.698 25.2159C191.49 25.6902 191.387 26.2089 191.387 26.7721V40.9111H187.873C187.042 40.9111 186.331 40.9111 185.737 40.9111C185.144 40.9111 184.655 40.9111 184.27 40.9111Z" fill="white"/>
<path d="M221.446 41.4001C219.4 41.4001 217.576 40.8815 215.975 39.8438C214.403 38.7766 213.157 37.3243 212.238 35.4865C211.319 33.6191 210.859 31.4998 210.859 29.1284C210.859 26.7571 211.319 24.6525 212.238 22.8148C213.157 20.9474 214.418 19.4801 216.019 18.413C217.621 17.3459 219.459 16.8123 221.535 16.8123C222.603 16.8123 223.626 16.9754 224.604 17.3014C225.583 17.6275 226.473 18.0721 227.274 18.6353C228.074 19.1985 228.727 19.8506 229.231 20.5916C229.735 21.3031 230.031 22.0441 230.12 22.8148L228.43 23.2149V8.00879H235.591V40.911H228.964L228.563 35.531L229.987 35.7533C229.898 36.4944 229.601 37.2058 229.097 37.8875C228.623 38.5692 228 39.1768 227.229 39.7104C226.458 40.2145 225.568 40.6147 224.56 40.911C223.581 41.2372 222.543 41.4001 221.446 41.4001ZM223.27 35.4865C224.367 35.4865 225.316 35.2198 226.117 34.6862C226.918 34.1527 227.525 33.4116 227.94 32.4631C228.385 31.5146 228.608 30.403 228.608 29.1284C228.608 27.8242 228.385 26.6978 227.94 25.7493C227.525 24.8007 226.918 24.0597 226.117 23.5262C225.316 22.9926 224.367 22.7258 223.27 22.7258C222.173 22.7258 221.224 22.9926 220.423 23.5262C219.652 24.0597 219.044 24.8007 218.599 25.7493C218.154 26.6978 217.932 27.8242 217.932 29.1284C217.932 30.403 218.154 31.5146 218.599 32.4631C219.044 33.4116 219.652 34.1527 220.423 34.6862C221.224 35.2198 222.173 35.4865 223.27 35.4865Z" fill="white"/>
<path d="M241.609 40.9111V17.3016H248.371L248.682 24.9936L247.348 23.5263C247.704 22.2517 248.282 21.1105 249.083 20.1027C249.913 19.0949 250.877 18.2946 251.974 17.7018C253.071 17.1089 254.242 16.8125 255.488 16.8125C256.022 16.8125 256.511 16.857 256.956 16.9459C257.431 17.0348 257.861 17.1386 258.246 17.2571L256.289 25.127C255.963 24.9195 255.518 24.7564 254.954 24.6379C254.42 24.4897 253.857 24.4156 253.264 24.4156C252.611 24.4156 252.004 24.5341 251.44 24.7713C250.877 24.9788 250.402 25.29 250.017 25.705C249.631 26.1199 249.32 26.609 249.083 27.1722C248.875 27.7354 248.771 28.3727 248.771 29.0841V40.9111H241.609Z" fill="white"/>
<path d="M269.573 41.3113C267.586 41.3113 265.807 40.7927 264.235 39.755C262.693 38.6878 261.462 37.2355 260.543 35.3978C259.624 33.5304 259.164 31.4258 259.164 29.0841C259.164 26.6831 259.624 24.5638 260.543 22.726C261.462 20.8882 262.723 19.4506 264.324 18.4131C265.925 17.3461 267.749 16.8125 269.795 16.8125C270.922 16.8125 271.945 16.9755 272.864 17.3016C273.814 17.6277 274.644 18.0871 275.356 18.6799C276.067 19.2431 276.675 19.9101 277.179 20.6807C277.684 21.4218 278.054 22.2221 278.292 23.0817L276.823 22.9039V17.3016H283.896V40.9111H276.69V35.2199L278.292 35.1755C278.054 36.0054 277.669 36.7909 277.135 37.532C276.601 38.273 275.949 38.9251 275.178 39.4882C274.407 40.0513 273.547 40.496 272.598 40.8222C271.649 41.1484 270.641 41.3113 269.573 41.3113ZM271.53 35.3089C272.627 35.3089 273.576 35.0569 274.377 34.553C275.178 34.0491 275.8 33.3377 276.245 32.4188C276.69 31.4702 276.912 30.3587 276.912 29.0841C276.912 27.8095 276.69 26.7128 276.245 25.7939C275.8 24.8454 275.178 24.1191 274.377 23.6152C273.576 23.0817 272.627 22.8149 271.53 22.8149C270.463 22.8149 269.528 23.0817 268.728 23.6152C267.957 24.1191 267.349 24.8454 266.904 25.7939C266.459 26.7128 266.237 27.8095 266.237 29.0841C266.237 30.3587 266.459 31.4702 266.904 32.4188C267.349 33.3377 267.957 34.0491 268.728 34.553C269.528 35.0569 270.463 35.3089 271.53 35.3089Z" fill="white"/>
<path d="M53.821 8.79191L50.6755 5.64796C50.0964 5.06917 49.1576 5.06917 48.5785 5.64796L45.4333 8.79191C44.8542 9.3707 44.8542 10.3091 45.4333 10.8879L48.5785 14.0318C49.1576 14.6106 50.0964 14.6106 50.6755 14.0318L53.821 10.8879C54.4001 10.3091 54.4001 9.3707 53.821 8.79191Z" fill="white"/>
<path d="M125.013 8.79191L121.868 5.64796C121.289 5.06917 120.35 5.06917 119.771 5.64796L116.626 8.79191C116.047 9.3707 116.047 10.3091 116.626 10.8879L119.771 14.0318C120.35 14.6106 121.289 14.6106 121.868 14.0318L125.013 10.8879C125.593 10.3091 125.593 9.3707 125.013 8.79191Z" fill="white"/>
<path fill-rule="evenodd" clip-rule="evenodd" d="M12.8676 13.4999C13.5696 12.7982 14.7078 12.7982 15.4099 13.4999L17.8973 15.9863C17.8974 15.9862 17.8974 15.9863 17.8973 15.9863C17.8973 15.9863 17.8973 15.9867 17.8973 15.9867L21.2689 19.3567C21.9709 20.0584 21.9709 21.1962 21.2689 21.8978L20.1079 23.0583C19.3752 23.7906 18.1873 23.7906 17.4547 23.0583L15.4646 21.0691C14.7319 20.3368 13.544 20.3368 12.8114 21.0691L10.8212 23.0584C10.0885 23.7907 8.90062 23.7907 8.16797 23.0584L7.00698 21.898C6.30497 21.1962 6.30497 20.0585 7.00698 19.3568L11.042 15.3236C11.0422 15.3234 11.0424 15.3234 11.0426 15.3236C11.0427 15.3237 11.0429 15.3237 11.0431 15.3236L12.8676 13.4999Z" fill="white"/>
<path fill-rule="evenodd" clip-rule="evenodd" d="M27.3002 20.5863C27.3002 27.6017 21.446 34.1456 14.9342 38.1644C14.3636 38.5167 13.6418 38.4987 13.085 38.1249C6.67625 33.8233 0.694336 27.6045 0.694336 20.5863C0.694336 13.236 6.65025 7.27734 13.9973 7.27734C21.3443 7.27734 27.3002 13.236 27.3002 20.5863ZM11.9362 30.6091C12.785 30.7823 13.5135 30.0811 13.5135 29.2152V28.9763C13.5135 28.4764 13.1675 28.0537 12.8138 27.7002L11.7083 26.5952C10.9757 25.8629 10.9757 24.6755 11.7083 23.9432L12.8138 22.8382C13.5465 22.1059 14.7344 22.1059 15.4671 22.8382L16.5726 23.9432C17.3052 24.6755 17.3052 25.8629 16.5726 26.5952L15.4671 27.7002C15.1121 28.055 14.7643 28.479 14.7643 28.9808V29.1928C14.7643 30.0541 15.5017 30.7435 16.3408 30.5472C20.8706 29.4879 24.2441 25.4248 24.2441 20.5742C24.2441 14.9176 19.6564 10.332 13.9972 10.332C8.33803 10.332 3.75036 14.9176 3.75036 20.5742C3.75036 25.5252 7.26486 29.6557 11.9362 30.6091Z" fill="white"/>
</g>
</g>
<defs>
<clipPath id="clip0_201_4243">
<rect width="284" height="46" fill="white"/>
</clipPath>
</defs>
</svg>
