<svg width="404" height="467" viewBox="0 0 404 467" fill="none" xmlns="http://www.w3.org/2000/svg">
<g opacity="0.2">
<path d="M202.249 1.00003V233.378L1 349.571V117.189L202.249 1.00003Z" fill="#141415" stroke="#4D5C70" stroke-miterlimit="10" stroke-linejoin="round"/>
<path d="M202.25 1.00027V233.379L403.495 349.571V117.189L202.25 1.00027Z" fill="#141415" stroke="#4D5C70" stroke-miterlimit="10" stroke-linejoin="round"/>
<path d="M83.1172 302.16V164.597L202.25 95.8161L321.382 164.597V302.16L202.25 370.941L83.1172 302.16Z" fill="#141415"/>
<path d="M1.00098 349.571V117.189L202.25 1.00009L403.495 117.189V349.571L202.25 465.76L1.00098 349.571Z" fill="#141415" stroke="#4D5C70" stroke-miterlimit="10" stroke-linejoin="round"/>
<path d="M1.00098 117.189L202.25 233.378L403.495 117.189L202.25 1.00011L1.00098 117.189Z" fill="#141415" stroke="#4D5C70" stroke-miterlimit="10" stroke-linejoin="round"/>
<path d="M202.249 233.379V465.76L403.495 349.571V117.189L202.249 233.379Z" fill="#141415" stroke="#4D5C70" stroke-miterlimit="10" stroke-linecap="round" stroke-linejoin="round"/>
</g>
</svg>
