<svg width="1440" height="1864" viewBox="0 0 1440 1864" fill="none" xmlns="http://www.w3.org/2000/svg">
<g opacity="0.2">
<mask id="mask0_249_4267" style="mask-type:luminance" maskUnits="userSpaceOnUse" x="0" y="0" width="1440" height="1865">
<path d="M0.000162956 1864L1440 1864L1440 0.00012207L0 0.000247959L0.000162956 1864Z" fill="white"/>
</mask>
<g mask="url(#mask0_249_4267)">
<g filter="url(#filter0_f_249_4267)">
<path d="M-183 183.131L284 183.131L284 -86.9303L-183 -86.9303L-183 183.131Z" fill="#18A0FB"/>
<path d="M134 521.576L1294 521.576L1294 -0.00134277L134 -0.00124136L134 521.576Z" fill="#091E38"/>
<path d="M429 803.229L1103 803.229L1103 411.466L429 411.466L429 803.229Z" fill="#458BEA"/>
<path d="M1016 914.498L1758 914.498L1758 530.849L1016 530.849L1016 914.498Z" fill="#FFC700"/>
<path d="M18.0001 815.979L662 815.979L662 346.559L18.0001 346.559L18.0001 815.979Z" fill="#E04A00"/>
<path d="M-351 1152.1L521 1152.1L521 712.819L-351 712.819L-351 1152.1Z" fill="#00C5DF"/>
</g>
</g>
</g>
<defs>
<filter id="filter0_f_249_4267" x="-726" y="-461.931" width="2859" height="1989.03" filterUnits="userSpaceOnUse" color-interpolation-filters="sRGB">
<feFlood flood-opacity="0" result="BackgroundImageFix"/>
<feBlend mode="normal" in="SourceGraphic" in2="BackgroundImageFix" result="shape"/>
<feGaussianBlur stdDeviation="187.5" result="effect1_foregroundBlur_249_4267"/>
</filter>
</defs>
</svg>
