<svg width="1320" height="1225" viewBox="0 0 1320 1225" fill="none" xmlns="http://www.w3.org/2000/svg">
<g filter="url(#filter0_f_249_3960)">
<path d="M863.367 426.682C799.759 366.08 770.502 256.842 683.154 248.331C593.661 239.612 533.512 330.46 464.132 387.784C463.965 387.923 463.796 388.06 463.629 388.199L682.739 607.309L863.367 426.682Z" fill="#0A7CFF"/>
<path d="M863.366 426.682L682.738 607.309H1059.94C1044.68 548.942 994.306 517.047 942.525 484.263C914.82 466.721 886.712 448.925 863.366 426.682Z" fill="#0A7CFF"/>
<path d="M682.738 607.31L463.628 388.2C441.803 406.172 417.171 422.582 392.558 438.98C324.529 484.302 256.654 529.522 248.672 607.31H682.738Z" fill="#FF469D"/>
<path d="M248.672 607.309C237.471 716.454 329.924 806.799 413.909 877.174L682.739 607.309H248.672Z" fill="#FF7847"/>
<path d="M991.343 916.204C1070.11 840.095 1087.67 713.387 1059.94 607.309H682.738L991.343 916.204Z" fill="#00DFDF"/>
<path d="M682.74 607.309L413.91 877.174C500.753 949.945 586.665 964.634 700.173 972.562L700.204 972.564L682.74 607.309Z" fill="#7733FF"/>
<path d="M991.343 916.204L682.738 607.309L700.202 972.564C803.99 979.815 917.314 987.731 991.343 916.204Z" fill="#00DFDF"/>
</g>
<defs>
<filter id="filter0_f_249_3960" x="-0.000671387" y="6.10352e-05" width="1319.99" height="1224.86" filterUnits="userSpaceOnUse" color-interpolation-filters="sRGB">
<feFlood flood-opacity="0" result="BackgroundImageFix"/>
<feBlend mode="normal" in="SourceGraphic" in2="BackgroundImageFix" result="shape"/>
<feGaussianBlur stdDeviation="123.873" result="effect1_foregroundBlur_249_3960"/>
</filter>
</defs>
</svg>
