<svg width="770" height="371" viewBox="0 0 770 371" fill="none" xmlns="http://www.w3.org/2000/svg">
<path d="M118.953 74.7179C118.407 74.7179 117.884 74.5012 117.498 74.1154C117.112 73.7295 116.896 73.2063 116.896 72.6606V7.34638C116.896 6.80075 117.112 6.27746 117.498 5.89163C117.884 5.50581 118.407 5.28906 118.953 5.28906C119.498 5.28906 120.022 5.50581 120.408 5.89163C120.793 6.27746 121.01 6.80075 121.01 7.34638V72.5702C121.022 72.8479 120.978 73.1252 120.88 73.3853C120.782 73.6454 120.633 73.883 120.441 74.0837C120.248 74.2845 120.017 74.4442 119.762 74.5532C119.506 74.6622 119.231 74.7182 118.953 74.7179Z" fill="#00B59A"/>
<path d="M126.595 7.73191C126.595 6.20268 126.141 4.7078 125.292 3.43629C124.442 2.16479 123.234 1.17377 121.822 0.588561C120.409 0.00335105 118.854 -0.149768 117.354 0.148569C115.855 0.446907 114.477 1.1833 113.395 2.26462C112.314 3.34595 111.578 4.72364 111.279 6.22349C110.981 7.72333 111.134 9.27796 111.719 10.6908C112.305 12.1036 113.296 13.3112 114.567 14.1607C115.839 15.0103 117.334 15.4638 118.863 15.4638C119.878 15.4638 120.884 15.2638 121.822 14.8752C122.76 14.4867 123.612 13.9172 124.33 13.1992C125.048 12.4812 125.618 11.6289 126.006 10.6908C126.395 9.7527 126.595 8.74728 126.595 7.73191Z" fill="#00B59A"/>
<path d="M648.951 74.7179C648.405 74.7179 647.882 74.5012 647.496 74.1154C647.11 73.7295 646.894 73.2063 646.894 72.6606V7.34639C646.894 7.07621 646.947 6.80869 647.05 6.55908C647.153 6.30948 647.305 6.08268 647.496 5.89164C647.687 5.7006 647.914 5.54906 648.164 5.44567C648.413 5.34228 648.681 5.28906 648.951 5.28906C649.221 5.28906 649.489 5.34228 649.738 5.44567C649.988 5.54906 650.215 5.7006 650.406 5.89164C650.597 6.08268 650.748 6.30948 650.852 6.55908C650.955 6.80869 651.008 7.07621 651.008 7.34639V72.5702C651.02 72.8479 650.976 73.1252 650.878 73.3853C650.78 73.6454 650.631 73.883 650.439 74.0838C650.246 74.2845 650.015 74.4442 649.76 74.5532C649.504 74.6622 649.229 74.7182 648.951 74.7179Z" fill="#00B59A"/>
<path d="M648.95 15.4638C653.22 15.4638 656.682 12.0021 656.682 7.7319C656.682 3.46169 653.22 0 648.95 0C644.679 0 641.218 3.46169 641.218 7.7319C641.218 12.0021 644.679 15.4638 648.95 15.4638Z" fill="#00B59A"/>
<path d="M384.529 365.049C383.983 365.049 383.46 364.833 383.074 364.447C382.688 364.061 382.472 363.538 382.472 362.992V297.768C382.472 297.223 382.688 296.699 383.074 296.313C383.46 295.928 383.983 295.711 384.529 295.711C385.075 295.711 385.598 295.928 385.984 296.313C386.37 296.699 386.586 297.223 386.586 297.768V362.992C386.586 363.538 386.37 364.061 385.984 364.447C385.598 364.833 385.075 365.049 384.529 365.049Z" fill="#00B59A"/>
<path d="M376.797 362.609C376.797 364.138 377.25 365.633 378.1 366.904C378.95 368.176 380.157 369.167 381.57 369.752C382.983 370.337 384.537 370.491 386.037 370.192C387.537 369.894 388.915 369.157 389.996 368.076C391.077 366.995 391.814 365.617 392.112 364.117C392.41 362.617 392.257 361.063 391.672 359.65C391.087 358.237 390.096 357.03 388.824 356.18C387.553 355.33 386.058 354.877 384.529 354.877C382.478 354.877 380.512 355.692 379.061 357.142C377.611 358.592 376.797 360.558 376.797 362.609Z" fill="#00B59A"/>
<path style="mix-blend-mode:multiply" d="M118.951 306.178C176.886 306.178 223.852 259.213 223.852 201.278C223.852 143.343 176.886 96.377 118.951 96.377C61.0164 96.377 14.0508 143.343 14.0508 201.278C14.0508 259.213 61.0164 306.178 118.951 306.178Z" fill="url(#paint0_radial_1044_1930)"/>
<path d="M209.505 206.511C221.141 157.21 190.607 107.811 141.306 96.1745C92.005 84.5384 42.6056 115.072 30.9695 164.373C19.3333 213.674 49.8668 263.074 99.168 274.71C148.469 286.346 197.868 255.812 209.505 206.511Z" fill="white"/>
<path d="M120.219 268.108C165.868 268.108 202.873 231.102 202.873 185.453C202.873 139.805 165.868 102.799 120.219 102.799C74.5701 102.799 37.5645 139.805 37.5645 185.453C37.5645 231.102 74.5701 268.108 120.219 268.108Z" fill="url(#paint1_linear_1044_1930)"/>
<path d="M7.56388 180.16H7.42823C7.15164 180.144 6.88131 180.071 6.63345 179.947C6.3856 179.823 6.16533 179.651 5.98586 179.439C5.80639 179.228 5.67143 178.983 5.58907 178.718C5.50671 178.454 5.47864 178.175 5.50656 177.9C7.42495 148.782 20.3449 121.483 41.6467 101.538C62.9484 81.5934 91.0377 70.4961 120.219 70.4961C149.4 70.4961 177.49 81.5934 198.791 101.538C220.093 121.483 233.013 148.782 234.932 177.9C234.973 178.182 234.956 178.469 234.88 178.744C234.805 179.019 234.673 179.275 234.493 179.496C234.314 179.718 234.09 179.899 233.837 180.029C233.583 180.16 233.305 180.236 233.021 180.253C232.737 180.27 232.452 180.228 232.184 180.13C231.917 180.031 231.673 179.878 231.468 179.68C231.263 179.482 231.101 179.244 230.993 178.98C230.885 178.717 230.832 178.433 230.84 178.148C229.273 149.872 216.937 123.269 196.366 103.806C175.794 84.3424 148.55 73.4965 120.23 73.4965C91.9107 73.4965 64.6663 84.3424 44.095 103.806C23.5236 123.269 11.1875 149.872 9.6212 178.148C9.60938 178.686 9.38742 179.198 9.00287 179.574C8.61832 179.95 8.10177 180.161 7.56388 180.16Z" fill="#00B59A"/>
<path d="M15.4538 178.104C15.376 179.63 14.8476 181.099 13.9353 182.326C13.023 183.552 11.7677 184.48 10.328 184.993C8.88831 185.507 7.32883 185.582 5.84655 185.209C4.36427 184.836 3.0257 184.033 1.99994 182.9C0.974176 181.766 0.307241 180.355 0.0833851 178.843C-0.140471 177.331 0.0887966 175.787 0.742224 174.405C1.39565 173.023 2.44392 171.866 3.75461 171.08C5.0653 170.294 6.57961 169.914 8.10623 169.988C10.1535 170.099 12.0741 171.014 13.4501 172.534C14.8261 174.054 15.5462 176.056 15.4538 178.104Z" fill="#00B59A"/>
<path d="M225.006 178.103C225.084 179.63 225.613 181.1 226.527 182.327C227.44 183.553 228.697 184.481 230.138 184.994C231.579 185.506 233.14 185.579 234.622 185.205C236.105 184.83 237.443 184.024 238.468 182.889C239.493 181.753 240.157 180.34 240.379 178.827C240.6 177.313 240.367 175.768 239.71 174.387C239.053 173.006 238.002 171.851 236.688 171.068C235.375 170.284 233.858 169.908 232.331 169.987C230.284 170.092 228.362 171.006 226.988 172.528C225.614 174.05 224.902 176.055 225.006 178.103Z" fill="#00B59A"/>
<path style="mix-blend-mode:multiply" d="M383.24 306.178C441.175 306.178 488.14 259.213 488.14 201.278C488.14 143.343 441.175 96.377 383.24 96.377C325.305 96.377 278.339 143.343 278.339 201.278C278.339 259.213 325.305 306.178 383.24 306.178Z" fill="url(#paint2_radial_1044_1930)"/>
<path d="M449.38 250.303C485.199 214.484 485.199 156.41 449.38 120.591C413.561 84.7723 355.487 84.7722 319.668 120.591C283.849 156.41 283.849 214.484 319.668 250.303C355.487 286.122 413.561 286.122 449.38 250.303Z" fill="white"/>
<path d="M384.506 268.108C430.155 268.108 467.161 231.102 467.161 185.453C467.161 139.805 430.155 102.799 384.506 102.799C338.857 102.799 301.852 139.805 301.852 185.453C301.852 231.102 338.857 268.108 384.506 268.108Z" fill="url(#paint3_linear_1044_1930)"/>
<path d="M384.505 300.392C355.327 300.347 327.254 289.224 305.963 269.272C284.672 249.32 271.752 222.028 269.815 192.914C269.781 192.637 269.804 192.356 269.884 192.088C269.964 191.821 270.098 191.573 270.279 191.36C270.46 191.148 270.682 190.975 270.934 190.853C271.185 190.732 271.458 190.663 271.737 190.653C272.012 190.628 272.289 190.658 272.553 190.742C272.816 190.826 273.06 190.961 273.27 191.14C273.481 191.319 273.654 191.538 273.778 191.784C273.903 192.03 273.978 192.299 273.998 192.575C275.564 220.851 287.9 247.454 308.472 266.917C329.043 286.381 356.287 297.226 384.607 297.226C412.927 297.226 440.171 286.381 460.742 266.917C481.314 247.454 493.65 220.851 495.216 192.575C495.291 192.065 495.555 191.602 495.955 191.277C496.355 190.952 496.862 190.79 497.376 190.821C497.891 190.852 498.374 191.075 498.732 191.446C499.09 191.817 499.295 192.308 499.308 192.823C497.387 221.971 484.459 249.299 463.143 269.272C441.827 289.244 413.716 300.369 384.505 300.392Z" fill="#00B59A"/>
<path d="M489.292 192.777C489.371 191.249 489.9 189.78 490.813 188.553C491.727 187.327 492.983 186.398 494.424 185.886C495.865 185.374 497.426 185.3 498.909 185.675C500.391 186.05 501.73 186.856 502.754 187.991C503.779 189.126 504.444 190.54 504.665 192.053C504.886 193.567 504.654 195.111 503.997 196.492C503.34 197.874 502.288 199.029 500.975 199.812C499.661 200.595 498.145 200.972 496.617 200.893C495.603 200.844 494.608 200.595 493.689 200.16C492.771 199.724 491.948 199.112 491.267 198.358C490.587 197.604 490.062 196.722 489.723 195.765C489.384 194.807 489.238 193.791 489.292 192.777Z" fill="#00B59A"/>
<path d="M279.74 192.778C279.662 191.252 279.134 189.782 278.221 188.556C277.309 187.33 276.054 186.402 274.614 185.888C273.174 185.375 271.615 185.3 270.133 185.673C268.65 186.046 267.312 186.849 266.286 187.982C265.26 189.115 264.593 190.527 264.37 192.039C264.146 193.551 264.375 195.095 265.028 196.477C265.682 197.859 266.73 199.016 268.041 199.802C269.351 200.588 270.866 200.968 272.392 200.894C273.409 200.848 274.407 200.601 275.327 200.167C276.248 199.733 277.074 199.121 277.757 198.367C278.44 197.612 278.967 196.73 279.307 195.771C279.648 194.811 279.795 193.794 279.74 192.778Z" fill="#00B59A"/>
<path style="mix-blend-mode:multiply" d="M647.526 306.178C705.461 306.178 752.426 259.213 752.426 201.278C752.426 143.343 705.461 96.377 647.526 96.377C589.591 96.377 542.625 143.343 542.625 201.278C542.625 259.213 589.591 306.178 647.526 306.178Z" fill="url(#paint4_radial_1044_1930)"/>
<path d="M740.224 198.174C748.329 148.025 714.245 100.801 664.096 92.6961C613.947 84.5912 566.723 118.675 558.618 168.824C550.513 218.973 584.596 266.197 634.745 274.302C684.895 282.407 732.119 248.324 740.224 198.174Z" fill="white"/>
<path d="M648.815 268.108C694.463 268.108 731.469 231.102 731.469 185.453C731.469 139.805 694.463 102.799 648.815 102.799C603.166 102.799 566.16 139.805 566.16 185.453C566.16 231.102 603.166 268.108 648.815 268.108Z" fill="url(#paint5_linear_1044_1930)"/>
<path d="M536.158 180.164H536.022C535.745 180.147 535.475 180.074 535.227 179.95C534.979 179.827 534.759 179.654 534.58 179.443C534.4 179.232 534.265 178.986 534.183 178.722C534.1 178.457 534.072 178.179 534.1 177.903C535.976 148.758 548.877 121.42 570.181 101.443C591.486 81.4655 619.596 70.3477 648.801 70.3477C678.007 70.3477 706.117 81.4655 727.422 101.443C748.726 121.42 761.627 148.758 763.503 177.903C763.537 178.178 763.515 178.457 763.436 178.723C763.358 178.989 763.225 179.236 763.047 179.448C762.869 179.66 762.648 179.834 762.4 179.957C762.152 180.08 761.881 180.15 761.604 180.164C761.329 180.189 761.051 180.158 760.788 180.075C760.525 179.991 760.281 179.856 760.07 179.677C759.86 179.498 759.687 179.279 759.562 179.033C759.437 178.786 759.363 178.518 759.343 178.242C757.777 149.966 745.441 123.363 724.869 103.9C704.298 84.4361 677.053 73.5902 648.734 73.5902C620.414 73.5902 593.17 84.4361 572.598 103.9C552.027 123.363 539.691 149.966 538.125 178.242C538.091 178.749 537.872 179.225 537.509 179.58C537.146 179.935 536.665 180.143 536.158 180.164Z" fill="#00B59A"/>
<path d="M544.026 178.103C543.948 179.63 543.419 181.1 542.505 182.327C541.592 183.553 540.335 184.481 538.894 184.994C537.453 185.506 535.893 185.579 534.41 185.205C532.927 184.83 531.589 184.024 530.564 182.889C529.54 181.753 528.875 180.34 528.654 178.827C528.432 177.313 528.665 175.768 529.322 174.387C529.979 173.006 531.03 171.851 532.344 171.068C533.657 170.284 535.174 169.908 536.701 169.987C538.746 170.098 540.665 171.014 542.037 172.534C543.41 174.055 544.125 176.057 544.026 178.103Z" fill="#00B59A"/>
<path d="M753.579 178.104C753.657 179.63 754.185 181.099 755.098 182.326C756.01 183.552 757.265 184.48 758.705 184.993C760.145 185.507 761.704 185.582 763.187 185.209C764.669 184.836 766.007 184.033 767.033 182.9C768.059 181.766 768.726 180.355 768.95 178.843C769.174 177.331 768.944 175.787 768.291 174.405C767.637 173.023 766.589 171.866 765.278 171.08C763.968 170.294 762.453 169.914 760.927 169.988C758.877 170.093 756.953 171.006 755.576 172.528C754.199 174.049 753.481 176.054 753.579 178.104Z" fill="#00B59A"/>
<path d="M623.154 168.156V202.724H674.452V168.156H623.154ZM648.769 186.243L629.304 171.254H668.28L648.769 186.243ZM641.987 184.977L626.161 197.818V172.949L641.987 184.977ZM644.519 186.943L648.724 190.176L653.132 186.785L668.506 199.536H629.123L644.519 186.943ZM655.687 184.841L671.286 172.859V197.727L655.687 184.841Z" fill="white"/>
<path d="M403.632 185.498C403.666 184.888 403.666 184.276 403.632 183.667L409.419 180.682C409.026 178.643 408.38 176.661 407.498 174.782L401.054 175.776C400.452 174.724 399.74 173.739 398.929 172.837L401.868 167.027C400.344 165.615 398.659 164.386 396.849 163.365L392.215 167.886C391.098 167.412 389.94 167.041 388.756 166.778L387.716 160.358C385.652 160.086 383.562 160.086 381.499 160.358L380.436 166.778C379.259 167.042 378.109 167.412 377 167.886L372.365 163.365C370.552 164.38 368.867 165.61 367.346 167.027L370.285 172.837C369.474 173.739 368.762 174.724 368.16 175.776L361.717 174.782C360.837 176.664 360.184 178.645 359.772 180.682L365.56 183.667C365.56 184.277 365.56 184.865 365.56 185.498C365.56 186.131 365.56 186.696 365.56 187.306L359.772 190.291C360.184 192.328 360.837 194.309 361.717 196.191L368.16 195.219C368.768 196.261 369.48 197.238 370.285 198.136L367.346 203.946C368.867 205.363 370.552 206.593 372.365 207.608L377 203.087C378.109 203.561 379.259 203.931 380.436 204.194L381.499 210.615C383.562 210.886 385.652 210.886 387.716 210.615L388.756 204.194C389.94 203.931 391.098 203.561 392.215 203.087L396.849 207.608C398.659 206.587 400.344 205.358 401.868 203.946L398.929 198.136C399.735 197.238 400.447 196.261 401.054 195.219L407.498 196.191C408.38 194.312 409.026 192.33 409.419 190.291L403.632 187.306C403.666 186.704 403.666 186.1 403.632 185.498ZM384.506 197.48C382.129 197.484 379.805 196.784 377.827 195.466C375.85 194.149 374.308 192.274 373.396 190.08C372.485 187.885 372.245 185.469 372.708 183.139C373.17 180.808 374.314 178.667 375.994 176.986C377.675 175.306 379.816 174.162 382.146 173.7C384.477 173.237 386.893 173.477 389.087 174.388C391.282 175.3 393.157 176.842 394.474 178.82C395.791 180.797 396.492 183.121 396.488 185.498C396.47 188.666 395.2 191.699 392.956 193.935C390.711 196.171 387.674 197.429 384.506 197.435V197.48Z" fill="white"/>
<path d="M103.534 200.826L113.278 191.082L117.393 195.174L136.316 176.251L139.458 179.416C139.458 179.145 141.855 164.698 141.719 165.625L127.928 167.886L131.478 171.435L117.393 185.498L113.278 181.383L102.879 191.783V160.629H96.9102V206.749H143.03V200.781L103.534 200.826Z" fill="white"/>
<path d="M118.953 81.8175C124.059 81.8175 128.199 77.6776 128.199 72.5709C128.199 67.4641 124.059 63.3242 118.953 63.3242C113.846 63.3242 109.706 67.4641 109.706 72.5709C109.706 77.6776 113.846 81.8175 118.953 81.8175Z" fill="white"/>
<path d="M118.953 83.8755C116.718 83.8755 114.532 83.2125 112.673 81.9704C110.814 80.7283 109.365 78.9629 108.51 76.8974C107.654 74.8318 107.43 72.559 107.867 70.3662C108.303 68.1735 109.379 66.1593 110.96 64.5784C112.541 62.9975 114.555 61.9209 116.748 61.4848C118.941 61.0486 121.214 61.2725 123.279 62.128C125.345 62.9836 127.11 64.4325 128.352 66.2914C129.594 68.1503 130.257 70.3358 130.257 72.5715C130.257 75.5695 129.066 78.4447 126.946 80.5646C124.827 82.6845 121.951 83.8755 118.953 83.8755ZM118.953 65.3596C117.526 65.3551 116.129 65.7743 114.941 66.564C113.752 67.3538 112.824 68.4786 112.274 69.796C111.725 71.1134 111.579 72.5641 111.855 73.9646C112.13 75.3651 112.815 76.6522 113.823 77.6631C114.831 78.674 116.116 79.3631 117.515 79.6432C118.915 79.9233 120.366 79.7818 121.685 79.2366C123.005 78.6914 124.132 77.7671 124.926 76.5806C125.719 75.3941 126.143 73.9989 126.143 72.5715C126.143 70.6627 125.386 68.8318 124.038 67.4799C122.691 66.1281 120.862 65.3656 118.953 65.3596Z" fill="#00B59A"/>
<path d="M648.836 81.8175C653.943 81.8175 658.083 77.6776 658.083 72.5709C658.083 67.4641 653.943 63.3242 648.836 63.3242C643.73 63.3242 639.59 67.4641 639.59 72.5709C639.59 77.6776 643.73 81.8175 648.836 81.8175Z" fill="white"/>
<path d="M648.837 83.8755C646.601 83.8755 644.416 83.2125 642.557 81.9704C640.698 80.7283 639.249 78.9629 638.394 76.8974C637.538 74.8318 637.314 72.559 637.75 70.3662C638.187 68.1735 639.263 66.1593 640.844 64.5784C642.425 62.9975 644.439 61.9209 646.632 61.4848C648.825 61.0486 651.097 61.2725 653.163 62.128C655.229 62.9836 656.994 64.4325 658.236 66.2914C659.478 68.1503 660.141 70.3358 660.141 72.5715C660.141 75.5695 658.95 78.4447 656.83 80.5646C654.71 82.6845 651.835 83.8755 648.837 83.8755ZM648.837 65.3596C647.41 65.3551 646.013 65.7743 644.824 66.564C643.635 67.3538 642.707 68.4786 642.158 69.796C641.609 71.1134 641.463 72.5641 641.738 73.9646C642.014 75.3651 642.699 76.6522 643.707 77.6631C644.715 78.674 646 79.3631 647.399 79.6432C648.799 79.9233 650.25 79.7818 651.569 79.2366C652.888 78.6914 654.016 77.7671 654.809 76.5806C655.603 75.3941 656.026 73.9989 656.026 72.5715C656.029 71.6255 655.846 70.6882 655.486 69.8134C655.126 68.9385 654.597 68.1433 653.929 67.4733C653.261 66.8033 652.467 66.2717 651.594 65.909C650.72 65.5463 649.783 65.3596 648.837 65.3596Z" fill="#00B59A"/>
<path d="M384.504 307.579C389.611 307.579 393.751 303.439 393.751 298.333C393.751 293.226 389.611 289.086 384.504 289.086C379.398 289.086 375.258 293.226 375.258 298.333C375.258 303.439 379.398 307.579 384.504 307.579Z" fill="white"/>
<path d="M384.505 309.637C382.269 309.637 380.084 308.974 378.225 307.732C376.366 306.49 374.917 304.725 374.062 302.659C373.206 300.594 372.982 298.321 373.418 296.128C373.855 293.935 374.931 291.921 376.512 290.34C378.093 288.759 380.107 287.683 382.3 287.247C384.493 286.81 386.765 287.034 388.831 287.89C390.897 288.745 392.662 290.194 393.904 292.053C395.146 293.912 395.809 296.098 395.809 298.333C395.809 301.331 394.618 304.206 392.498 306.326C390.378 308.446 387.503 309.637 384.505 309.637ZM384.505 291.144C383.084 291.148 381.696 291.574 380.517 292.367C379.338 293.159 378.42 294.284 377.879 295.598C377.339 296.912 377.199 298.357 377.479 299.75C377.759 301.143 378.446 302.422 379.452 303.425C380.458 304.428 381.74 305.11 383.133 305.386C384.527 305.662 385.972 305.518 387.284 304.973C388.597 304.428 389.718 303.507 390.507 302.325C391.296 301.143 391.717 299.754 391.717 298.333C391.717 297.387 391.53 296.451 391.168 295.577C390.805 294.703 390.273 293.91 389.603 293.242C388.933 292.574 388.138 292.045 387.263 291.685C386.388 291.325 385.451 291.141 384.505 291.144Z" fill="#00B59A"/>
<defs>
<radialGradient id="paint0_radial_1044_1930" cx="0" cy="0" r="1" gradientUnits="userSpaceOnUse" gradientTransform="translate(118.951 201.278) scale(104.901 104.901)">
<stop offset="0.68" stop-color="#ACC2D4"/>
<stop offset="0.72" stop-color="#BBCDDC"/>
<stop offset="0.84" stop-color="#E0E8EF"/>
<stop offset="0.94" stop-color="#F7F9FB"/>
<stop offset="1" stop-color="white"/>
</radialGradient>
<linearGradient id="paint1_linear_1044_1930" x1="37.5645" y1="102.799" x2="217.471" y2="120.603" gradientUnits="userSpaceOnUse">
<stop stop-color="#04E762"/>
<stop offset="1" stop-color="#00B59A"/>
</linearGradient>
<radialGradient id="paint2_radial_1044_1930" cx="0" cy="0" r="1" gradientUnits="userSpaceOnUse" gradientTransform="translate(383.24 201.278) scale(104.901 104.901)">
<stop offset="0.68" stop-color="#ACC2D4"/>
<stop offset="0.72" stop-color="#BBCDDC"/>
<stop offset="0.84" stop-color="#E0E8EF"/>
<stop offset="0.94" stop-color="#F7F9FB"/>
<stop offset="1" stop-color="white"/>
</radialGradient>
<linearGradient id="paint3_linear_1044_1930" x1="301.852" y1="102.799" x2="481.758" y2="120.603" gradientUnits="userSpaceOnUse">
<stop stop-color="#04E762"/>
<stop offset="1" stop-color="#00B59A"/>
</linearGradient>
<radialGradient id="paint4_radial_1044_1930" cx="0" cy="0" r="1" gradientUnits="userSpaceOnUse" gradientTransform="translate(647.526 201.278) scale(104.901)">
<stop offset="0.68" stop-color="#ACC2D4"/>
<stop offset="0.72" stop-color="#BBCDDC"/>
<stop offset="0.84" stop-color="#E0E8EF"/>
<stop offset="0.94" stop-color="#F7F9FB"/>
<stop offset="1" stop-color="white"/>
</radialGradient>
<linearGradient id="paint5_linear_1044_1930" x1="566.16" y1="102.799" x2="746.067" y2="120.603" gradientUnits="userSpaceOnUse">
<stop stop-color="#04E762"/>
<stop offset="1" stop-color="#00B59A"/>
</linearGradient>
</defs>
</svg>
