<svg width="550" height="349" viewBox="0 0 550 349" fill="none" xmlns="http://www.w3.org/2000/svg">
<path d="M85.1084 95.3411C84.7188 95.3411 84.3451 95.1864 84.0696 94.9111C83.7941 94.6358 83.6393 94.2625 83.6393 93.8732V47.2726C83.6393 46.8832 83.7941 46.5099 84.0696 46.2346C84.3451 45.9593 84.7188 45.8047 85.1084 45.8047C85.498 45.8047 85.8717 45.9593 86.1472 46.2346C86.4227 46.5099 86.5775 46.8832 86.5775 47.2726V93.8087C86.5862 94.0068 86.5547 94.2046 86.4848 94.3902C86.4148 94.5758 86.308 94.7454 86.1707 94.8886C86.0334 95.0318 85.8685 95.1457 85.6859 95.2235C85.5033 95.3013 85.3069 95.3412 85.1084 95.3411Z" fill="#FFC700"/>
<path d="M90.5652 47.5459C90.5652 46.4548 90.2414 45.3882 89.6347 44.481C89.028 43.5738 88.1657 42.8668 87.1568 42.4492C86.148 42.0317 85.0378 41.9224 83.9668 42.1353C82.8958 42.3482 81.912 42.8736 81.1398 43.6451C80.3677 44.4166 79.8418 45.3995 79.6288 46.4697C79.4158 47.5398 79.5251 48.649 79.943 49.657C80.3609 50.665 81.0685 51.5266 81.9765 52.1328C82.8845 52.7389 83.952 53.0625 85.044 53.0625C85.769 53.0625 86.487 52.9198 87.1568 52.6425C87.8267 52.3653 88.4354 51.959 88.9481 51.4467C89.4608 50.9344 89.8674 50.3263 90.1449 49.657C90.4224 48.9877 90.5652 48.2703 90.5652 47.5459Z" fill="#FFC700"/>
<path d="M463.572 95.3411C463.182 95.3411 462.809 95.1864 462.533 94.9111C462.258 94.6358 462.103 94.2625 462.103 93.8732V47.2726C462.103 47.0798 462.141 46.8889 462.215 46.7108C462.288 46.5327 462.397 46.3709 462.533 46.2346C462.669 46.0983 462.831 45.9902 463.01 45.9164C463.188 45.8427 463.379 45.8047 463.572 45.8047C463.765 45.8047 463.956 45.8427 464.134 45.9164C464.312 45.9902 464.474 46.0983 464.611 46.2346C464.747 46.3709 464.855 46.5327 464.929 46.7108C465.003 46.8889 465.041 47.0798 465.041 47.2726V93.8087C465.05 94.0068 465.018 94.2046 464.948 94.3902C464.878 94.5758 464.771 94.7454 464.634 94.8886C464.497 95.0318 464.332 95.1457 464.149 95.2235C463.967 95.3013 463.77 95.3412 463.572 95.3411Z" fill="#FFC700"/>
<path d="M463.571 53.0625C466.621 53.0625 469.093 50.5926 469.093 47.5459C469.093 44.4992 466.621 42.0293 463.571 42.0293C460.522 42.0293 458.05 44.4992 458.05 47.5459C458.05 50.5926 460.522 53.0625 463.571 53.0625Z" fill="#FFC700"/>
<path d="M274.752 302.487C274.362 302.487 273.989 302.333 273.713 302.058C273.438 301.782 273.283 301.409 273.283 301.02V254.483C273.283 254.094 273.438 253.721 273.713 253.446C273.989 253.17 274.362 253.016 274.752 253.016C275.142 253.016 275.515 253.17 275.791 253.446C276.066 253.721 276.221 254.094 276.221 254.483V301.02C276.221 301.409 276.066 301.782 275.791 302.058C275.515 302.333 275.142 302.487 274.752 302.487Z" fill="#FFC700"/>
<path d="M269.23 300.745C269.23 301.836 269.554 302.903 270.161 303.81C270.767 304.717 271.63 305.424 272.639 305.842C273.647 306.259 274.758 306.369 275.829 306.156C276.9 305.943 277.883 305.417 278.656 304.646C279.428 303.874 279.954 302.891 280.167 301.821C280.38 300.751 280.27 299.642 279.852 298.634C279.435 297.626 278.727 296.764 277.819 296.158C276.911 295.552 275.843 295.229 274.751 295.229C273.287 295.229 271.883 295.81 270.847 296.844C269.812 297.879 269.23 299.282 269.23 300.745Z" fill="#FFC700"/>
<path style="mix-blend-mode:multiply" d="M85.1078 260.485C126.478 260.485 160.016 226.976 160.016 185.64C160.016 144.304 126.478 110.795 85.1078 110.795C43.7372 110.795 10.1997 144.304 10.1997 185.64C10.1997 226.976 43.7372 260.485 85.1078 260.485Z" fill="url(#paint0_radial_917_2093)"/>
<path d="M149.77 189.372C158.079 154.196 136.276 118.951 101.071 110.649C65.8654 102.346 30.59 124.132 22.2808 159.307C13.9716 194.483 35.7752 229.728 70.9804 238.03C106.186 246.333 141.461 224.548 149.77 189.372Z" fill="white"/>
<path d="M86.0124 233.32C118.61 233.32 145.035 206.917 145.035 174.348C145.035 141.778 118.61 115.375 86.0124 115.375C53.4152 115.375 26.99 141.778 26.99 174.348C26.99 206.917 53.4152 233.32 86.0124 233.32Z" fill="url(#paint1_linear_917_2093)"/>
<path d="M5.56691 170.574H5.47005C5.27254 170.562 5.07949 170.51 4.9025 170.422C4.72551 170.333 4.56822 170.21 4.44007 170.059C4.31191 169.909 4.21554 169.734 4.15672 169.545C4.09791 169.356 4.07787 169.158 4.09781 168.961C5.4677 148.185 14.6936 128.708 29.9049 114.478C45.1162 100.248 65.1744 92.3301 86.0124 92.3301C106.85 92.3301 126.909 100.248 142.12 114.478C157.331 128.708 166.557 148.185 167.927 168.961C167.957 169.162 167.944 169.367 167.89 169.563C167.836 169.759 167.742 169.942 167.614 170.1C167.486 170.258 167.326 170.387 167.145 170.48C166.964 170.573 166.766 170.628 166.563 170.64C166.359 170.652 166.156 170.622 165.965 170.552C165.774 170.482 165.6 170.372 165.453 170.231C165.307 170.09 165.192 169.92 165.114 169.732C165.037 169.544 165 169.342 165.005 169.138C163.886 148.964 155.077 129.983 140.388 116.096C125.698 102.209 106.243 94.4708 86.0204 94.4708C65.7978 94.4708 46.3429 102.209 31.6532 116.096C16.9635 129.983 8.15447 148.964 7.03601 169.138C7.02757 169.522 6.86907 169.887 6.59447 170.155C6.31987 170.424 5.95101 170.574 5.56691 170.574Z" fill="#FFC700"/>
<path d="M11.201 169.106C11.1455 170.195 10.7681 171.243 10.1166 172.118C9.46516 172.993 8.56878 173.655 7.54072 174.022C6.51266 174.388 5.39906 174.441 4.34059 174.175C3.28211 173.909 2.32626 173.336 1.59378 172.528C0.861295 171.719 0.385046 170.712 0.225194 169.633C0.0653414 168.554 0.229058 167.453 0.695661 166.467C1.16226 165.481 1.91082 164.655 2.84677 164.094C3.78271 163.533 4.86405 163.262 5.95419 163.315C7.41612 163.394 8.78756 164.047 9.77015 165.132C10.7527 166.216 11.267 167.645 11.201 169.106Z" fill="#FFC700"/>
<path d="M160.84 169.107C160.895 170.196 161.273 171.245 161.926 172.12C162.578 172.995 163.475 173.658 164.504 174.023C165.533 174.389 166.648 174.441 167.706 174.174C168.765 173.906 169.721 173.331 170.453 172.521C171.184 171.711 171.659 170.703 171.817 169.623C171.975 168.543 171.809 167.441 171.34 166.456C170.871 165.47 170.12 164.646 169.182 164.087C168.244 163.528 167.161 163.26 166.07 163.316C164.608 163.391 163.236 164.043 162.255 165.129C161.274 166.215 160.765 167.646 160.84 169.107Z" fill="#FFC700"/>
<path style="mix-blend-mode:multiply" d="M273.831 260.485C315.202 260.485 348.739 226.976 348.739 185.64C348.739 144.304 315.202 110.795 273.831 110.795C232.461 110.795 198.923 144.304 198.923 185.64C198.923 226.976 232.461 260.485 273.831 260.485Z" fill="url(#paint2_radial_917_2093)"/>
<path d="M321.061 220.619C346.639 195.063 346.639 153.628 321.061 128.072C295.483 102.516 254.014 102.516 228.436 128.072C202.858 153.628 202.858 195.063 228.436 220.619C254.014 246.176 295.483 246.176 321.061 220.619Z" fill="white"/>
<path d="M274.736 233.32C307.333 233.32 333.758 206.917 333.758 174.348C333.758 141.778 307.333 115.375 274.736 115.375C242.138 115.375 215.713 141.778 215.713 174.348C215.713 206.917 242.138 233.32 274.736 233.32Z" fill="url(#paint3_linear_917_2093)"/>
<path d="M274.735 256.356C253.9 256.324 233.853 248.388 218.65 234.152C203.446 219.917 194.22 200.444 192.837 179.672C192.812 179.474 192.829 179.274 192.886 179.083C192.943 178.892 193.039 178.715 193.168 178.564C193.297 178.412 193.456 178.289 193.636 178.202C193.815 178.115 194.01 178.066 194.209 178.059C194.406 178.041 194.604 178.063 194.792 178.122C194.98 178.182 195.154 178.278 195.304 178.406C195.455 178.534 195.578 178.69 195.667 178.866C195.756 179.041 195.809 179.233 195.824 179.43C196.942 199.604 205.751 218.585 220.441 232.472C235.131 246.359 254.585 254.097 274.808 254.097C295.031 254.097 314.486 246.359 329.175 232.472C343.865 218.585 352.674 199.604 353.793 179.43C353.846 179.066 354.034 178.736 354.32 178.504C354.606 178.272 354.968 178.156 355.335 178.179C355.702 178.201 356.048 178.36 356.303 178.625C356.559 178.889 356.705 179.24 356.715 179.607C355.343 200.404 346.111 219.902 330.889 234.152C315.668 248.402 295.595 256.339 274.735 256.356Z" fill="#FFC700"/>
<path d="M349.562 179.575C349.618 178.485 349.996 177.436 350.648 176.561C351.3 175.686 352.198 175.024 353.227 174.659C354.256 174.293 355.37 174.241 356.429 174.508C357.488 174.775 358.443 175.35 359.175 176.16C359.907 176.97 360.382 177.979 360.539 179.059C360.697 180.138 360.531 181.241 360.062 182.226C359.593 183.211 358.842 184.036 357.904 184.594C356.966 185.153 355.884 185.422 354.793 185.366C354.068 185.331 353.358 185.153 352.702 184.842C352.046 184.532 351.459 184.095 350.973 183.557C350.486 183.019 350.112 182.39 349.87 181.707C349.628 181.023 349.523 180.299 349.562 179.575Z" fill="#FFC700"/>
<path d="M199.924 179.576C199.868 178.487 199.491 177.438 198.839 176.564C198.188 175.689 197.292 175.026 196.264 174.66C195.235 174.294 194.122 174.24 193.063 174.506C192.005 174.772 191.049 175.346 190.317 176.154C189.584 176.963 189.108 177.97 188.948 179.048C188.788 180.127 188.952 181.229 189.418 182.215C189.885 183.201 190.634 184.026 191.57 184.587C192.505 185.148 193.587 185.419 194.677 185.367C195.403 185.334 196.115 185.157 196.773 184.848C197.43 184.538 198.02 184.102 198.508 183.563C198.996 183.025 199.372 182.395 199.615 181.711C199.858 181.027 199.963 180.301 199.924 179.576Z" fill="#FFC700"/>
<path style="mix-blend-mode:multiply" d="M462.555 260.485C503.925 260.485 537.463 226.976 537.463 185.64C537.463 144.304 503.925 110.795 462.555 110.795C421.184 110.795 387.647 144.304 387.647 185.64C387.647 226.976 421.184 260.485 462.555 260.485Z" fill="url(#paint4_radial_917_2093)"/>
<path d="M528.749 183.426C534.537 147.645 510.198 113.952 474.387 108.169C438.577 102.386 404.855 126.704 399.067 162.485C393.279 198.266 417.618 231.959 453.429 237.742C489.239 243.525 522.962 219.207 528.749 183.426Z" fill="white"/>
<path d="M463.475 233.32C496.072 233.32 522.497 206.917 522.497 174.348C522.497 141.778 496.072 115.375 463.475 115.375C430.878 115.375 404.453 141.778 404.453 174.348C404.453 206.917 430.878 233.32 463.475 233.32Z" fill="url(#paint5_linear_917_2093)"/>
<path d="M383.029 170.575H382.932C382.734 170.563 382.541 170.511 382.364 170.422C382.187 170.334 382.03 170.211 381.902 170.06C381.774 169.91 381.677 169.735 381.619 169.546C381.56 169.357 381.54 169.158 381.56 168.962C382.899 148.167 392.111 128.662 407.325 114.408C422.538 100.155 442.611 92.2227 463.466 92.2227C484.321 92.2227 504.394 100.155 519.608 114.408C534.821 128.662 544.033 148.167 545.373 168.962C545.397 169.158 545.381 169.357 545.325 169.547C545.269 169.737 545.174 169.913 545.047 170.064C544.92 170.216 544.763 170.339 544.585 170.427C544.408 170.515 544.214 170.565 544.016 170.575C543.82 170.592 543.622 170.571 543.434 170.511C543.246 170.451 543.072 170.355 542.922 170.227C542.771 170.1 542.648 169.943 542.559 169.768C542.47 169.592 542.416 169.4 542.402 169.204C541.284 149.029 532.475 130.048 517.785 116.161C503.095 102.275 483.64 94.5362 463.418 94.5362C443.195 94.5362 423.74 102.275 409.05 116.161C394.361 130.048 385.552 149.029 384.433 169.204C384.41 169.565 384.253 169.905 383.994 170.158C383.735 170.411 383.391 170.559 383.029 170.575Z" fill="#FFC700"/>
<path d="M388.647 169.107C388.591 170.196 388.213 171.245 387.561 172.12C386.909 172.995 386.012 173.658 384.983 174.023C383.954 174.389 382.839 174.441 381.78 174.174C380.722 173.906 379.766 173.331 379.034 172.521C378.303 171.711 377.828 170.703 377.67 169.623C377.512 168.543 377.678 167.441 378.147 166.456C378.616 165.47 379.367 164.646 380.305 164.087C381.243 163.528 382.326 163.26 383.416 163.316C384.877 163.395 386.247 164.049 387.227 165.134C388.207 166.219 388.718 167.647 388.647 169.107Z" fill="#FFC700"/>
<path d="M538.286 169.106C538.341 170.195 538.719 171.243 539.37 172.118C540.022 172.993 540.918 173.655 541.946 174.022C542.974 174.388 544.088 174.441 545.146 174.175C546.205 173.909 547.161 173.336 547.893 172.528C548.626 171.719 549.102 170.712 549.262 169.633C549.422 168.554 549.258 167.453 548.791 166.467C548.325 165.481 547.576 164.655 546.64 164.094C545.704 163.533 544.623 163.262 543.533 163.315C542.069 163.39 540.695 164.042 539.712 165.127C538.728 166.213 538.216 167.643 538.286 169.106Z" fill="#FFC700"/>
<path d="M445.152 162.008V186.671H481.782V162.008H445.152ZM463.443 174.912L449.543 164.218H477.375L463.443 174.912ZM458.6 174.009L447.299 183.171V165.427L458.6 174.009ZM460.408 175.412L463.41 177.719L466.558 175.299L477.536 184.397H449.414L460.408 175.412ZM468.383 173.912L479.522 165.363V183.106L468.383 173.912Z" fill="white"/>
<path d="M288.393 174.381C288.418 173.946 288.418 173.51 288.393 173.074L292.526 170.945C292.245 169.49 291.784 168.076 291.154 166.735L286.553 167.445C286.123 166.694 285.614 165.991 285.035 165.348L287.134 161.202C286.045 160.195 284.842 159.318 283.55 158.589L280.241 161.815C279.443 161.477 278.616 161.213 277.771 161.025L277.028 156.444C275.554 156.25 274.062 156.25 272.588 156.444L271.83 161.025C270.989 161.213 270.168 161.477 269.376 161.815L266.066 158.589C264.771 159.314 263.568 160.191 262.482 161.202L264.581 165.348C264.002 165.991 263.493 166.694 263.063 167.445L258.462 166.735C257.834 168.078 257.368 169.492 257.074 170.945L261.207 173.074C261.207 173.51 261.207 173.929 261.207 174.381C261.207 174.833 261.207 175.236 261.207 175.671L257.074 177.801C257.368 179.254 257.834 180.667 258.462 182.011L263.063 181.317C263.497 182.06 264.006 182.757 264.581 183.398L262.482 187.543C263.568 188.555 264.771 189.432 266.066 190.156L269.376 186.93C270.168 187.268 270.989 187.533 271.83 187.721L272.588 192.302C274.062 192.495 275.554 192.495 277.028 192.302L277.771 187.721C278.616 187.533 279.443 187.269 280.241 186.93L283.55 190.156C284.842 189.428 286.045 188.551 287.134 187.543L285.035 183.398C285.61 182.757 286.119 182.06 286.553 181.317L291.154 182.011C291.784 180.67 292.245 179.255 292.526 177.801L288.393 175.671C288.417 175.242 288.417 174.811 288.393 174.381ZM274.735 182.93C273.039 182.933 271.379 182.433 269.967 181.493C268.555 180.553 267.453 179.216 266.803 177.65C266.152 176.084 265.981 174.361 266.311 172.698C266.641 171.035 267.458 169.507 268.658 168.308C269.858 167.109 271.387 166.293 273.051 165.963C274.715 165.633 276.44 165.804 278.007 166.455C279.574 167.105 280.913 168.205 281.854 169.616C282.795 171.027 283.295 172.686 283.292 174.381C283.279 176.641 282.372 178.805 280.77 180.401C279.167 181.996 276.998 182.894 274.735 182.898V182.93Z" fill="white"/>
<path d="M74.098 185.317L81.056 178.364L83.9942 181.284L97.5068 167.783L99.7508 170.041C99.7508 169.847 101.462 159.54 101.365 160.202L91.5173 161.815L94.0519 164.347L83.9942 174.38L81.056 171.444L73.6298 178.864V156.637H69.3678V189.543H102.302V185.284L74.098 185.317Z" fill="white"/>
<path d="M85.108 100.406C88.7547 100.406 91.7109 97.4519 91.7109 93.8083C91.7109 90.1647 88.7547 87.2109 85.108 87.2109C81.4613 87.2109 78.5051 90.1647 78.5051 93.8083C78.5051 97.4519 81.4613 100.406 85.108 100.406Z" fill="white"/>
<path d="M85.1085 101.875C83.512 101.875 81.9514 101.401 80.6239 100.515C79.2965 99.6291 78.2619 98.3695 77.6509 96.8957C77.04 95.422 76.8801 93.8004 77.1916 92.2359C77.5031 90.6714 78.2718 89.2343 79.4007 88.1064C80.5296 86.9784 81.9679 86.2103 83.5337 85.8991C85.0995 85.5879 86.7225 85.7476 88.1975 86.3581C89.6725 86.9685 90.9331 88.0022 91.8201 89.3286C92.7071 90.6549 93.1805 92.2142 93.1805 93.8093C93.1805 95.9483 92.33 97.9998 90.8163 99.5123C89.3025 101.025 87.2493 101.875 85.1085 101.875ZM85.1085 88.6637C84.0893 88.6606 83.092 88.9596 82.243 89.5231C81.3939 90.0865 80.7313 90.8891 80.3391 91.829C79.9468 92.7689 79.8425 93.8041 80.0394 94.8033C80.2363 95.8025 80.7255 96.7208 81.4451 97.4421C82.1647 98.1633 83.0823 98.655 84.0817 98.8548C85.0811 99.0547 86.1174 98.9537 87.0594 98.5648C88.0014 98.1758 88.8066 97.5163 89.3732 96.6697C89.9398 95.8232 90.2423 94.8277 90.2423 93.8093C90.2423 92.4474 89.7019 91.1411 88.7396 90.1765C87.7773 89.212 86.4715 88.668 85.1085 88.6637Z" fill="#FFC700"/>
<path d="M463.491 100.406C467.138 100.406 470.094 97.4519 470.094 93.8083C470.094 90.1647 467.138 87.2109 463.491 87.2109C459.844 87.2109 456.888 90.1647 456.888 93.8083C456.888 97.4519 459.844 100.406 463.491 100.406Z" fill="white"/>
<path d="M463.491 101.875C461.894 101.875 460.334 101.401 459.006 100.515C457.679 99.6291 456.644 98.3695 456.033 96.8957C455.422 95.422 455.263 93.8004 455.574 92.2359C455.886 90.6714 456.654 89.2343 457.783 88.1064C458.912 86.9784 460.35 86.2103 461.916 85.8991C463.482 85.5879 465.105 85.7476 466.58 86.3581C468.055 86.9685 469.316 88.0022 470.203 89.3286C471.09 90.6549 471.563 92.2142 471.563 93.8093C471.563 95.9483 470.712 97.9998 469.199 99.5123C467.685 101.025 465.632 101.875 463.491 101.875ZM463.491 88.6637C462.472 88.6606 461.474 88.9596 460.625 89.5231C459.776 90.0865 459.114 90.8891 458.722 91.829C458.329 92.7689 458.225 93.8041 458.422 94.8033C458.619 95.8025 459.108 96.7208 459.828 97.4421C460.547 98.1633 461.465 98.655 462.464 98.8548C463.464 99.0547 464.5 98.9537 465.442 98.5648C466.384 98.1758 467.189 97.5163 467.756 96.6697C468.322 95.8232 468.625 94.8277 468.625 93.8093C468.627 93.1344 468.496 92.4656 468.239 91.8414C467.982 91.2172 467.604 90.6498 467.127 90.1718C466.65 89.6938 466.083 89.3145 465.459 89.0557C464.835 88.7969 464.166 88.6637 463.491 88.6637Z" fill="#FFC700"/>
<path d="M274.735 261.484C278.382 261.484 281.338 258.53 281.338 254.886C281.338 251.243 278.382 248.289 274.735 248.289C271.088 248.289 268.132 251.243 268.132 254.886C268.132 258.53 271.088 261.484 274.735 261.484Z" fill="white"/>
<path d="M274.736 262.951C273.139 262.951 271.578 262.478 270.251 261.591C268.924 260.705 267.889 259.446 267.278 257.972C266.667 256.498 266.507 254.877 266.819 253.312C267.13 251.748 267.899 250.31 269.028 249.183C270.157 248.055 271.595 247.286 273.161 246.975C274.727 246.664 276.35 246.824 277.825 247.434C279.3 248.045 280.56 249.078 281.447 250.405C282.334 251.731 282.808 253.29 282.808 254.886C282.808 257.025 281.957 259.076 280.443 260.588C278.93 262.101 276.876 262.951 274.736 262.951ZM274.736 249.756C273.721 249.759 272.73 250.063 271.888 250.628C271.046 251.194 270.39 251.996 270.004 252.934C269.618 253.871 269.519 254.902 269.719 255.896C269.918 256.89 270.409 257.802 271.127 258.518C271.846 259.234 272.761 259.721 273.756 259.918C274.752 260.114 275.783 260.012 276.72 259.623C277.657 259.234 278.458 258.577 279.021 257.734C279.585 256.89 279.886 255.899 279.886 254.886C279.886 254.211 279.752 253.542 279.493 252.919C279.234 252.295 278.855 251.729 278.376 251.253C277.898 250.776 277.33 250.399 276.705 250.142C276.08 249.885 275.411 249.754 274.736 249.756Z" fill="#FFC700"/>
<path d="M15.3014 26.9804V4.26882H25.2461C27.4811 4.22115 29.6951 4.70783 31.7037 5.68829C33.4964 6.5821 35.0054 7.95584 36.0625 9.65636C37.1507 11.4549 37.7102 13.5232 37.6769 15.6246C37.702 17.7199 37.143 19.7808 36.0625 21.5767C35.0054 23.2772 33.4964 24.651 31.7037 25.5448C29.6965 26.5308 27.4824 27.023 25.2461 26.9804H15.3014ZM19.5311 23.4156H25.0524C26.5791 23.4447 28.0905 23.1073 29.4597 22.4316C30.7062 21.8426 31.7468 20.8929 32.4463 19.7056C33.1462 18.4606 33.5027 17.0523 33.4795 15.6246C33.5172 14.1696 33.1602 12.7316 32.4463 11.463C31.7534 10.3034 30.7458 9.36385 29.5404 8.75306C28.1699 8.08298 26.6585 7.75109 25.1331 7.78524H19.5311V23.4156Z" fill="#BFBFBF"/>
<path d="M43.7477 6.80322C43.405 6.81581 43.0633 6.75787 42.7439 6.633C42.4246 6.50814 42.1343 6.31901 41.8911 6.07736C41.6527 5.86158 41.4631 5.59743 41.335 5.30257C41.207 5.00771 41.1434 4.68893 41.1485 4.36754C41.1398 4.0409 41.2016 3.71623 41.3298 3.41561C41.4579 3.11499 41.6494 2.84549 41.8911 2.62546C42.1386 2.39192 42.4304 2.21023 42.7492 2.09111C43.0681 1.97198 43.4076 1.91784 43.7477 1.93185C44.4332 1.90777 45.1023 2.14408 45.6204 2.5932C45.8469 2.79696 46.0285 3.0456 46.1536 3.32331C46.2786 3.60102 46.3445 3.90171 46.3469 4.20623C46.363 4.55155 46.3068 4.89641 46.1818 5.21878C46.0569 5.54114 45.866 5.83391 45.6214 6.07835C45.3767 6.32278 45.0837 6.51351 44.7611 6.63833C44.4385 6.76315 44.0933 6.81931 43.7477 6.80322ZM41.7297 26.9823V9.6583H45.798V26.9823H41.7297Z" fill="#BFBFBF"/>
<path d="M56.4848 27.208C55.0718 27.2104 53.6652 27.0204 52.3035 26.6435C51.1586 26.3606 50.0678 25.892 49.0747 25.2563L50.6891 22.1754C52.5078 23.2872 54.5949 23.8839 56.727 23.9013C57.6831 23.9684 58.6403 23.785 59.5037 23.369C59.7567 23.2345 59.9694 23.0351 60.1197 22.7913C60.2701 22.5475 60.3528 22.2681 60.3594 21.9818C60.3677 21.7662 60.3182 21.5524 60.216 21.3624C60.1139 21.1723 59.9627 21.0131 59.7782 20.9011C59.3085 20.6119 58.788 20.4148 58.2445 20.3204C57.6149 20.1913 56.9207 20.0784 56.1458 19.9655C55.3789 19.8665 54.6187 19.7211 53.8695 19.53C53.1344 19.3643 52.4275 19.0926 51.7708 18.7235C51.1493 18.3709 50.6229 17.8727 50.2371 17.2717C49.8181 16.5482 49.6163 15.7194 49.6559 14.8844C49.635 13.8466 49.9712 12.8331 50.6084 12.0132C51.2876 11.1464 52.2006 10.4916 53.2399 10.126C54.537 9.65324 55.9117 9.42888 57.292 9.46463C58.4809 9.4675 59.6662 9.59728 60.8275 9.85175C61.8656 10.0538 62.8636 10.4243 63.7819 10.9486L62.1675 14.0295C61.4171 13.5835 60.5993 13.2621 59.7459 13.0778C58.9303 12.8919 58.0962 12.7999 57.2597 12.8036C56.3122 12.7372 55.3643 12.9266 54.5152 13.352C54.2562 13.4823 54.037 13.6798 53.8808 13.9239C53.7245 14.168 53.637 14.4497 53.6273 14.7393C53.6116 14.9693 53.657 15.1994 53.7591 15.4063C53.8612 15.6131 54.0162 15.7892 54.2085 15.9168C54.6733 16.2107 55.1874 16.4184 55.726 16.5297C56.4188 16.6893 57.1193 16.8131 57.8247 16.9007C58.5973 16.9976 59.363 17.143 60.1172 17.3362C60.846 17.5219 61.5504 17.7926 62.2159 18.1428C62.8715 18.4555 63.4296 18.9406 63.8303 19.5461C64.2455 20.2653 64.4471 21.0878 64.4115 21.9173C64.4359 22.9408 64.0987 23.9403 63.459 24.7401C62.7378 25.5939 61.8015 26.2399 60.7468 26.6112C59.3739 27.0659 57.9299 27.2682 56.4848 27.208Z" fill="#BFBFBF"/>
<path d="M75.7931 27.2065C74.106 27.2382 72.4388 26.8384 70.9499 26.0451C69.5584 25.2997 68.4015 24.1828 67.6081 22.819C66.7904 21.4595 66.3554 19.9047 66.3488 18.3186C66.3198 16.706 66.733 15.1163 67.5435 13.7215C68.3521 12.3943 69.5075 11.3125 70.8853 10.5922C72.3799 9.8173 74.045 9.4291 75.7285 9.46306C77.28 9.43021 78.8157 9.7792 80.2004 10.4793C81.473 11.1433 82.5018 12.1939 83.1386 13.4795L80.0874 15.3023C79.6269 14.5354 78.9691 13.906 78.1824 13.4795C77.4349 13.0909 76.6034 12.8915 75.7608 12.8988C74.8221 12.8841 73.8949 13.106 73.0647 13.544C72.2722 13.9732 71.6215 14.6233 71.192 15.4152C70.7135 16.3068 70.4743 17.3071 70.4978 18.3186C70.4786 19.3297 70.7175 20.3289 71.192 21.2221C71.6218 22.0097 72.2727 22.6546 73.0647 23.0771C73.8936 23.5201 74.8208 23.7475 75.7608 23.7384C76.6286 23.747 77.4838 23.53 78.2423 23.1086C79.0008 22.6873 79.6367 22.0761 80.0874 21.335L83.2032 23.1416C82.5574 24.4209 81.531 25.469 80.2649 26.1419C78.8897 26.8724 77.3502 27.2389 75.7931 27.2065Z" fill="#BFBFBF"/>
<path d="M94.2461 27.2056C92.5843 27.2155 90.9486 26.793 89.4998 25.9797C88.1168 25.2255 86.9681 24.1058 86.1794 22.7431C85.3906 21.3803 84.9923 19.8271 85.0279 18.2533C84.9812 16.6774 85.3749 15.1198 86.1648 13.755C86.9547 12.3903 88.1095 11.2724 89.4998 10.5268C90.9775 9.78485 92.6084 9.39844 94.2622 9.39844C95.9161 9.39844 97.547 9.78485 99.0247 10.5268C100.364 11.2526 101.48 12.3288 102.254 13.64C103.091 15.0543 103.516 16.6747 103.48 18.3178C103.511 19.9182 103.103 21.4966 102.302 22.8827C101.545 24.2354 100.427 25.3521 99.0731 26.1087C97.5864 26.8859 95.923 27.2639 94.2461 27.2056ZM94.2461 23.7376C95.1765 23.7526 96.0947 23.5247 96.9099 23.0762C97.7017 22.6326 98.3384 21.957 98.7341 21.1406C99.2017 20.2512 99.435 19.2576 99.4122 18.2533C99.4407 17.2432 99.2071 16.2429 98.7341 15.3498C98.323 14.5607 97.6885 13.91 96.9099 13.4787C96.1035 13.0392 95.1967 12.8169 94.2784 12.8334C93.3543 12.811 92.4407 13.0336 91.6308 13.4787C90.8507 13.9135 90.2119 14.5629 89.7904 15.3498C89.3174 16.2429 89.0838 17.2432 89.1123 18.2533C89.0895 19.2576 89.3228 20.2512 89.7904 21.1406C90.2074 21.9308 90.8473 22.5814 91.6308 23.0117C92.4222 23.4823 93.3251 23.7329 94.2461 23.7376Z" fill="#BFBFBF"/>
<path d="M111.552 26.9803L104.078 9.65625H108.323L114.781 24.9317H112.618L119.237 9.65625H123.144L115.701 26.9803H111.552Z" fill="#BFBFBF"/>
<path d="M133.331 27.2085C131.575 27.2293 129.843 26.8077 128.294 25.9826C126.887 25.2519 125.722 24.1319 124.936 22.7565C124.142 21.3674 123.735 19.7912 123.757 18.1916C123.728 16.5852 124.123 14.9994 124.903 13.5945C125.675 12.2773 126.791 11.1954 128.132 10.4652C129.546 9.6927 131.138 9.30343 132.749 9.33607C134.326 9.30224 135.884 9.68033 137.27 10.4329C138.577 11.1619 139.656 12.2397 140.385 13.5461C141.17 15.0012 141.56 16.6362 141.516 18.2884C141.516 18.4497 141.516 18.6594 141.516 18.8691C141.516 19.0788 141.516 19.2885 141.516 19.4821H126.986V16.9173H139.288L137.673 17.7561C137.713 16.8453 137.5 15.9413 137.06 15.143C136.637 14.3999 136.024 13.7821 135.284 13.3525C134.496 12.9099 133.604 12.687 132.701 12.7073C131.787 12.6852 130.884 12.908 130.086 13.3525C129.347 13.7808 128.744 14.4065 128.342 15.1591C127.89 16.0067 127.668 16.9575 127.696 17.9174V18.5626C127.679 19.5314 127.931 20.4859 128.423 21.3209C128.894 22.1177 129.59 22.7574 130.425 23.1598C131.355 23.6108 132.378 23.8373 133.411 23.8211C134.31 23.8334 135.203 23.6746 136.043 23.3534C136.838 23.0491 137.552 22.563 138.125 21.9339L140.321 24.3696C139.521 25.294 138.514 26.0178 137.383 26.4827C136.092 26.9867 134.716 27.2333 133.331 27.2085Z" fill="#BFBFBF"/>
<path d="M145.455 26.9812V9.6572H149.313V14.4963L148.797 13.0768C149.293 11.9399 150.157 11.0026 151.25 10.4153C152.54 9.76801 153.973 9.45727 155.416 9.51202V13.3188C155.257 13.2788 155.095 13.2518 154.931 13.2381H154.479C153.808 13.2071 153.136 13.3094 152.505 13.5392C151.873 13.769 151.293 14.1218 150.798 14.577C150.315 15.1221 149.947 15.7583 149.714 16.4481C149.481 17.1379 149.388 17.8674 149.442 18.5934V26.9973L145.455 26.9812Z" fill="#BFBFBF"/>
<path d="M211.984 341.219V316.443H222.833C225.29 316.409 227.72 316.962 229.92 318.056C231.873 319.028 233.517 320.525 234.666 322.379C235.777 324.368 236.361 326.609 236.361 328.887C236.361 331.166 235.777 333.406 234.666 335.396C233.522 337.254 231.877 338.752 229.92 339.719C227.722 340.82 225.291 341.373 222.833 341.332L211.984 341.219ZM216.601 337.332H222.623C224.3 337.376 225.962 337.01 227.466 336.267C228.81 335.608 229.932 334.571 230.695 333.283C231.426 331.907 231.808 330.373 231.808 328.815C231.808 327.257 231.426 325.723 230.695 324.347C229.926 323.072 228.805 322.047 227.466 321.395C225.962 320.652 224.3 320.286 222.623 320.33H216.601V337.332Z" fill="#BFBFBF"/>
<path d="M249.729 341.459C247.812 341.504 245.915 341.072 244.207 340.201C242.69 339.417 241.426 338.22 240.559 336.749C239.686 335.235 239.24 333.512 239.267 331.765C239.233 330.011 239.667 328.279 240.527 326.748C241.35 325.318 242.551 324.141 243.998 323.345C245.538 322.545 247.25 322.127 248.986 322.127C250.723 322.127 252.434 322.545 253.975 323.345C255.406 324.139 256.587 325.318 257.381 326.748C258.237 328.338 258.666 330.122 258.624 331.926C258.624 332.104 258.624 332.313 258.624 332.555C258.641 332.781 258.641 333.007 258.624 333.233H242.868V330.297H256.283L254.556 331.217C254.594 330.216 254.36 329.223 253.878 328.345C253.418 327.534 252.749 326.86 251.94 326.394C251.084 325.911 250.114 325.666 249.131 325.684C248.133 325.665 247.147 325.91 246.274 326.394C245.471 326.863 244.812 327.544 244.369 328.361C243.887 329.269 243.648 330.286 243.675 331.313V332.023C243.655 333.08 243.923 334.123 244.45 335.039C244.969 335.911 245.733 336.612 246.645 337.056C247.653 337.537 248.758 337.779 249.874 337.765C250.854 337.775 251.828 337.605 252.748 337.265C253.618 336.913 254.392 336.361 255.008 335.652L257.397 338.378C256.522 339.391 255.414 340.177 254.168 340.669C252.755 341.223 251.246 341.492 249.729 341.459Z" fill="#BFBFBF"/>
<path d="M268.714 341.459C267.175 341.47 265.642 341.264 264.161 340.846C262.939 340.527 261.773 340.021 260.706 339.346L262.401 335.974C263.351 336.565 264.378 337.021 265.453 337.329C266.606 337.668 267.802 337.841 269.004 337.846C270.043 337.924 271.083 337.729 272.023 337.281C272.311 337.148 272.553 336.933 272.72 336.664C272.886 336.394 272.97 336.081 272.96 335.765C272.97 335.528 272.917 335.293 272.806 335.083C272.696 334.873 272.531 334.697 272.33 334.571C271.829 334.281 271.283 334.074 270.716 333.958C270.021 333.813 269.263 333.684 268.423 333.571C267.575 333.457 266.735 333.295 265.905 333.087C265.104 332.911 264.336 332.612 263.628 332.2C262.962 331.808 262.406 331.253 262.014 330.587C261.545 329.793 261.32 328.878 261.368 327.958C261.344 326.827 261.708 325.722 262.401 324.828C263.155 323.89 264.156 323.18 265.291 322.78C266.702 322.266 268.197 322.02 269.699 322.054C270.996 322.059 272.289 322.199 273.557 322.473C274.691 322.7 275.782 323.108 276.786 323.683L275.074 327.038C274.243 326.522 273.332 326.146 272.378 325.925C271.487 325.73 270.578 325.627 269.666 325.619C268.628 325.55 267.591 325.762 266.663 326.232C266.38 326.374 266.141 326.59 265.97 326.857C265.8 327.124 265.705 327.432 265.695 327.748C265.678 327.997 265.728 328.246 265.838 328.469C265.949 328.693 266.117 328.884 266.324 329.022C266.819 329.34 267.365 329.569 267.939 329.7C268.689 329.879 269.449 330.014 270.215 330.103C271.058 330.216 271.893 330.378 272.717 330.587C273.509 330.784 274.273 331.077 274.994 331.458C275.697 331.829 276.284 332.387 276.689 333.071C277.14 333.854 277.359 334.749 277.318 335.652C277.335 336.769 276.964 337.858 276.269 338.733C275.487 339.665 274.466 340.368 273.315 340.765C271.836 341.273 270.277 341.508 268.714 341.459Z" fill="#BFBFBF"/>
<path d="M283.356 319.198C282.98 319.213 282.605 319.152 282.252 319.019C281.9 318.886 281.578 318.684 281.306 318.424C281.051 318.181 280.849 317.888 280.713 317.563C280.576 317.239 280.509 316.889 280.515 316.537C280.504 316.184 280.569 315.833 280.706 315.508C280.842 315.182 281.047 314.889 281.306 314.65C281.58 314.393 281.902 314.193 282.254 314.063C282.606 313.933 282.981 313.875 283.356 313.892C284.103 313.863 284.831 314.123 285.39 314.617C285.646 314.847 285.848 315.128 285.985 315.443C286.121 315.757 286.188 316.097 286.181 316.44C286.192 316.801 286.128 317.16 285.995 317.496C285.862 317.831 285.661 318.136 285.407 318.392C285.139 318.661 284.819 318.871 284.466 319.01C284.113 319.149 283.735 319.213 283.356 319.198ZM281.064 341.216V322.312H285.487V341.216H281.064Z" fill="#BFBFBF"/>
<path d="M299.355 340.362C297.67 340.389 296.006 339.995 294.512 339.217C293.093 338.474 291.904 337.359 291.073 335.991C290.247 334.526 289.813 332.873 289.813 331.192C289.813 329.511 290.247 327.858 291.073 326.393C291.901 325.023 293.091 323.907 294.512 323.167C296.01 322.402 297.673 322.014 299.355 322.038C300.851 322.017 302.332 322.343 303.682 322.99C304.976 323.653 306.044 324.686 306.749 325.958C307.504 327.58 307.895 329.347 307.895 331.136C307.895 332.924 307.504 334.692 306.749 336.314C306.055 337.605 304.986 338.657 303.682 339.33C302.342 340.014 300.859 340.368 299.355 340.362ZM299.936 348.331C298.201 348.336 296.474 348.102 294.802 347.637C293.315 347.266 291.923 346.584 290.718 345.637L292.704 342.314C293.64 343.039 294.702 343.585 295.836 343.927C297.075 344.337 298.372 344.544 299.678 344.54C300.497 344.614 301.322 344.525 302.106 344.278C302.89 344.032 303.618 343.633 304.247 343.104C304.766 342.524 305.162 341.845 305.412 341.107C305.661 340.37 305.759 339.59 305.7 338.814V335.443L306.055 331.168L305.91 326.877V322.28H310.123V338.314C310.238 339.688 310.063 341.072 309.61 342.375C309.156 343.678 308.435 344.872 307.492 345.879C305.378 347.628 302.675 348.505 299.936 348.331ZM300.033 336.62C301.065 336.634 302.085 336.396 303.004 335.926C303.856 335.495 304.567 334.829 305.054 334.007C305.55 333.156 305.801 332.185 305.78 331.2C305.799 330.211 305.548 329.235 305.054 328.377C304.568 327.567 303.855 326.917 303.004 326.506C302.079 326.055 301.062 325.829 300.033 325.845C299 325.831 297.977 326.057 297.046 326.506C296.189 326.914 295.47 327.565 294.98 328.377C294.486 329.235 294.235 330.211 294.254 331.2C294.233 332.185 294.484 333.156 294.98 334.007C295.472 334.83 296.189 335.496 297.046 335.926C297.972 336.394 298.996 336.632 300.033 336.62Z" fill="#BFBFBF"/>
<path d="M315.935 341.215V322.311H320.165V327.408L319.422 325.795C320.077 324.601 321.079 323.633 322.296 323.02C323.657 322.355 325.156 322.024 326.671 322.053C328.078 322.026 329.471 322.329 330.739 322.94C331.931 323.527 332.911 324.468 333.548 325.633C334.292 327.083 334.647 328.7 334.581 330.327V341.167H330.142V330.892C330.248 329.539 329.826 328.198 328.963 327.15C328.538 326.734 328.032 326.41 327.477 326.196C326.922 325.983 326.329 325.885 325.734 325.908C324.774 325.883 323.824 326.106 322.974 326.553C322.17 326.974 321.516 327.633 321.101 328.44C320.625 329.447 320.403 330.554 320.455 331.666V341.232L315.935 341.215Z" fill="#BFBFBF"/>
<path d="M408.86 24.5158V2.44944H418.546C420.732 2.39549 422.898 2.87148 424.859 3.83665C426.6 4.69575 428.066 6.02583 429.088 7.67568C430.132 9.42969 430.658 11.4427 430.606 13.4826C430.656 15.5121 430.13 17.5143 429.088 19.2573C428.076 20.9241 426.609 22.2673 424.859 23.1286C422.895 24.0865 420.731 24.5621 418.546 24.5158H408.86ZM412.977 21.0478H418.288C419.775 21.0782 421.248 20.7519 422.582 20.0961C423.753 19.5018 424.728 18.5835 425.391 17.4507C426.083 16.245 426.43 14.8721 426.392 13.4826C426.434 12.0875 426.088 10.7082 425.391 9.49841C424.728 8.36562 423.753 7.4473 422.582 6.85303C421.246 6.20279 419.774 5.88198 418.288 5.91747H412.928L412.977 21.0478Z" fill="#BFBFBF"/>
<path d="M442.503 24.7233C440.822 24.7516 439.16 24.3695 437.66 23.6103C436.317 22.9115 435.198 21.8495 434.431 20.5456C433.645 19.1953 433.243 17.6557 433.269 16.0936C433.238 14.53 433.628 12.9868 434.399 11.6255C435.127 10.3495 436.194 9.29992 437.482 8.59297C438.861 7.83538 440.414 7.45165 441.987 7.47998C443.514 7.45829 445.021 7.83052 446.362 8.56071C447.639 9.26514 448.692 10.3165 449.397 11.5932C450.163 13.0017 450.542 14.588 450.494 16.1904C450.494 16.3517 450.494 16.5452 450.494 16.7549C450.511 16.9535 450.511 17.1532 450.494 17.3518H436.465V14.6903H448.412L446.878 15.5129C446.838 14.6472 446.57 13.8074 446.103 13.0772C445.685 12.3639 445.09 11.7697 444.376 11.3513C443.613 10.923 442.749 10.7059 441.874 10.7222C440.982 10.7019 440.102 10.9191 439.323 11.3513C438.62 11.762 438.044 12.3594 437.66 13.0772C437.231 13.8914 437.019 14.8027 437.046 15.7226V16.3033C437.026 17.2427 437.267 18.1694 437.741 18.9809C438.2 19.7575 438.88 20.3806 439.694 20.7714C440.601 21.2041 441.596 21.4195 442.6 21.4005C443.47 21.4126 444.334 21.265 445.151 20.965C445.922 20.6654 446.613 20.1905 447.169 19.5778L449.284 21.9973C448.506 22.8957 447.527 23.5976 446.426 24.0459C445.175 24.5245 443.842 24.7546 442.503 24.7233Z" fill="#BFBFBF"/>
<path d="M454.176 24.5121V1.12305H458.115V24.5121H454.176Z" fill="#BFBFBF"/>
<path d="M465.283 4.89862C464.953 4.9067 464.625 4.84958 464.318 4.73055C464.01 4.61151 463.729 4.43291 463.491 4.20501C463.27 3.99802 463.093 3.74838 462.97 3.47115C462.848 3.19391 462.784 2.89484 462.781 2.59197C462.785 2.28926 462.85 1.99047 462.972 1.71337C463.094 1.43626 463.27 1.1865 463.491 0.978937C464 0.552248 464.643 0.318359 465.307 0.318359C465.971 0.318359 466.614 0.552248 467.123 0.978937C467.35 1.18156 467.531 1.43035 467.653 1.70858C467.776 1.98681 467.837 2.28803 467.834 2.59197C467.843 2.91437 467.787 3.23535 467.668 3.53502C467.548 3.83469 467.368 4.10665 467.139 4.33405C466.885 4.54933 466.589 4.71043 466.269 4.8075C465.95 4.90457 465.614 4.93558 465.283 4.89862ZM463.297 24.5131V7.67304H467.236V24.5131H463.297Z" fill="#BFBFBF"/>
<path d="M476.89 24.5139L469.658 7.67383H473.758L479.974 22.5299H478.02L484.478 7.67383H488.256L481.039 24.5139H476.89Z" fill="#BFBFBF"/>
<path d="M498.087 24.7254C496.406 24.7536 494.743 24.3716 493.244 23.6124C491.907 22.9059 490.79 21.8457 490.015 20.5477C489.233 19.1961 488.837 17.6564 488.869 16.0957C488.84 14.5343 489.224 12.993 489.983 11.6276C490.712 10.3473 491.786 9.29684 493.082 8.59505C494.451 7.87457 495.975 7.49805 497.522 7.49805C499.069 7.49805 500.593 7.87457 501.961 8.59505C503.235 9.29977 504.282 10.3514 504.98 11.6276C505.752 13.0345 506.137 14.6208 506.094 16.2247C506.094 16.386 506.094 16.5796 506.094 16.7893V17.3861H492.049V14.6923H503.85L502.236 15.515C502.274 14.6724 502.096 13.834 501.719 13.0793C501.307 12.3609 500.711 11.7652 499.992 11.3533C499.23 10.9214 498.365 10.704 497.49 10.7243C496.604 10.7038 495.728 10.921 494.955 11.3533C494.239 11.763 493.647 12.3596 493.244 13.0793C492.822 13.8962 492.611 14.8056 492.63 15.7247V16.3054C492.61 17.2448 492.85 18.1715 493.324 18.983C493.789 19.756 494.467 20.3779 495.278 20.7735C496.184 21.2062 497.179 21.4216 498.184 21.4026C499.054 21.4161 499.919 21.2685 500.735 20.967C501.506 20.6675 502.197 20.1926 502.753 19.5798L504.867 21.9994C504.099 22.9008 503.124 23.6035 502.026 24.0479C500.769 24.5262 499.431 24.7563 498.087 24.7254Z" fill="#BFBFBF"/>
<path d="M509.792 24.5163V7.67617H513.537V12.3056L513.101 10.9506C513.579 9.84805 514.415 8.93875 515.474 8.36977C516.731 7.74389 518.123 7.43907 519.527 7.4826V11.241C519.373 11.1998 519.217 11.1728 519.058 11.1603H518.606C517.957 11.1287 517.308 11.2281 516.698 11.4526C516.087 11.6771 515.529 12.022 515.055 12.4669C514.579 12.9936 514.216 13.611 513.985 14.2818C513.755 14.9527 513.663 15.6631 513.715 16.3704V24.5324L509.792 24.5163Z" fill="#BFBFBF"/>
<defs>
<radialGradient id="paint0_radial_917_2093" cx="0" cy="0" r="1" gradientUnits="userSpaceOnUse" gradientTransform="translate(85.1078 185.64) scale(74.9081 74.8449)">
<stop offset="0.68" stop-color="#ACC2D4"/>
<stop offset="0.72" stop-color="#BBCDDC"/>
<stop offset="0.84" stop-color="#E0E8EF"/>
<stop offset="0.94" stop-color="#F7F9FB"/>
<stop offset="1" stop-color="white"/>
</radialGradient>
<linearGradient id="paint1_linear_917_2093" x1="26.99" y1="115.375" x2="155.457" y2="128.099" gradientUnits="userSpaceOnUse">
<stop stop-color="#FF990B"/>
<stop offset="1" stop-color="#AF6C4C"/>
</linearGradient>
<radialGradient id="paint2_radial_917_2093" cx="0" cy="0" r="1" gradientUnits="userSpaceOnUse" gradientTransform="translate(273.831 185.64) scale(74.9081 74.8449)">
<stop offset="0.68" stop-color="#ACC2D4"/>
<stop offset="0.72" stop-color="#BBCDDC"/>
<stop offset="0.84" stop-color="#E0E8EF"/>
<stop offset="0.94" stop-color="#F7F9FB"/>
<stop offset="1" stop-color="white"/>
</radialGradient>
<linearGradient id="paint3_linear_917_2093" x1="215.713" y1="115.375" x2="344.18" y2="128.099" gradientUnits="userSpaceOnUse">
<stop stop-color="#FF990B"/>
<stop offset="1" stop-color="#AF6C4C"/>
</linearGradient>
<radialGradient id="paint4_radial_917_2093" cx="0" cy="0" r="1" gradientUnits="userSpaceOnUse" gradientTransform="translate(462.555 185.64) scale(74.9081 74.8449)">
<stop offset="0.68" stop-color="#ACC2D4"/>
<stop offset="0.72" stop-color="#BBCDDC"/>
<stop offset="0.84" stop-color="#E0E8EF"/>
<stop offset="0.94" stop-color="#F7F9FB"/>
<stop offset="1" stop-color="white"/>
</radialGradient>
<linearGradient id="paint5_linear_917_2093" x1="404.453" y1="115.375" x2="532.919" y2="128.099" gradientUnits="userSpaceOnUse">
<stop stop-color="#FF990B"/>
<stop offset="1" stop-color="#AF6C4C"/>
</linearGradient>
</defs>
</svg>
