<svg width="584" height="371" viewBox="0 0 584 371" fill="none" xmlns="http://www.w3.org/2000/svg">
<path d="M90.304 101.339C89.8898 101.339 89.4925 101.174 89.1996 100.882C88.9067 100.589 88.7422 100.192 88.7422 99.7781V50.2363C88.7422 49.8224 88.9067 49.4255 89.1996 49.1328C89.4925 48.8402 89.8898 48.6758 90.304 48.6758C90.7182 48.6758 91.1155 48.8402 91.4084 49.1328C91.7013 49.4255 91.8658 49.8224 91.8658 50.2363V99.7095C91.8751 99.9201 91.8416 100.13 91.7672 100.328C91.6929 100.525 91.5794 100.705 91.4334 100.858C91.2874 101.01 91.1121 101.131 90.918 101.214C90.7239 101.296 90.515 101.339 90.304 101.339Z" fill="#678FCC"/>
<path d="M96.1056 50.5269C96.1056 49.3669 95.7614 48.233 95.1164 47.2686C94.4714 46.3041 93.5547 45.5524 92.4822 45.1085C91.4096 44.6647 90.2294 44.5485 89.0908 44.7748C87.9522 45.0011 86.9063 45.5597 86.0854 46.3799C85.2645 47.2001 84.7055 48.2451 84.479 49.3827C84.2525 50.5204 84.3688 51.6996 84.813 52.7712C85.2573 53.8429 86.0096 54.7588 86.9749 55.4032C87.9402 56.0477 89.075 56.3916 90.2359 56.3916C91.0067 56.3916 91.77 56.2399 92.4822 55.9452C93.1943 55.6505 93.8414 55.2185 94.3864 54.6739C94.9315 54.1293 95.3638 53.4828 95.6588 52.7712C95.9538 52.0597 96.1056 51.297 96.1056 50.5269Z" fill="#678FCC"/>
<path d="M492.654 101.339C492.239 101.339 491.842 101.174 491.549 100.882C491.256 100.589 491.092 100.192 491.092 99.7781V50.2363C491.092 50.0314 491.132 49.8284 491.211 49.6391C491.289 49.4498 491.404 49.2777 491.549 49.1328C491.694 48.9879 491.866 48.873 492.056 48.7946C492.245 48.7161 492.448 48.6758 492.654 48.6758C492.859 48.6758 493.062 48.7161 493.251 48.7946C493.441 48.873 493.613 48.9879 493.758 49.1328C493.903 49.2777 494.018 49.4498 494.097 49.6391C494.175 49.8284 494.215 50.0314 494.215 50.2363V99.7095C494.225 99.9201 494.191 100.13 494.117 100.328C494.043 100.525 493.929 100.705 493.783 100.858C493.637 101.01 493.462 101.131 493.268 101.214C493.073 101.296 492.865 101.339 492.654 101.339Z" fill="#678FCC"/>
<path d="M492.653 56.3916C495.895 56.3916 498.523 53.7659 498.523 50.5269C498.523 47.2879 495.895 44.6621 492.653 44.6621C489.411 44.6621 486.783 47.2879 486.783 50.5269C486.783 53.7659 489.411 56.3916 492.653 56.3916Z" fill="#678FCC"/>
<path d="M291.916 321.559C291.502 321.559 291.105 321.395 290.812 321.102C290.519 320.809 290.354 320.412 290.354 319.999V270.525C290.354 270.111 290.519 269.715 290.812 269.422C291.105 269.129 291.502 268.965 291.916 268.965C292.331 268.965 292.728 269.129 293.021 269.422C293.314 269.715 293.478 270.111 293.478 270.525V319.999C293.478 320.412 293.314 320.809 293.021 321.102C292.728 321.395 292.331 321.559 291.916 321.559Z" fill="#678FCC"/>
<path d="M286.046 319.707C286.046 320.866 286.39 322 287.035 322.965C287.68 323.929 288.597 324.681 289.669 325.125C290.742 325.569 291.922 325.685 293.061 325.459C294.199 325.232 295.245 324.674 296.066 323.854C296.887 323.033 297.446 321.988 297.673 320.851C297.899 319.713 297.783 318.534 297.339 317.462C296.894 316.391 296.142 315.475 295.177 314.83C294.211 314.186 293.077 313.842 291.916 313.842C290.359 313.842 288.866 314.46 287.765 315.56C286.664 316.659 286.046 318.151 286.046 319.707Z" fill="#678FCC"/>
<path style="mix-blend-mode:multiply" d="M90.3028 276.905C134.284 276.905 169.939 241.281 169.939 197.336C169.939 153.392 134.284 117.768 90.3028 117.768C46.3212 117.768 10.667 153.392 10.667 197.336C10.667 241.281 46.3212 276.905 90.3028 276.905Z" fill="url(#paint0_radial_1089_2068)"/>
<path d="M159.047 201.304C167.881 163.909 144.701 126.439 107.274 117.612C69.8467 108.786 32.3449 131.946 23.5113 169.342C14.6777 206.738 37.8573 244.208 75.2845 253.034C112.712 261.86 150.213 238.7 159.047 201.304Z" fill="white"/>
<path d="M91.2651 248.026C125.92 248.026 154.013 219.957 154.013 185.331C154.013 150.706 125.92 122.637 91.2651 122.637C56.6106 122.637 28.5176 150.706 28.5176 185.331C28.5176 219.957 56.6106 248.026 91.2651 248.026Z" fill="url(#paint1_linear_1089_2068)"/>
<path d="M5.74262 181.319H5.63964C5.42967 181.306 5.22444 181.251 5.03628 181.157C4.84812 181.063 4.6809 180.932 4.54466 180.772C4.40842 180.612 4.30596 180.426 4.24343 180.225C4.18091 180.024 4.1596 179.813 4.1808 179.604C5.63715 157.517 15.4454 136.811 31.6167 121.682C47.7881 106.554 69.1122 98.1367 91.2653 98.1367C113.418 98.1367 134.743 106.554 150.914 121.682C167.085 136.811 176.893 157.517 178.35 179.604C178.381 179.818 178.368 180.036 178.311 180.244C178.254 180.453 178.154 180.647 178.017 180.815C177.881 180.983 177.711 181.12 177.519 181.219C177.326 181.318 177.115 181.376 176.899 181.389C176.683 181.402 176.467 181.37 176.264 181.295C176.061 181.221 175.876 181.104 175.72 180.954C175.565 180.804 175.442 180.624 175.36 180.424C175.278 180.224 175.238 180.009 175.243 179.793C174.054 158.345 164.689 138.166 149.072 123.403C133.456 108.639 112.773 100.413 91.2739 100.413C69.7749 100.413 49.0922 108.639 33.4754 123.403C17.8585 138.166 8.4935 158.345 7.30445 179.793C7.29547 180.2 7.12697 180.589 6.83504 180.874C6.54311 181.159 6.15096 181.319 5.74262 181.319Z" fill="#678FCC"/>
<path d="M11.7318 179.759C11.6728 180.917 11.2716 182.031 10.579 182.961C9.88644 183.891 8.93348 184.596 7.84054 184.985C6.7476 185.374 5.56371 185.431 4.43843 185.148C3.31316 184.866 2.29697 184.256 1.51826 183.396C0.73955 182.537 0.233243 181.466 0.0633022 180.319C-0.106639 179.173 0.0674104 178.001 0.563463 176.953C1.05952 175.905 1.85532 175.027 2.85033 174.431C3.84535 173.835 4.99494 173.546 6.15388 173.603C7.70808 173.687 9.16608 174.381 10.2107 175.534C11.2553 176.687 11.802 178.205 11.7318 179.759Z" fill="#678FCC"/>
<path d="M170.815 179.76C170.875 180.918 171.276 182.033 171.97 182.964C172.663 183.894 173.617 184.598 174.711 184.986C175.805 185.375 176.99 185.431 178.115 185.146C179.241 184.862 180.257 184.251 181.035 183.39C181.813 182.529 182.317 181.456 182.485 180.309C182.653 179.161 182.477 177.989 181.978 176.941C181.479 175.894 180.681 175.018 179.684 174.423C178.687 173.829 177.536 173.544 176.376 173.603C174.822 173.683 173.363 174.377 172.32 175.531C171.277 176.686 170.736 178.207 170.815 179.76Z" fill="#678FCC"/>
<path style="mix-blend-mode:multiply" d="M290.938 276.905C334.919 276.905 370.573 241.281 370.573 197.336C370.573 153.392 334.919 117.768 290.938 117.768C246.956 117.768 211.302 153.392 211.302 197.336C211.302 241.281 246.956 276.905 290.938 276.905Z" fill="url(#paint2_radial_1089_2068)"/>
<path d="M341.149 234.524C368.341 207.355 368.341 163.305 341.149 136.136C313.956 108.967 269.869 108.967 242.677 136.136C215.485 163.305 215.485 207.355 242.677 234.524C269.869 261.694 313.956 261.694 341.149 234.524Z" fill="white"/>
<path d="M291.9 248.026C326.554 248.026 354.647 219.957 354.647 185.331C354.647 150.706 326.554 122.637 291.9 122.637C257.245 122.637 229.152 150.706 229.152 185.331C229.152 219.957 257.245 248.026 291.9 248.026Z" fill="url(#paint3_linear_1089_2068)"/>
<path d="M291.899 272.514C269.748 272.481 248.436 264.044 232.273 248.91C216.11 233.776 206.302 213.074 204.831 190.991C204.805 190.781 204.823 190.568 204.883 190.365C204.944 190.162 205.046 189.974 205.183 189.813C205.32 189.651 205.489 189.52 205.68 189.428C205.871 189.336 206.078 189.284 206.29 189.276C206.499 189.257 206.709 189.28 206.909 189.343C207.109 189.407 207.294 189.509 207.454 189.645C207.614 189.781 207.745 189.947 207.84 190.134C207.935 190.321 207.991 190.525 208.006 190.733C209.195 212.182 218.56 232.36 234.177 247.123C249.794 261.887 270.477 270.113 291.976 270.113C313.475 270.113 334.157 261.887 349.774 247.123C365.391 232.36 374.756 212.182 375.945 190.733C376.002 190.347 376.202 189.996 376.506 189.749C376.81 189.503 377.195 189.38 377.585 189.403C377.975 189.427 378.343 189.596 378.614 189.877C378.886 190.159 379.042 190.531 379.052 190.922C377.593 213.031 367.779 233.76 351.597 248.909C335.414 264.059 314.074 272.497 291.899 272.514Z" fill="#678FCC"/>
<path d="M371.449 190.888C371.508 189.729 371.91 188.614 372.603 187.684C373.297 186.754 374.251 186.05 375.345 185.661C376.439 185.273 377.623 185.217 378.749 185.501C379.875 185.785 380.891 186.397 381.669 187.258C382.446 188.119 382.951 189.191 383.119 190.339C383.287 191.487 383.11 192.659 382.612 193.706C382.113 194.754 381.315 195.63 380.317 196.224C379.32 196.818 378.169 197.104 377.01 197.044C376.239 197.007 375.484 196.818 374.787 196.488C374.09 196.158 373.465 195.693 372.948 195.121C372.431 194.549 372.033 193.881 371.776 193.154C371.518 192.427 371.407 191.657 371.449 190.888Z" fill="#678FCC"/>
<path d="M212.366 190.889C212.307 189.731 211.905 188.616 211.213 187.686C210.52 186.756 209.567 186.052 208.474 185.663C207.381 185.273 206.198 185.217 205.072 185.499C203.947 185.782 202.931 186.392 202.152 187.251C201.373 188.11 200.867 189.181 200.697 190.328C200.527 191.475 200.701 192.646 201.197 193.694C201.693 194.742 202.489 195.62 203.484 196.216C204.479 196.813 205.629 197.101 206.788 197.045C207.56 197.01 208.317 196.822 209.016 196.493C209.715 196.164 210.342 195.7 210.86 195.128C211.379 194.556 211.779 193.886 212.037 193.159C212.296 192.431 212.407 191.66 212.366 190.889Z" fill="#678FCC"/>
<path style="mix-blend-mode:multiply" d="M491.571 276.905C535.553 276.905 571.207 241.281 571.207 197.336C571.207 153.392 535.553 117.768 491.571 117.768C447.59 117.768 411.936 153.392 411.936 197.336C411.936 241.281 447.59 276.905 491.571 276.905Z" fill="url(#paint4_radial_1089_2068)"/>
<path d="M561.944 194.983C568.097 156.944 542.223 121.124 504.152 114.976C466.081 108.829 430.23 134.681 424.077 172.72C417.924 210.759 443.799 246.579 481.87 252.727C519.941 258.875 555.792 233.022 561.944 194.983Z" fill="white"/>
<path d="M492.551 248.026C527.206 248.026 555.299 219.957 555.299 185.331C555.299 150.706 527.206 122.637 492.551 122.637C457.897 122.637 429.804 150.706 429.804 185.331C429.804 219.957 457.897 248.026 492.551 248.026Z" fill="url(#paint5_linear_1089_2068)"/>
<path d="M407.028 181.321H406.925C406.715 181.308 406.51 181.253 406.321 181.159C406.133 181.065 405.966 180.934 405.83 180.774C405.694 180.613 405.591 180.427 405.529 180.227C405.466 180.026 405.445 179.815 405.466 179.606C406.89 157.499 416.684 136.762 432.857 121.609C449.03 106.456 470.37 98.0234 492.542 98.0234C514.713 98.0234 536.053 106.456 552.227 121.609C568.4 136.762 578.194 157.499 579.618 179.606C579.644 179.814 579.627 180.026 579.567 180.228C579.508 180.43 579.407 180.617 579.272 180.778C579.137 180.939 578.969 181.07 578.781 181.163C578.592 181.257 578.386 181.31 578.176 181.321C577.967 181.339 577.757 181.316 577.557 181.253C577.357 181.19 577.172 181.087 577.012 180.951C576.852 180.816 576.721 180.649 576.626 180.463C576.532 180.276 576.475 180.072 576.46 179.863C575.271 158.415 565.906 138.236 550.289 123.473C534.672 108.71 513.989 100.483 492.49 100.483C470.991 100.483 450.309 108.71 434.692 123.473C419.075 138.236 409.71 158.415 408.521 179.863C408.496 180.247 408.33 180.609 408.054 180.878C407.778 181.147 407.413 181.304 407.028 181.321Z" fill="#678FCC"/>
<path d="M413 179.76C412.941 180.918 412.539 182.033 411.846 182.964C411.152 183.894 410.198 184.598 409.104 184.986C408.011 185.375 406.826 185.431 405.7 185.146C404.575 184.862 403.559 184.251 402.781 183.39C402.003 182.529 401.498 181.456 401.33 180.309C401.162 179.161 401.339 177.989 401.838 176.941C402.336 175.894 403.135 175.018 404.132 174.423C405.129 173.829 406.28 173.544 407.44 173.603C408.992 173.688 410.449 174.382 411.491 175.536C412.532 176.689 413.075 178.208 413 179.76Z" fill="#678FCC"/>
<path d="M572.084 179.759C572.143 180.917 572.544 182.031 573.237 182.961C573.929 183.891 574.882 184.596 575.975 184.985C577.068 185.374 578.252 185.431 579.377 185.148C580.503 184.866 581.519 184.256 582.297 183.396C583.076 182.537 583.583 181.466 583.752 180.319C583.922 179.173 583.748 178.001 583.252 176.953C582.756 175.905 581.96 175.027 580.965 174.431C579.97 173.835 578.821 173.546 577.662 173.603C576.106 173.682 574.645 174.375 573.6 175.529C572.554 176.683 572.009 178.204 572.084 179.759Z" fill="#678FCC"/>
<path d="M473.071 172.213V198.433H512.014V172.213H473.071ZM492.517 185.932L477.74 174.562H507.328L492.517 185.932ZM487.368 184.971L475.354 194.712V175.848L487.368 184.971ZM489.29 186.463L492.483 188.915L495.829 186.343L507.5 196.015H477.602L489.29 186.463ZM497.769 184.868L509.611 175.78V194.643L497.769 184.868Z" fill="white"/>
<path d="M306.419 185.366C306.445 184.903 306.445 184.44 306.419 183.977L310.813 181.713C310.514 180.167 310.024 178.663 309.354 177.238L304.462 177.992C304.005 177.194 303.465 176.447 302.849 175.763L305.08 171.356C303.923 170.285 302.644 169.352 301.27 168.578L297.752 172.007C296.904 171.648 296.025 171.367 295.126 171.167L294.336 166.297C292.77 166.091 291.183 166.091 289.617 166.297L288.81 171.167C287.916 171.367 287.043 171.648 286.201 172.007L282.683 168.578C281.306 169.348 280.027 170.281 278.873 171.356L281.104 175.763C280.488 176.447 279.947 177.194 279.49 177.992L274.599 177.238C273.931 178.666 273.436 180.168 273.123 181.713L277.517 183.977C277.517 184.44 277.517 184.886 277.517 185.366C277.517 185.846 277.517 186.275 277.517 186.738L273.123 189.001C273.436 190.547 273.931 192.049 274.599 193.477L279.49 192.74C279.952 193.53 280.492 194.271 281.104 194.952L278.873 199.359C280.027 200.434 281.306 201.367 282.683 202.137L286.201 198.707C287.043 199.067 287.916 199.348 288.81 199.548L289.617 204.418C291.183 204.624 292.77 204.624 294.336 204.418L295.126 199.548C296.025 199.348 296.904 199.067 297.752 198.707L301.27 202.137C302.644 201.362 303.923 200.43 305.08 199.359L302.849 194.952C303.461 194.271 304.001 193.53 304.462 192.74L309.354 193.477C310.024 192.051 310.514 190.548 310.813 189.001L306.419 186.738C306.445 186.281 306.445 185.823 306.419 185.366ZM291.899 194.455C290.095 194.458 288.331 193.926 286.83 192.927C285.328 191.928 284.158 190.506 283.466 188.841C282.774 187.177 282.592 185.345 282.943 183.577C283.294 181.809 284.162 180.185 285.438 178.91C286.713 177.636 288.339 176.768 290.108 176.417C291.878 176.066 293.712 176.248 295.378 176.939C297.044 177.631 298.467 178.801 299.467 180.301C300.467 181.801 300.999 183.564 300.996 185.366C300.982 187.769 300.018 190.069 298.314 191.765C296.61 193.462 294.304 194.416 291.899 194.42V194.455Z" fill="white"/>
<path d="M78.5981 196.992L85.9953 189.601L89.1189 192.705L103.484 178.352L105.87 180.752C105.87 180.547 107.689 169.589 107.586 170.292L97.1168 172.007L99.8114 174.699L89.1189 185.365L85.9953 182.244L78.1003 190.132V166.502H73.5693V201.485H108.582V196.958L78.5981 196.992Z" fill="white"/>
<path d="M90.3038 106.723C94.1806 106.723 97.3234 103.583 97.3234 99.709C97.3234 95.8355 94.1806 92.6953 90.3038 92.6953C86.427 92.6953 83.2842 95.8355 83.2842 99.709C83.2842 103.583 86.427 106.723 90.3038 106.723Z" fill="white"/>
<path d="M90.3041 108.283C88.6069 108.283 86.9477 107.78 85.5365 106.838C84.1253 105.896 83.0254 104.557 82.3759 102.99C81.7264 101.423 81.5564 99.6995 81.8875 98.0362C82.2187 96.373 83.036 94.8452 84.2361 93.6461C85.4362 92.447 86.9653 91.6304 88.6299 91.2995C90.2946 90.9687 92.02 91.1385 93.5881 91.7874C95.1561 92.4364 96.4964 93.5354 97.4393 94.9454C98.3823 96.3554 98.8856 98.0132 98.8856 99.709C98.8856 101.983 97.9814 104.164 96.3721 105.772C94.7628 107.38 92.58 108.283 90.3041 108.283ZM90.3041 94.2386C89.2205 94.2352 88.1603 94.5532 87.2577 95.1522C86.3551 95.7512 85.6507 96.6044 85.2337 97.6037C84.8167 98.6029 84.7058 99.7034 84.9151 100.766C85.1244 101.828 85.6445 102.804 86.4095 103.571C87.1745 104.338 88.15 104.86 89.2125 105.073C90.275 105.285 91.3767 105.178 92.3781 104.765C93.3796 104.351 94.2356 103.65 94.838 102.75C95.4404 101.85 95.7619 100.792 95.7619 99.709C95.7619 98.2611 95.1874 96.8723 94.1644 95.8469C93.1414 94.8215 91.7532 94.2432 90.3041 94.2386Z" fill="#678FCC"/>
<path d="M492.567 106.723C496.444 106.723 499.587 103.583 499.587 99.709C499.587 95.8355 496.444 92.6953 492.567 92.6953C488.691 92.6953 485.548 95.8355 485.548 99.709C485.548 103.583 488.691 106.723 492.567 106.723Z" fill="white"/>
<path d="M492.567 108.283C490.87 108.283 489.21 107.78 487.799 106.838C486.388 105.896 485.288 104.557 484.639 102.99C483.989 101.423 483.819 99.6995 484.15 98.0362C484.481 96.373 485.299 94.8452 486.499 93.6461C487.699 92.447 489.228 91.6304 490.893 91.2995C492.557 90.9687 494.283 91.1385 495.851 91.7874C497.419 92.4364 498.759 93.5354 499.702 94.9454C500.645 96.3554 501.148 98.0132 501.148 99.709C501.148 101.983 500.244 104.164 498.635 105.772C497.025 107.38 494.843 108.283 492.567 108.283ZM492.567 94.2386C491.483 94.2352 490.423 94.5532 489.52 95.1522C488.618 95.7512 487.913 96.6044 487.496 97.6037C487.079 98.6029 486.968 99.7034 487.178 100.766C487.387 101.828 487.907 102.804 488.672 103.571C489.437 104.338 490.413 104.86 491.475 105.073C492.538 105.285 493.639 105.178 494.641 104.765C495.642 104.351 496.498 103.65 497.101 102.75C497.703 101.85 498.025 100.792 498.025 99.709C498.027 98.9914 497.887 98.2805 497.614 97.6169C497.341 96.9533 496.939 96.3501 496.432 95.8419C495.925 95.3337 495.323 94.9305 494.659 94.6554C493.996 94.3802 493.285 94.2386 492.567 94.2386Z" fill="#678FCC"/>
<path d="M291.899 277.967C295.775 277.967 298.918 274.827 298.918 270.953C298.918 267.08 295.775 263.939 291.899 263.939C288.022 263.939 284.879 267.08 284.879 270.953C284.879 274.827 288.022 277.967 291.899 277.967Z" fill="white"/>
<path d="M291.899 279.527C290.202 279.527 288.542 279.024 287.131 278.082C285.72 277.14 284.62 275.801 283.971 274.234C283.321 272.668 283.151 270.944 283.482 269.28C283.813 267.617 284.631 266.089 285.831 264.89C287.031 263.691 288.56 262.874 290.225 262.544C291.889 262.213 293.615 262.383 295.183 263.032C296.751 263.681 298.091 264.78 299.034 266.19C299.977 267.6 300.48 269.257 300.48 270.953C300.48 273.227 299.576 275.408 297.967 277.016C296.358 278.624 294.175 279.527 291.899 279.527ZM291.899 265.5C290.82 265.503 289.767 265.826 288.871 266.427C287.976 267.029 287.279 267.881 286.869 268.878C286.458 269.875 286.353 270.971 286.565 272.027C286.778 273.084 287.299 274.054 288.063 274.815C288.827 275.576 289.799 276.094 290.858 276.303C291.916 276.512 293.012 276.403 294.009 275.99C295.005 275.576 295.856 274.877 296.455 273.981C297.054 273.085 297.374 272.031 297.374 270.953C297.374 270.236 297.232 269.525 296.957 268.862C296.681 268.2 296.278 267.598 295.769 267.091C295.261 266.584 294.657 266.183 293.993 265.91C293.329 265.637 292.617 265.498 291.899 265.5Z" fill="#678FCC"/>
<path d="M16.0908 28.664V4.51902H26.6632C29.0392 4.46835 31.393 4.98574 33.5283 6.02808C35.4342 6.9783 37.0385 8.43875 38.1623 10.2466C39.3191 12.1587 39.9139 14.3575 39.8786 16.5915C39.9052 18.819 39.311 21.01 38.1623 22.9193C37.0385 24.7271 35.4342 26.1876 33.5283 27.1378C31.3944 28.186 29.0406 28.7093 26.6632 28.664H16.0908ZM20.5875 24.8742H26.4572C28.0803 24.9052 29.6871 24.5464 31.1427 23.8281C32.4679 23.202 33.5741 22.1923 34.3178 20.9301C35.0619 19.6065 35.4409 18.1093 35.4162 16.5915C35.4563 15.0447 35.0768 13.5159 34.3178 12.1672C33.5812 10.9345 32.51 9.93562 31.2285 9.28628C29.7715 8.57391 28.1647 8.22108 26.543 8.25737H20.5875V24.8742Z" fill="#BFBFBF"/>
<path d="M46.3334 7.21237C45.9691 7.22576 45.6059 7.16416 45.2663 7.03141C44.9268 6.89866 44.6182 6.6976 44.3597 6.4407C44.1062 6.2113 43.9046 5.93048 43.7685 5.61701C43.6323 5.30354 43.5647 4.96464 43.5702 4.62296C43.5609 4.27571 43.6266 3.93055 43.7629 3.61095C43.8991 3.29136 44.1027 3.00486 44.3597 2.77093C44.6228 2.52265 44.933 2.3295 45.2719 2.20286C45.6109 2.07622 45.9718 2.01865 46.3334 2.03355C47.0622 2.00795 47.7735 2.25918 48.3243 2.73664C48.5651 2.95326 48.7582 3.2176 48.8911 3.51283C49.0241 3.80807 49.0941 4.12774 49.0967 4.45148C49.1138 4.81858 49.054 5.18522 48.9212 5.52793C48.7884 5.87064 48.5855 6.18188 48.3254 6.44175C48.0653 6.70161 47.7538 6.90438 47.4108 7.03707C47.0678 7.16977 46.7008 7.22948 46.3334 7.21237ZM44.1881 28.6651V10.2476H48.5131V28.6651H44.1881Z" fill="#BFBFBF"/>
<path d="M59.8739 28.9043C58.3717 28.9068 56.8763 28.7049 55.4287 28.3041C54.2115 28.0034 53.0519 27.5052 51.9961 26.8293L53.7124 23.554C55.6458 24.736 57.8647 25.3703 60.1313 25.3889C61.1478 25.4602 62.1654 25.2652 63.0833 24.823C63.3523 24.68 63.5784 24.468 63.7382 24.2088C63.8981 23.9496 63.986 23.6526 63.993 23.3482C64.0018 23.119 63.9492 22.8917 63.8406 22.6897C63.732 22.4877 63.5712 22.3183 63.3751 22.1993C62.8758 21.8919 62.3224 21.6824 61.7446 21.5819C61.0753 21.4447 60.3373 21.3247 59.5134 21.2047C58.6981 21.0994 57.89 20.9448 57.0935 20.7416C56.3121 20.5655 55.5604 20.2767 54.8623 19.8842C54.2016 19.5095 53.642 18.9798 53.2318 18.3409C52.7864 17.5717 52.5719 16.6906 52.614 15.8029C52.5917 14.6996 52.9492 13.6221 53.6266 12.7505C54.3486 11.8289 55.3193 11.1328 56.4241 10.7441C57.8032 10.2415 59.2646 10.003 60.732 10.041C61.996 10.0441 63.256 10.1821 64.4907 10.4526C65.5943 10.6674 66.6553 11.0613 67.6315 11.6187L65.9152 14.894C65.1175 14.4199 64.248 14.0782 63.3408 13.8823C62.4738 13.6847 61.587 13.5868 60.6977 13.5908C59.6904 13.5201 58.6826 13.7215 57.78 14.1738C57.5046 14.3122 57.2716 14.5223 57.1055 14.7818C56.9394 15.0413 56.8463 15.3407 56.836 15.6486C56.8193 15.8931 56.8676 16.1378 56.9762 16.3577C57.0847 16.5775 57.2495 16.7648 57.4539 16.9004C57.948 17.2129 58.4946 17.4336 59.0672 17.552C59.8037 17.7217 60.5484 17.8533 61.2984 17.9465C62.1197 18.0494 62.9337 18.204 63.7355 18.4095C64.5103 18.6069 65.2592 18.8946 65.9667 19.2669C66.6637 19.5994 67.2569 20.1151 67.683 20.7588C68.1243 21.5234 68.3387 22.3978 68.3008 23.2796C68.3268 24.3678 67.9683 25.4303 67.2882 26.2806C66.5215 27.1883 65.5261 27.875 64.4049 28.2698C62.9453 28.7532 61.4102 28.9682 59.8739 28.9043Z" fill="#BFBFBF"/>
<path d="M80.4002 28.9026C78.6066 28.9364 76.8342 28.5114 75.2513 27.6679C73.7721 26.8755 72.5421 25.6882 71.6986 24.2383C70.8294 22.793 70.3668 21.14 70.3599 19.4538C70.3291 17.7395 70.7683 16.0494 71.63 14.5665C72.4896 13.1557 73.7179 12.0055 75.1827 11.2398C76.7716 10.416 78.5418 10.0033 80.3316 10.0394C81.981 10.0044 83.6136 10.3755 85.0857 11.1197C86.4386 11.8257 87.5323 12.9425 88.2093 14.3093L84.9655 16.2471C84.476 15.4318 83.7767 14.7627 82.9403 14.3093C82.1456 13.8962 81.2617 13.6842 80.3659 13.692C79.368 13.6763 78.3822 13.9123 77.4997 14.3779C76.6571 14.8341 75.9654 15.5252 75.5088 16.3671C75 17.315 74.7457 18.3785 74.7708 19.4538C74.7504 20.5287 75.0044 21.591 75.5088 22.5406C75.9656 23.3779 76.6577 24.0634 77.4997 24.5126C78.3809 24.9836 79.3666 25.2253 80.3659 25.2157C81.2885 25.2249 82.1976 24.9941 83.004 24.5462C83.8104 24.0982 84.4864 23.4484 84.9655 22.6606L88.278 24.5812C87.5915 25.9413 86.5003 27.0555 85.1543 27.7708C83.6923 28.5475 82.0556 28.9371 80.4002 28.9026Z" fill="#BFBFBF"/>
<path d="M100.018 28.9018C98.2512 28.9123 96.5122 28.4631 94.9719 27.5985C93.5017 26.7967 92.2805 25.6063 91.442 24.1576C90.6035 22.7088 90.18 21.0575 90.2178 19.3844C90.1682 17.7091 90.5868 16.0531 91.4265 14.6023C92.2663 13.1514 93.494 11.963 94.9719 11.1703C96.5429 10.3815 98.2768 9.9707 100.035 9.9707C101.793 9.9707 103.527 10.3815 105.098 11.1703C106.522 11.9419 107.708 13.086 108.531 14.4799C109.421 15.9835 109.873 17.7062 109.835 19.453C109.867 21.1544 109.434 22.8325 108.582 24.306C107.777 25.7441 106.589 26.9313 105.15 27.7357C103.569 28.5619 101.801 28.9637 100.018 28.9018ZM100.018 25.2148C101.007 25.2308 101.983 24.9885 102.85 24.5118C103.692 24.0401 104.368 23.3219 104.789 22.4539C105.286 21.5084 105.534 20.4521 105.51 19.3844C105.54 18.3106 105.292 17.2472 104.789 16.2977C104.352 15.4588 103.678 14.767 102.85 14.3084C101.993 13.8413 101.028 13.6049 100.052 13.6225C99.0697 13.5986 98.0985 13.8353 97.2374 14.3084C96.4081 14.7707 95.729 15.4611 95.2809 16.2977C94.778 17.2472 94.5297 18.3106 94.56 19.3844C94.5357 20.4521 94.7838 21.5084 95.2809 22.4539C95.7242 23.294 96.4045 23.9857 97.2374 24.4432C98.0788 24.9434 99.0388 25.2098 100.018 25.2148Z" fill="#BFBFBF"/>
<path d="M118.417 28.6635L110.471 10.2461H114.985L121.85 26.4856H119.55L126.587 10.2461H130.74L122.828 28.6635H118.417Z" fill="#BFBFBF"/>
<path d="M141.569 28.905C139.703 28.9271 137.861 28.4789 136.214 27.6017C134.719 26.8249 133.48 25.6342 132.644 24.172C131.8 22.6953 131.367 21.0195 131.391 19.319C131.36 17.6112 131.78 15.9253 132.61 14.4317C133.43 13.0315 134.617 11.8812 136.042 11.105C137.546 10.2837 139.238 9.86986 140.951 9.90456C142.627 9.86859 144.284 10.2706 145.757 11.0707C147.147 11.8456 148.293 12.9915 149.069 14.3803C149.903 15.9273 150.317 17.6654 150.27 19.4219C150.27 19.5934 150.27 19.8163 150.27 20.0393C150.27 20.2622 150.27 20.4851 150.27 20.6909H134.824V17.9643H147.902L146.186 18.856C146.228 17.8878 146.002 16.9267 145.534 16.078C145.084 15.288 144.432 14.6312 143.646 14.1745C142.808 13.7039 141.86 13.467 140.9 13.4886C139.928 13.465 138.968 13.7019 138.119 14.1745C137.334 14.6298 136.692 15.295 136.266 16.0951C135.785 16.9962 135.549 18.007 135.579 19.0275V19.7135C135.561 20.7433 135.828 21.7581 136.351 22.6458C136.852 23.4929 137.593 24.173 138.48 24.6008C139.468 25.0802 140.556 25.3211 141.655 25.3038C142.61 25.3169 143.56 25.1481 144.452 24.8065C145.298 24.4831 146.056 23.9663 146.666 23.2975L149 25.8869C148.15 26.8697 147.08 27.6392 145.877 28.1333C144.505 28.6692 143.041 28.9314 141.569 28.905Z" fill="#BFBFBF"/>
<path d="M154.459 28.6642V10.2468H158.561V15.3914L158.012 13.8823C158.539 12.6736 159.458 11.6771 160.62 11.0528C161.992 10.3646 163.515 10.0343 165.048 10.0925V14.1395C164.879 14.097 164.707 14.0683 164.534 14.0538H164.053C163.339 14.0208 162.625 14.1296 161.954 14.3739C161.282 14.6182 160.666 14.9932 160.14 15.4771C159.626 16.0566 159.234 16.733 158.987 17.4664C158.739 18.1997 158.641 18.9752 158.698 19.7471V28.6814L154.459 28.6642Z" fill="#BFBFBF"/>
<path d="M225.188 362.734V336.394H236.721C239.333 336.358 241.916 336.946 244.255 338.109C246.332 339.142 248.08 340.734 249.301 342.705C250.483 344.82 251.103 347.202 251.103 349.624C251.103 352.046 250.483 354.428 249.301 356.544C248.085 358.519 246.336 360.111 244.255 361.139C241.919 362.31 239.334 362.898 236.721 362.854L225.188 362.734ZM230.096 358.601H236.498C238.281 358.648 240.048 358.259 241.647 357.47C243.076 356.769 244.269 355.666 245.079 354.297C245.856 352.834 246.262 351.203 246.262 349.547C246.262 347.891 245.856 346.26 245.079 344.797C244.262 343.442 243.07 342.352 241.647 341.659C240.048 340.869 238.281 340.48 236.498 340.527H230.096V358.601Z" fill="#BFBFBF"/>
<path d="M265.314 362.99C263.277 363.037 261.26 362.578 259.444 361.652C257.831 360.818 256.487 359.546 255.566 357.983C254.637 356.373 254.163 354.542 254.192 352.684C254.156 350.819 254.618 348.978 255.531 347.351C256.407 345.83 257.683 344.578 259.221 343.732C260.859 342.882 262.678 342.438 264.525 342.438C266.371 342.438 268.19 342.882 269.828 343.732C271.35 344.576 272.605 345.83 273.449 347.351C274.359 349.04 274.815 350.937 274.771 352.855C274.771 353.044 274.771 353.267 274.771 353.524C274.789 353.764 274.789 354.005 274.771 354.244H258.02V351.123H272.282L270.446 352.101C270.486 351.037 270.237 349.982 269.725 349.048C269.236 348.185 268.525 347.469 267.665 346.973C266.755 346.46 265.724 346.199 264.679 346.219C263.618 346.199 262.57 346.46 261.641 346.973C260.787 347.473 260.087 348.196 259.616 349.066C259.104 350.031 258.849 351.112 258.878 352.204V352.958C258.857 354.082 259.142 355.19 259.702 356.165C260.254 357.091 261.066 357.836 262.036 358.309C263.107 358.82 264.282 359.078 265.468 359.063C266.511 359.073 267.546 358.893 268.524 358.531C269.448 358.157 270.272 357.569 270.926 356.817L273.466 359.715C272.536 360.791 271.358 361.627 270.034 362.15C268.532 362.739 266.927 363.025 265.314 362.99Z" fill="#BFBFBF"/>
<path d="M285.497 362.99C283.861 363.002 282.232 362.783 280.657 362.339C279.358 362 278.119 361.462 276.984 360.744L278.786 357.16C279.796 357.788 280.888 358.272 282.03 358.6C283.257 358.96 284.528 359.145 285.806 359.149C286.91 359.232 288.016 359.025 289.016 358.549C289.322 358.408 289.579 358.179 289.756 357.893C289.933 357.606 290.022 357.274 290.011 356.937C290.022 356.685 289.966 356.435 289.848 356.212C289.73 355.989 289.556 355.801 289.342 355.668C288.809 355.359 288.229 355.139 287.625 355.016C286.887 354.862 286.081 354.725 285.188 354.605C284.287 354.483 283.393 354.311 282.511 354.09C281.66 353.904 280.844 353.585 280.091 353.147C279.382 352.73 278.792 352.14 278.375 351.432C277.876 350.588 277.637 349.616 277.688 348.637C277.662 347.435 278.05 346.261 278.786 345.31C279.587 344.312 280.651 343.558 281.859 343.132C283.359 342.586 284.948 342.324 286.544 342.361C287.923 342.366 289.298 342.515 290.646 342.807C291.852 343.047 293.011 343.482 294.079 344.093L292.259 347.66C291.375 347.111 290.407 346.711 289.393 346.476C288.446 346.268 287.48 346.159 286.51 346.151C285.406 346.078 284.304 346.303 283.317 346.802C283.016 346.953 282.762 347.183 282.581 347.467C282.399 347.75 282.298 348.078 282.288 348.414C282.27 348.679 282.323 348.943 282.44 349.181C282.558 349.419 282.736 349.622 282.957 349.769C283.483 350.107 284.064 350.351 284.673 350.489C285.471 350.68 286.279 350.823 287.093 350.918C287.989 351.038 288.877 351.21 289.754 351.432C290.595 351.642 291.407 351.953 292.174 352.358C292.921 352.753 293.545 353.346 293.976 354.073C294.456 354.905 294.688 355.857 294.645 356.817C294.663 358.005 294.269 359.162 293.529 360.092C292.698 361.084 291.612 361.831 290.389 362.253C288.816 362.793 287.159 363.042 285.497 362.99Z" fill="#BFBFBF"/>
<path d="M301.063 339.325C300.663 339.34 300.264 339.276 299.889 339.134C299.515 338.993 299.173 338.778 298.883 338.501C298.612 338.243 298.397 337.932 298.252 337.586C298.108 337.241 298.036 336.869 298.042 336.495C298.031 336.12 298.1 335.747 298.245 335.401C298.39 335.055 298.608 334.744 298.883 334.489C299.174 334.216 299.517 334.004 299.891 333.865C300.266 333.727 300.664 333.665 301.063 333.683C301.856 333.653 302.631 333.929 303.225 334.454C303.497 334.698 303.712 334.997 303.857 335.332C304.002 335.666 304.074 336.028 304.066 336.392C304.077 336.776 304.01 337.158 303.868 337.514C303.726 337.871 303.514 338.195 303.243 338.467C302.958 338.753 302.618 338.976 302.243 339.124C301.868 339.272 301.466 339.34 301.063 339.325ZM298.626 362.732V342.634H303.328V362.732H298.626Z" fill="#BFBFBF"/>
<path d="M318.073 361.824C316.282 361.851 314.512 361.433 312.924 360.606C311.416 359.817 310.152 358.631 309.268 357.176C308.39 355.619 307.929 353.862 307.929 352.075C307.929 350.287 308.39 348.53 309.268 346.973C310.148 345.516 311.413 344.329 312.924 343.543C314.517 342.73 316.284 342.318 318.073 342.343C319.664 342.321 321.238 342.667 322.673 343.355C324.049 344.06 325.184 345.158 325.933 346.51C326.736 348.234 327.152 350.113 327.152 352.015C327.152 353.916 326.736 355.795 325.933 357.519C325.196 358.893 324.059 360.011 322.673 360.726C321.249 361.453 319.672 361.829 318.073 361.824ZM318.691 370.295C316.846 370.3 315.01 370.052 313.233 369.557C311.652 369.163 310.172 368.438 308.891 367.431L311.002 363.898C311.997 364.669 313.126 365.25 314.331 365.613C315.649 366.049 317.028 366.269 318.416 366.265C319.286 366.343 320.164 366.249 320.997 365.987C321.831 365.725 322.604 365.301 323.273 364.739C323.825 364.122 324.246 363.4 324.512 362.616C324.777 361.832 324.881 361.002 324.818 360.177V356.593L325.195 352.049L325.041 347.487V342.6H329.521V359.646C329.643 361.107 329.457 362.578 328.975 363.963C328.493 365.348 327.726 366.617 326.723 367.688C324.476 369.548 321.603 370.481 318.691 370.295ZM318.794 357.845C319.891 357.86 320.975 357.606 321.952 357.108C322.858 356.649 323.614 355.941 324.131 355.067C324.658 354.162 324.926 353.13 324.904 352.083C324.924 351.031 324.657 349.994 324.131 349.082C323.615 348.221 322.857 347.529 321.952 347.093C320.969 346.614 319.887 346.373 318.794 346.39C317.695 346.375 316.608 346.615 315.619 347.093C314.707 347.527 313.943 348.218 313.422 349.082C312.896 349.994 312.63 351.031 312.649 352.083C312.627 353.13 312.895 354.162 313.422 355.067C313.945 355.942 314.707 356.65 315.619 357.108C316.602 357.605 317.691 357.858 318.794 357.845Z" fill="#BFBFBF"/>
<path d="M335.699 362.732V342.634H340.196V348.053L339.406 346.338C340.102 345.068 341.168 344.04 342.461 343.388C343.908 342.681 345.502 342.328 347.113 342.359C348.608 342.331 350.09 342.654 351.438 343.302C352.704 343.927 353.747 344.927 354.424 346.166C355.214 347.707 355.593 349.426 355.522 351.156V362.68H350.803V351.757C350.916 350.318 350.467 348.892 349.55 347.778C349.097 347.336 348.56 346.992 347.97 346.765C347.379 346.537 346.749 346.433 346.117 346.458C345.096 346.432 344.086 346.668 343.182 347.144C342.328 347.592 341.632 348.292 341.191 349.15C340.685 350.22 340.45 351.398 340.505 352.58V362.749L335.699 362.732Z" fill="#BFBFBF"/>
<path d="M434.488 26.0435V2.58446H444.786C447.109 2.52711 449.412 3.03314 451.497 4.05923C453.348 4.97255 454.906 6.38657 455.993 8.14055C457.103 10.0053 457.662 12.1454 457.607 14.314C457.66 16.4716 457.101 18.6002 455.993 20.4531C454.918 22.2252 453.358 23.6531 451.497 24.5687C449.409 25.5872 447.109 26.0928 444.786 26.0435H434.488ZM438.865 22.3566H444.511C446.092 22.389 447.658 22.042 449.077 21.3448C450.322 20.7131 451.358 19.7368 452.063 18.5325C452.799 17.2507 453.167 15.7911 453.127 14.314C453.172 12.8309 452.804 11.3644 452.063 10.0783C451.358 8.87403 450.322 7.89776 449.077 7.26598C447.656 6.57471 446.091 6.23365 444.511 6.27137H438.813L438.865 22.3566Z" fill="#BFBFBF"/>
<path d="M470.256 26.2629C468.468 26.2929 466.701 25.8868 465.107 25.0797C463.679 24.3367 462.49 23.2077 461.674 21.8215C460.838 20.3859 460.41 18.7492 460.438 17.0885C460.406 15.4262 460.821 13.7856 461.64 12.3384C462.414 10.9819 463.548 9.86605 464.918 9.11448C466.383 8.30908 468.034 7.90113 469.706 7.93124C471.33 7.90818 472.932 8.30391 474.357 9.08018C475.716 9.82907 476.835 10.9468 477.584 12.3041C478.399 13.8014 478.801 15.4878 478.751 17.1914C478.751 17.3629 478.751 17.5687 478.751 17.7916C478.769 18.0027 478.769 18.2149 478.751 18.4261H463.837V15.5966H476.537L474.907 16.4712C474.864 15.5509 474.579 14.658 474.083 13.8817C473.638 13.1234 473.005 12.4917 472.246 12.0469C471.435 11.5916 470.517 11.3608 469.586 11.3781C468.639 11.3566 467.703 11.5874 466.874 12.0469C466.127 12.4835 465.515 13.1186 465.107 13.8817C464.65 14.7474 464.426 15.7161 464.454 16.6941V17.3114C464.433 18.3101 464.689 19.2953 465.192 20.1581C465.681 20.9837 466.404 21.6461 467.269 22.0615C468.233 22.5215 469.291 22.7505 470.358 22.7303C471.283 22.7432 472.202 22.5862 473.07 22.2673C473.89 21.9489 474.625 21.444 475.216 20.7926L477.464 23.3648C476.637 24.3199 475.596 25.0662 474.426 25.5427C473.096 26.0515 471.679 26.2961 470.256 26.2629Z" fill="#BFBFBF"/>
<path d="M482.665 26.039V1.17383H486.853V26.039H482.665Z" fill="#BFBFBF"/>
<path d="M494.473 5.1877C494.122 5.19629 493.774 5.13556 493.447 5.00902C493.12 4.88247 492.821 4.6926 492.568 4.45031C492.332 4.23026 492.144 3.96486 492.014 3.67013C491.885 3.3754 491.816 3.05745 491.812 2.73547C491.817 2.41365 491.886 2.096 492.016 1.80141C492.146 1.50682 492.333 1.2413 492.568 1.02063C493.109 0.567009 493.792 0.318359 494.498 0.318359C495.205 0.318359 495.888 0.567009 496.429 1.02063C496.67 1.23604 496.863 1.50054 496.993 1.79632C497.123 2.09211 497.188 2.41234 497.184 2.73547C497.195 3.07821 497.135 3.41946 497.008 3.73804C496.881 4.05662 496.69 4.34575 496.447 4.5875C496.176 4.81637 495.861 4.98763 495.522 5.09083C495.182 5.19403 494.825 5.22699 494.473 5.1877ZM492.362 26.0402V8.13722H496.549V26.0402H492.362Z" fill="#BFBFBF"/>
<path d="M506.813 26.0416L499.124 8.13867H503.483L510.091 23.9324H508.014L514.88 8.13867H518.896L511.224 26.0416H506.813Z" fill="#BFBFBF"/>
<path d="M529.347 26.2658C527.56 26.2958 525.792 25.8897 524.198 25.0826C522.776 24.3315 521.589 23.2043 520.765 21.8244C519.934 20.3875 519.513 18.7507 519.547 17.0914C519.516 15.4315 519.925 13.793 520.731 12.3413C521.507 10.9803 522.648 9.8635 524.026 9.11741C525.481 8.35146 527.101 7.95117 528.746 7.95117C530.391 7.95117 532.011 8.35146 533.466 9.11741C534.82 9.86661 535.933 10.9846 536.675 12.3413C537.496 13.837 537.905 15.5235 537.86 17.2286C537.86 17.4001 537.86 17.6059 537.86 17.8288V18.4633H522.928V15.5995H535.474L533.758 16.4741C533.798 15.5783 533.609 14.687 533.208 13.8847C532.77 13.1209 532.136 12.4876 531.372 12.0498C530.562 11.5906 529.643 11.3595 528.712 11.381C527.77 11.3592 526.839 11.5902 526.017 12.0498C525.256 12.4853 524.627 13.1196 524.198 13.8847C523.749 14.7532 523.525 15.7199 523.546 16.697V17.3144C523.524 18.3131 523.78 19.2982 524.284 20.161C524.777 20.9828 525.499 21.6439 526.36 22.0645C527.324 22.5245 528.382 22.7535 529.45 22.7333C530.375 22.7477 531.294 22.5907 532.162 22.2703C532.982 21.9518 533.716 21.4469 534.307 20.7955L536.555 23.3677C535.738 24.326 534.702 25.0731 533.535 25.5456C532.198 26.054 530.776 26.2986 529.347 26.2658Z" fill="#BFBFBF"/>
<path d="M541.791 26.0428V8.13981H545.773V13.0614L545.309 11.6209C545.817 10.4488 546.706 9.48208 547.832 8.87719C549.168 8.21181 550.648 7.88775 552.14 7.93403V11.9296C551.977 11.8858 551.811 11.8571 551.643 11.8439H551.162C550.472 11.8103 549.781 11.916 549.133 12.1546C548.484 12.3932 547.89 12.76 547.386 13.2329C546.881 13.7929 546.494 14.4492 546.249 15.1624C546.005 15.8756 545.907 16.6309 545.962 17.3828V26.0599L541.791 26.0428Z" fill="#BFBFBF"/>
<defs>
<radialGradient id="paint0_radial_1089_2068" cx="0" cy="0" r="1" gradientUnits="userSpaceOnUse" gradientTransform="translate(90.3028 197.336) scale(79.6358 79.5687)">
<stop offset="0.68" stop-color="#ACC2D4"/>
<stop offset="0.72" stop-color="#BBCDDC"/>
<stop offset="0.84" stop-color="#E0E8EF"/>
<stop offset="0.94" stop-color="#F7F9FB"/>
<stop offset="1" stop-color="white"/>
</radialGradient>
<linearGradient id="paint1_linear_1089_2068" x1="28.5176" y1="185.331" x2="154.013" y2="185.331" gradientUnits="userSpaceOnUse">
<stop stop-color="#006FFF"/>
<stop offset="1" stop-color="#0B44FF"/>
</linearGradient>
<radialGradient id="paint2_radial_1089_2068" cx="0" cy="0" r="1" gradientUnits="userSpaceOnUse" gradientTransform="translate(290.938 197.336) scale(79.6358 79.5687)">
<stop offset="0.68" stop-color="#ACC2D4"/>
<stop offset="0.72" stop-color="#BBCDDC"/>
<stop offset="0.84" stop-color="#E0E8EF"/>
<stop offset="0.94" stop-color="#F7F9FB"/>
<stop offset="1" stop-color="white"/>
</radialGradient>
<linearGradient id="paint3_linear_1089_2068" x1="229.152" y1="185.331" x2="354.647" y2="185.331" gradientUnits="userSpaceOnUse">
<stop stop-color="#006FFF"/>
<stop offset="1" stop-color="#0B44FF"/>
</linearGradient>
<radialGradient id="paint4_radial_1089_2068" cx="0" cy="0" r="1" gradientUnits="userSpaceOnUse" gradientTransform="translate(491.571 197.336) scale(79.6358 79.5687)">
<stop offset="0.68" stop-color="#ACC2D4"/>
<stop offset="0.72" stop-color="#BBCDDC"/>
<stop offset="0.84" stop-color="#E0E8EF"/>
<stop offset="0.94" stop-color="#F7F9FB"/>
<stop offset="1" stop-color="white"/>
</radialGradient>
<linearGradient id="paint5_linear_1089_2068" x1="429.804" y1="185.331" x2="555.299" y2="185.331" gradientUnits="userSpaceOnUse">
<stop stop-color="#006FFF"/>
<stop offset="1" stop-color="#0B44FF"/>
</linearGradient>
</defs>
</svg>
