<svg width="156" height="35" viewBox="0 0 156 35" fill="none" xmlns="http://www.w3.org/2000/svg">
    <g clip-path="url(#clip0_41_87)">
        <path d="M1.45288 12.3545H7.98197V34.8453H1.45288V12.3545Z" fill="white" />
        <path
            d="M26.4716 12.021C29.262 12.021 31.5083 12.8571 33.2103 14.5293C34.9403 16.2014 35.8052 18.6818 35.8052 21.9704V34.8461H29.276V22.9737C29.276 21.19 28.8854 19.8662 28.1041 19.0023C27.3228 18.1105 26.1929 17.6646 24.714 17.6646C23.0677 17.6646 21.7563 18.1801 20.7797 19.2113C19.8032 20.2146 19.3147 21.7195 19.3147 23.7261V34.8461H12.7856V12.3554H19.0218V14.9891C19.8867 14.0415 20.961 13.3169 22.2444 12.8153C23.528 12.2858 24.9372 12.021 26.4716 12.021Z"
            fill="white" />
        <path d="M4.64431 0L9.28859 4.63882L4.64431 9.27759L0 4.63882L4.64431 0Z" fill="white" />
        <path
            d="M58.3023 34.7286C49.5448 34.7286 42.8804 28.755 42.8804 20.0079C42.8804 11.2181 49.5448 5.28711 58.3023 5.28711C65.1801 5.28711 68.854 9.16998 70.7338 12.9248L64.4112 15.9117C63.4713 13.6502 61.0363 11.7728 58.3023 11.7728C53.6457 11.7728 50.3564 15.357 50.3564 20.0079C50.3564 24.6588 53.6457 28.2429 58.3023 28.2429C61.0363 28.2429 63.4713 26.3656 64.4112 24.1041L70.7338 27.091C68.8968 30.7603 65.1801 34.7286 58.3023 34.7286Z"
            fill="white" />
        <path
            d="M87.7096 34.7286C78.9949 34.7286 72.4587 28.6697 72.4587 20.0079C72.4587 11.3461 78.9949 5.28711 87.7096 5.28711C96.4243 5.28711 102.918 11.3461 102.918 20.0079C102.918 28.6697 96.4243 34.7286 87.7096 34.7286ZM87.7096 28.2429C92.4088 28.2429 95.4419 24.6161 95.4419 20.0079C95.4419 15.357 92.4088 11.7728 87.7096 11.7728C82.9678 11.7728 79.9345 15.357 79.9345 20.0079C79.9345 24.6161 82.9678 28.2429 87.7096 28.2429Z"
            fill="white" />
        <path
            d="M130.926 34.2167H122.51L117.726 24.6587H113.966V34.2167H106.618V5.75635H120.887C127.209 5.75635 130.798 9.93791 130.798 15.2289C130.798 20.1785 127.765 22.824 125.116 23.7627L130.926 34.2167ZM119.776 18.2584C121.698 18.2584 123.322 17.1917 123.322 15.1862C123.322 13.2661 121.698 12.1567 119.776 12.1567H113.966V18.2584H119.776Z"
            fill="white" />
        <path
            d="M155.752 34.2167H134.862V5.75635H155.752V12.1567H142.209V16.5943H147.925V22.9946H142.209V27.8161H155.752V34.2167Z"
            fill="white" />
        <path
            d="M58.0133 26.9629C56.2578 26.9629 54.5742 26.2391 53.333 24.9506C52.0917 23.6622 51.3943 21.9147 51.3943 20.0925C51.3943 18.2704 52.0917 16.5229 53.333 15.2345C54.5742 13.946 56.2578 13.2222 58.0133 13.2222V20.0925V26.9629Z"
            fill="white" />
        <path
            d="M87.8636 26.7037C91.5192 26.7037 94.4826 23.7438 94.4826 20.0926C94.4826 16.4413 91.5192 13.4814 87.8636 13.4814C84.208 13.4814 81.2446 16.4413 81.2446 20.0926C81.2446 23.7438 84.208 26.7037 87.8636 26.7037Z"
            fill="white" />
        <path
            d="M115.248 13.2168H119.985C121.096 13.2168 121.997 14.1164 121.997 15.2261C121.997 16.3357 121.096 17.2353 119.985 17.2353H115.248V13.2168Z"
            fill="white" />
        <path d="M148.732 16.5869H152.885V22.9899H148.732V16.5869Z" fill="white" />
    </g>
    <defs>
        <clipPath id="clip0_41_87">
            <rect width="156" height="35" fill="white" />
        </clipPath>
    </defs>
</svg>