<svg width="471" height="160" viewBox="0 0 471 160" fill="none" xmlns="http://www.w3.org/2000/svg">
<g clip-path="url(#clip0_1104_58)">
<path d="M4.97314 45.9336H28.9551V128.642H4.97314V45.9336Z" fill="white"/>
<path d="M96.8711 44.707C107.12 44.707 115.371 47.7817 121.623 53.931C127.977 60.0803 131.154 69.2018 131.154 81.2955V128.646H107.172V84.9851C107.172 78.4258 105.737 73.5576 102.867 70.3804C99.9971 67.1008 95.8471 65.461 90.4151 65.461C84.3681 65.461 79.5511 67.357 75.9641 71.1491C72.3771 74.8387 70.5831 80.3731 70.5831 87.7523V128.646H46.6011V45.9368H69.5071V55.622C72.6841 52.1374 76.6301 49.4727 81.3441 47.6279C86.0591 45.6806 91.2351 44.707 96.8711 44.707Z" fill="white"/>
<path d="M233.427 14.5742V128.645H210.521V119.113C204.577 126.287 195.968 129.874 184.694 129.874C176.905 129.874 169.833 128.132 163.479 124.648C157.227 121.163 152.307 116.192 148.72 109.735C145.133 103.279 143.34 95.7965 143.34 87.29C143.34 78.7834 145.133 71.3017 148.72 64.8449C152.307 58.3881 157.227 53.4174 163.479 49.9328C169.833 46.4482 176.905 44.7059 184.694 44.7059C195.25 44.7059 203.501 48.0368 209.445 54.6985V14.5742H233.427ZM188.845 110.197C194.892 110.197 199.914 108.147 203.911 104.047C207.908 99.8449 209.906 94.2592 209.906 87.29C209.906 80.3207 207.908 74.7863 203.911 70.6868C199.914 66.4848 194.892 64.3837 188.845 64.3837C182.695 64.3837 177.622 66.4848 173.625 70.6868C169.628 74.7863 167.63 80.3207 167.63 87.29C167.63 94.2592 169.628 99.8449 173.625 104.047C177.622 108.147 182.695 110.197 188.845 110.197Z" fill="white"/>
<path d="M251.012 45.9336H274.994V128.642H251.012V45.9336Z" fill="white"/>
<path d="M16.6972 0.5L33.7562 17.5591L16.6972 34.6181L-0.361816 17.5591L16.6972 0.5Z" fill="white"/>
<path d="M263.141 0.5L280.2 17.5591L263.141 34.6181L246.082 17.5591L263.141 0.5Z" fill="white"/>
<path d="M298.289 64.2494H286.612V46.1039H298.289V36.3211C298.289 28.3266 300.392 22.3307 304.6 18.3334C308.808 14.231 314.961 12.1797 323.061 12.1797H338.209V30.3252H321.641V46.1039H338.209V64.2494H321.641V128.942H298.289V64.2494Z" fill="#FF681E"/>
<path d="M374.394 128.942C366.399 128.942 360.508 126.996 356.721 123.104C353.04 119.211 351.199 113.584 351.199 106.22V12.1797H374.551V110.796H384.965V128.942H374.394Z" fill="#FF681E"/>
<path d="M448.691 46.1055H470.466L438.593 141.724C436.489 148.141 433.491 152.875 429.599 155.925C425.812 158.976 420.342 160.501 413.189 160.501H398.673V142.356H414.294L417.134 133.204L388.101 46.1055H411.296L423.446 84.7633L429.441 108.747H430.388L436.542 84.7633L448.691 46.1055Z" fill="#FF681E"/>
</g>
<defs>
<clipPath id="clip0_1104_58">
<rect width="471" height="160" fill="white"/>
</clipPath>
</defs>
</svg>
