<svg width="1554" height="628" viewBox="0 0 1554 628" fill="none" xmlns="http://www.w3.org/2000/svg">
<rect width="1440" height="628" transform="translate(73)" fill="url(#paint0_linear_31_4595)"/>
<path d="M1452.15 324.186L1425.38 456.518L1297.39 499.499L1324.16 367.165L1452.15 324.186Z" stroke="#172E4A" stroke-miterlimit="10" stroke-linejoin="round"/>
<path d="M1452.15 324.187L1425.38 456.518L1526.59 545.872L1553.37 413.539L1452.15 324.187Z" stroke="#172E4A" stroke-miterlimit="10" stroke-linejoin="round"/>
<path d="M1349.61 481.961L1365.46 403.624L1441.23 378.181L1501.14 431.076L1485.3 509.413L1409.53 534.856L1349.61 481.961Z" fill="#091E36"/>
<path d="M1297.39 499.499L1324.16 367.166L1452.15 324.187L1553.37 413.539L1526.59 545.873L1398.6 588.852L1297.39 499.499Z" stroke="#172E4A" stroke-miterlimit="10" stroke-linejoin="round"/>
<path d="M1324.16 367.166L1425.38 456.518L1553.37 413.539L1452.15 324.187L1324.16 367.166Z" stroke="#172E4A" stroke-miterlimit="10" stroke-linejoin="round"/>
<path d="M1425.38 456.519L1398.6 588.852L1526.59 545.873L1553.37 413.539L1425.38 456.519Z" stroke="#172E4A" stroke-miterlimit="10" stroke-linecap="round" stroke-linejoin="round"/>
<path d="M41.5443 201.566L103.397 284.177L62.7805 379.051L0.926597 296.439L41.5443 201.566Z" stroke="#132E52" stroke-miterlimit="10" stroke-linejoin="round"/>
<path d="M41.5443 201.567L103.397 284.177L205.868 271.918L144.014 189.306L41.5443 201.567Z" stroke="#132E52" stroke-miterlimit="10" stroke-linejoin="round"/>
<path d="M79.3534 340.339L42.7379 291.436L66.7818 235.274L127.441 228.016L164.057 276.919L140.013 333.081L79.3534 340.339Z" fill="#061B36"/>
<path d="M62.7806 379.051L0.926639 296.439L41.5443 201.567L144.014 189.306L205.868 271.918L165.251 366.789L62.7806 379.051Z" stroke="#132E52" stroke-miterlimit="10" stroke-linejoin="round"/>
<path d="M0.926527 296.439L103.397 284.178L144.014 189.306L41.5442 201.567L0.926527 296.439Z" stroke="#132E52" stroke-miterlimit="10" stroke-linejoin="round"/>
<path d="M103.398 284.177L165.251 366.789L205.868 271.918L144.014 189.306L103.398 284.177Z" stroke="#132E52" stroke-miterlimit="10" stroke-linecap="round" stroke-linejoin="round"/>
<defs>
<linearGradient id="paint0_linear_31_4595" x1="720" y1="0" x2="720" y2="628" gradientUnits="userSpaceOnUse">
<stop stop-color="#07172C" stop-opacity="0"/>
<stop offset="0.375" stop-color="#07172C"/>
</linearGradient>
</defs>
</svg>
