<svg width="156" height="35" viewBox="0 0 156 35" fill="none" xmlns="http://www.w3.org/2000/svg">
<g clip-path="url(#clip0_8_103)">
<path d="M1.45294 12.3544H7.98203V34.8452H1.45294V12.3544Z" fill="white"/>
<path d="M26.4717 12.0209C29.2621 12.0209 31.5084 12.857 33.2103 14.5291C34.9404 16.2013 35.8052 18.6817 35.8052 21.9702V34.846H29.2761V22.9735C29.2761 21.1899 28.8854 19.8661 28.1041 19.0022C27.3228 18.1103 26.1929 17.6644 24.714 17.6644C23.0677 17.6644 21.7563 18.18 20.7798 19.2112C19.8032 20.2145 19.3148 21.7194 19.3148 23.726V34.846H12.7857V12.3553H19.0218V14.989C19.8868 14.0414 20.9611 13.3168 22.2445 12.8151C23.5281 12.2856 24.9373 12.0209 26.4717 12.0209Z" fill="white"/>
<path d="M4.64431 0L9.28859 4.63882L4.64431 9.27759L0 4.63882L4.64431 0Z" fill="white"/>
<path d="M58.3022 34.7286C49.5446 34.7286 42.8802 28.755 42.8802 20.0079C42.8802 11.2181 49.5446 5.28711 58.3022 5.28711C65.1799 5.28711 68.8539 9.16998 70.7336 12.9248L64.4111 15.9117C63.4712 13.6502 61.0362 11.7728 58.3022 11.7728C53.6455 11.7728 50.3563 15.357 50.3563 20.0079C50.3563 24.6588 53.6455 28.2429 58.3022 28.2429C61.0362 28.2429 63.4712 26.3656 64.4111 24.1041L70.7336 27.091C68.8967 30.7603 65.1799 34.7286 58.3022 34.7286Z" fill="white"/>
<path d="M87.7096 34.7286C78.9949 34.7286 72.4587 28.6697 72.4587 20.0079C72.4587 11.3461 78.9949 5.28711 87.7096 5.28711C96.4243 5.28711 102.918 11.3461 102.918 20.0079C102.918 28.6697 96.4243 34.7286 87.7096 34.7286ZM87.7096 28.2429C92.4088 28.2429 95.4419 24.6161 95.4419 20.0079C95.4419 15.357 92.4088 11.7728 87.7096 11.7728C82.9678 11.7728 79.9345 15.357 79.9345 20.0079C79.9345 24.6161 82.9678 28.2429 87.7096 28.2429Z" fill="white"/>
<path d="M130.926 34.2167H122.51L117.726 24.6588H113.966V34.2167H106.618V5.75641H120.887C127.209 5.75641 130.798 9.93797 130.798 15.2289C130.798 20.1785 127.765 22.824 125.116 23.7627L130.926 34.2167ZM119.776 18.2584C121.698 18.2584 123.322 17.1917 123.322 15.1863C123.322 13.2662 121.698 12.1568 119.776 12.1568H113.966V18.2584H119.776Z" fill="white"/>
<path d="M155.752 34.2167H134.862V5.75641H155.752V12.1568H142.209V16.5943H147.925V22.9947H142.209V27.8162H155.752V34.2167Z" fill="white"/>
<path d="M58.0133 26.963C56.2579 26.963 54.5743 26.2391 53.3331 24.9507C52.0918 23.6622 51.3943 21.9147 51.3943 20.0926C51.3943 18.2705 52.0918 16.523 53.3331 15.2345C54.5743 13.9461 56.2579 13.2222 58.0133 13.2222V20.0926V26.963Z" fill="white"/>
<path d="M87.8635 26.7037C91.5191 26.7037 94.4825 23.7438 94.4825 20.0926C94.4825 16.4414 91.5191 13.4815 87.8635 13.4815C84.208 13.4815 81.2446 16.4414 81.2446 20.0926C81.2446 23.7438 84.208 26.7037 87.8635 26.7037Z" fill="white"/>
<path d="M115.248 13.2167H119.985C121.096 13.2167 121.997 14.1163 121.997 15.2259C121.997 16.3356 121.096 17.2352 119.985 17.2352H115.248V13.2167Z" fill="white"/>
<path d="M148.732 16.587H152.885V22.99H148.732V16.587Z" fill="white"/>
</g>
<defs>
<clipPath id="clip0_8_103">
<rect width="156" height="35" fill="white"/>
</clipPath>
</defs>
</svg>
