<svg width="229" height="312" viewBox="0 0 229 312" fill="none" xmlns="http://www.w3.org/2000/svg">
<path d="M168.152 23.1869L141.378 155.519L13.3867 198.5L40.1605 66.1659L168.152 23.1869Z" stroke="#172E4A" stroke-miterlimit="10" stroke-linejoin="round"/>
<path d="M168.152 23.187L141.379 155.519L242.594 244.873L269.368 112.539L168.152 23.187Z" stroke="#172E4A" stroke-miterlimit="10" stroke-linejoin="round"/>
<path d="M65.6116 180.961L81.4609 102.624L157.227 77.1813L217.145 130.076L201.295 208.413L125.529 233.856L65.6116 180.961Z" fill="#091E36"/>
<path d="M13.3866 198.5L40.1604 66.166L168.151 23.1871L269.367 112.539L242.593 244.873L114.604 287.852L13.3866 198.5Z" stroke="#172E4A" stroke-miterlimit="10" stroke-linejoin="round"/>
<path d="M40.1606 66.1657L141.378 155.518L269.367 112.539L168.152 23.1868L40.1606 66.1657Z" stroke="#172E4A" stroke-miterlimit="10" stroke-linejoin="round"/>
<path d="M141.379 155.519L114.605 287.852L242.594 244.873L269.368 112.539L141.379 155.519Z" stroke="#172E4A" stroke-miterlimit="10" stroke-linecap="round" stroke-linejoin="round"/>
</svg>
