<svg width="181" height="208" viewBox="0 0 181 208" fill="none" xmlns="http://www.w3.org/2000/svg">
<path d="M90.3756 1.00005L90.3756 104.2L1.00003 155.802L1.00003 52.6002L90.3756 1.00005Z" stroke="#132E52" stroke-miterlimit="10" stroke-linejoin="round"/>
<path d="M90.3757 1.00011L90.3757 104.2L179.75 155.802V52.6003L90.3757 1.00011Z" stroke="#132E52" stroke-miterlimit="10" stroke-linejoin="round"/>
<path d="M37.4682 134.747L37.4682 73.6545L90.3755 43.1084L143.283 73.6545V134.747L90.3755 165.293L37.4682 134.747Z" fill="#061B36"/>
<path d="M0.999878 155.802L0.999878 52.6004L90.3755 1.00023L179.75 52.6004V155.802L90.3755 207.403L0.999878 155.802Z" stroke="#132E52" stroke-miterlimit="10" stroke-linejoin="round"/>
<path d="M1.00003 52.6002L90.3756 104.2L179.75 52.6002L90.3756 1.00007L1.00003 52.6002Z" stroke="#132E52" stroke-miterlimit="10" stroke-linejoin="round"/>
<path d="M90.3759 104.201L90.3759 207.402L179.75 155.802V52.6003L90.3759 104.201Z" stroke="#132E52" stroke-miterlimit="10" stroke-linecap="round" stroke-linejoin="round"/>
</svg>
