<svg width="245" height="243" viewBox="0 0 245 243" fill="none" xmlns="http://www.w3.org/2000/svg">
<path d="M18.7437 -10.0482L90.2789 85.4941L43.3042 195.219L-28.2322 99.6752L18.7437 -10.0482Z" stroke="#EB7033" stroke-miterlimit="10" stroke-linejoin="round"/>
<path d="M18.7439 -10.0484L90.2791 85.4939L208.79 71.3153L137.254 -24.2286L18.7439 -10.0484Z" stroke="#EB7033" stroke-miterlimit="10" stroke-linejoin="round"/>
<path d="M62.4714 150.447L20.1242 93.8885L47.9319 28.9354L118.087 20.5412L160.434 77.1L132.626 142.053L62.4714 150.447Z" fill="#FF6115"/>
<path d="M43.3042 195.219L-28.2322 99.6755L18.7437 -10.048L137.253 -24.2282L208.79 71.3157L161.815 181.038L43.3042 195.219Z" stroke="#EB7033" stroke-miterlimit="10" stroke-linejoin="round"/>
<path d="M-28.232 99.6752L90.2791 85.4941L137.254 -24.2284L18.7439 -10.0482L-28.232 99.6752Z" stroke="#EB7033" stroke-miterlimit="10" stroke-linejoin="round"/>
<path d="M90.2791 85.494L161.815 181.038L208.79 71.3153L137.254 -24.2286L90.2791 85.494Z" stroke="#EB7033" stroke-miterlimit="10" stroke-linecap="round" stroke-linejoin="round"/>
</svg>
