<svg width="417" height="402" viewBox="0 0 417 402" fill="none" xmlns="http://www.w3.org/2000/svg">
<path d="M108.839 56.4853L206.393 186.779L142.333 336.413L44.7768 206.118L108.839 56.4853Z" stroke="white" stroke-miterlimit="10" stroke-linejoin="round"/>
<path d="M108.839 56.4851L206.393 186.778L368.009 167.443L270.453 37.1473L108.839 56.4851Z" stroke="white" stroke-miterlimit="10" stroke-linejoin="round"/>
<path d="M168.471 275.357L110.721 198.226L148.643 109.648L244.315 98.2009L302.065 175.331L264.143 263.909L168.471 275.357Z" fill="#FFDCCA"/>
<path d="M142.333 336.413L44.7771 206.118L108.839 56.4855L270.453 37.1477L368.009 167.443L303.949 317.074L142.333 336.413Z" stroke="white" stroke-miterlimit="10" stroke-linejoin="round"/>
<path d="M44.7771 206.118L206.393 186.779L270.453 37.1475L108.839 56.4853L44.7771 206.118Z" stroke="white" stroke-miterlimit="10" stroke-linejoin="round"/>
<path d="M206.394 186.778L303.949 317.074L368.009 167.443L270.454 37.1473L206.394 186.778Z" stroke="white" stroke-miterlimit="10" stroke-linecap="round" stroke-linejoin="round"/>
</svg>
