<svg width="348" height="78" viewBox="0 0 348 78" fill="none" xmlns="http://www.w3.org/2000/svg">
<path d="M4.50126 59.3711C6.41394 60.0062 9.92761 59.8721 10.8706 59.1699C8.74734 59.0858 6.62266 58.7674 4.50126 59.3711ZM339.661 26.7241C339.407 26.7774 339.155 26.8684 338.899 26.8787C336.467 26.9819 334.033 27.0426 331.602 27.1832C331.027 27.2159 330.282 27.3279 329.934 27.7015C329.093 28.6017 328.102 28.7493 326.98 28.8109C325.446 28.894 325.2 29.1187 324.345 30.7819C326.265 31.8858 328.394 31.1274 330.342 31.5229C330.102 31.7158 329.82 31.9413 329.28 32.3742C330.289 32.7449 331.043 33.2156 331.827 33.2726C333.995 33.4295 336.176 33.4132 338.35 33.4678C338.955 33.4832 339.569 33.4552 340.164 33.5444C341.715 33.7774 343.133 33.33 344.733 32.879C344.417 32.4802 344.212 32.222 343.879 31.8017C345.163 31.8017 346.328 31.8017 347.49 31.8017C346.961 33.7433 346.819 33.8684 345.009 33.9319C343.495 33.9852 341.98 34.0108 340.468 34.101C339.93 34.1336 339.341 34.2055 338.878 34.4516C337.072 35.4121 335.153 35.443 333.196 35.2982C332.895 35.2758 332.528 35.0969 332.308 35.2118C330.57 36.1182 328.704 35.4733 326.93 35.7348C325.665 35.9216 324.451 36.4553 323.214 36.8335C323.217 36.9755 323.221 37.1184 323.224 37.2603C323.877 37.4069 324.528 37.5643 325.182 37.6997C327.711 38.2217 330.16 39.0445 332.845 38.805C335.375 38.579 337.942 38.7559 340.845 38.7559C340.322 39.0352 340.097 39.2448 339.851 39.2724C337.314 39.5581 334.775 39.8421 332.232 40.0606C331.452 40.1283 330.655 39.9859 329.865 39.9532C328.956 39.9149 328.033 39.7767 327.14 39.8813C323.515 40.3053 319.901 40.824 316.279 41.2648C315.138 41.4035 313.978 41.3858 312.83 41.4824C311.683 41.5786 310.523 41.6473 309.401 41.8821C308.541 42.0614 307.86 42.5788 307.983 43.8564C311.817 44.0039 315.599 43.6677 319.65 43.3026C318.714 44.5479 317.494 44.5666 316.472 44.7006C311.229 45.3842 305.971 45.9464 300.72 46.5539C300.479 46.5815 300.216 46.5735 300.007 46.6739C299.811 46.7692 299.53 46.9947 299.54 47.1455C299.558 47.4066 299.714 47.7829 299.919 47.8772C300.282 48.043 300.725 48.0841 301.136 48.0892C302.834 48.1098 304.532 48.0976 306.358 48.0976C306.031 48.7822 305.765 49.3421 305.458 49.986C306.945 50.7718 308.42 50.2956 309.829 50.3894C311.192 50.4791 312.567 50.4081 313.947 50.6364C310.635 51.5017 307.111 50.6981 303.872 51.9415C303.692 52.9543 304.142 53.2733 304.957 53.2863C306.297 53.3069 307.636 53.3601 308.975 53.3583C312.508 53.3517 316.041 53.2933 319.573 53.3223C320.535 53.3307 321.491 53.5908 322.455 53.7075C323.78 53.8696 325.108 54.1329 326.434 54.1287C331.056 54.1133 335.677 53.9905 340.298 53.9391C341.01 53.9312 341.725 54.0806 342.443 54.3267C340.179 55.1639 337.78 54.8394 335.466 55.1761C333.099 55.5188 330.703 55.6603 328.319 55.89C328.307 56.0521 328.296 56.2155 328.284 56.3775C328.699 56.462 329.114 56.6185 329.53 56.6199C332.564 56.6278 335.599 56.5872 338.635 56.6003C340.131 56.6063 341.66 56.3729 343.444 57.1055C339.712 57.3576 336.329 57.5864 332.8 57.825C333 59.5481 331.899 59.9795 330.506 60.1593C328.397 60.432 326.29 60.7351 324.188 61.0624C323.289 61.2025 322.38 61.3636 321.522 61.6535C321.021 61.8235 320.612 62.2662 320.228 62.7994C321.97 63.4153 323.697 63.1646 325.551 63.187C325.183 64.0873 324.468 64.0513 323.888 64.1106C321.889 64.3137 319.882 64.4351 317.883 64.6312C317.1 64.7088 316.318 64.8638 315.562 65.0739C315.355 65.1313 315.102 65.5334 315.124 65.7514C315.147 65.9737 315.459 66.3029 315.687 66.3417C316.4 66.4631 317.132 66.4701 318.192 66.5448C316.002 67.5907 313.857 67.3946 311.873 67.8961C309.934 68.3859 308.005 68.9159 306.09 69.5986C307.502 70.1921 308.9 69.8704 310.326 69.6911C311.812 69.5052 313.324 69.5244 314.915 69.7588C314.659 69.8937 314.409 70.1305 314.145 70.1459C312.029 70.2743 309.889 70.2126 307.794 70.4895C301.821 71.2796 295.791 70.9906 289.81 71.635C278.419 72.8621 266.967 73.1381 255.531 73.6256C253.342 73.718 251.148 73.6391 248.957 73.6802C248.175 73.6947 247.396 73.8287 246.616 73.9127C246.321 73.9445 246.025 74.036 245.734 74.0215C244.044 73.9365 242.354 73.7488 240.664 73.7404C233.783 73.7068 226.901 73.7428 220.019 73.7161C217.047 73.7049 214.075 73.6045 211.103 73.549C210.859 73.5448 210.605 73.5359 210.375 73.5999C206.722 74.6047 202.995 73.9828 199.307 74.0467C189.685 74.213 180.06 74.2326 170.437 74.3054C163.858 74.3544 157.278 74.3885 150.699 74.4385C146.322 74.4717 141.944 74.5328 137.565 74.5585C128.434 74.6127 119.302 74.6598 110.172 74.692C106.091 74.7079 102.01 74.6631 97.9294 74.6897C96.9798 74.6958 96.0298 74.8802 95.0784 74.983C94.8463 75.893 95.1781 76.3511 95.8417 76.5131C96.4253 76.6556 97.0449 76.6742 97.65 76.6957C101.667 76.8381 105.684 76.9633 109.702 77.1048C109.917 77.1127 110.129 77.2122 110.344 77.6212C108.408 77.7547 106.471 77.9985 104.535 77.9999C99.5449 78.0036 94.5542 77.9093 89.5631 77.8365C86.0359 77.7856 82.5053 77.7823 78.9833 77.6212C73.1512 77.3546 67.3163 77.0716 61.4964 76.6191C56.5839 76.2386 51.6938 75.5825 46.7893 75.0918C39.2809 74.3404 31.7673 73.6349 24.2584 72.891C22.8062 72.7482 21.3601 72.5334 19.9159 72.319C19.5237 72.2607 19.1493 72.0818 18.7665 71.9581C18.7647 71.8339 18.7623 71.7092 18.7605 71.5841C19.4241 71.5378 20.0947 71.4108 20.7522 71.4589C23.6608 71.6732 26.5656 71.9385 29.4723 72.1878C29.5925 72.1981 29.7147 72.2625 29.8307 72.2504C31.6662 72.0697 33.5003 71.8801 35.288 71.6966C34.4245 71.0223 32.261 70.6483 28.2382 70.3485C25.6895 70.1585 23.1549 69.8055 20.6113 69.5444C18.1778 69.2951 15.741 69.0705 13.306 68.8352C13.3023 68.6941 13.2981 68.5531 13.2948 68.4126C14.7376 68.2898 16.1809 68.1684 17.8923 68.0231C16.5515 66.3389 14.7362 67.5394 13.2302 66.7348C14.7844 66.0933 16.4088 66.8044 17.8128 65.8047C16.6433 65.0482 15.4822 65.3704 14.3707 65.3036C13.219 65.235 12.0644 65.1159 10.9272 64.9245C9.86068 64.7447 8.70897 65.4708 7.70326 64.5626C12.5727 64.5593 17.3827 63.9126 22.2348 63.8239C22.2512 63.6726 22.2676 63.5208 22.2839 63.3686C22.0088 63.2066 21.7495 62.9432 21.4561 62.8989C20.1513 62.7032 18.8395 62.5342 17.5254 62.4231C14.8691 62.1975 12.2615 61.5882 9.55977 61.6619C7.68406 61.7128 5.8004 61.3449 3.91674 61.2305C2.50856 61.145 1.41394 60.5978 0.510254 59.2693C0.934253 59.0849 1.2712 58.8304 1.62547 58.8038C4.04919 58.6175 6.47571 58.4811 8.9013 58.3251C10.6609 58.2117 12.3766 58.1141 13.8784 56.8963C14.4587 56.4252 15.4733 56.4093 16.304 56.3369C21.0859 55.9246 25.8706 55.5422 30.6568 55.1784C34.0501 54.9211 37.4464 54.6792 40.8444 54.4939C41.8679 54.4383 42.9031 54.6372 43.9336 54.6465C45.0835 54.6578 46.238 54.6241 47.3846 54.535C48.0852 54.4813 48.6482 54.1586 48.7076 53.0496C45.902 52.8824 43.146 52.7176 40.3053 52.549C41.172 51.2374 42.4482 50.7513 43.906 50.5841C46.9063 50.2409 49.8794 49.6199 52.9265 49.738C53.4282 49.7572 53.9364 49.6176 54.4419 49.5512C54.4494 49.4322 54.4573 49.3126 54.4648 49.1936C54.1737 49.0824 53.8751 48.8592 53.5915 48.8756C51.7158 48.9862 49.8439 49.1525 47.97 49.2921C44.4526 49.5545 40.9357 49.8258 37.4164 50.0649C35.5983 50.1886 33.7764 50.3371 31.9573 50.3189C30.1378 50.3002 28.3145 50.1569 26.7069 49.0899C26.3863 48.8774 25.8898 48.9297 25.4756 48.855C21.9475 48.2204 18.4193 47.5873 14.8944 46.9382C14.7484 46.9116 14.6295 46.7314 14.4629 46.5927C15.0783 45.9072 15.6937 46.3461 16.3246 46.4442C18.5265 46.7855 20.7429 47.2964 22.9415 46.4363C23.4179 46.2495 23.8526 45.9567 24.2813 45.5005C19.9562 45.4641 15.7475 44.9107 11.5557 43.7803C11.9325 43.6799 12.3027 43.5314 12.685 43.4903C13.2901 43.4259 13.9074 43.4768 14.5102 43.3992C15.2468 43.3054 16.2586 43.6215 16.5075 42.569C16.7518 41.5408 15.6371 41.595 15.1359 41.156C15.097 41.1224 15.0816 41.0631 15.0301 40.9716C15.3858 40.7022 15.7466 40.4285 16.3634 39.9607C15.4892 39.7426 14.8888 39.5922 14.1138 39.3985C14.3061 39.066 14.4058 38.6336 14.622 38.564C15.4873 38.2885 16.3905 38.1335 17.2769 37.9201C19.2041 37.455 21.1294 36.982 23.2794 36.4576C22.5203 35.5004 21.6428 35.3505 20.9946 35.4672C19.9089 35.6634 18.6322 35.3188 17.7463 36.3376C17.649 36.4483 17.3457 36.4123 17.1426 36.3932C16.866 36.3684 16.5394 36.1686 16.3264 36.2596C13.6514 37.4027 10.9436 36.7672 8.26531 36.3712C7.44352 36.2494 6.69146 35.6531 5.72178 35.1847C7.66207 34.3592 11.0265 33.6835 12.5142 33.7381C13.5438 33.776 14.491 33.4963 15.7967 32.8514C13.6238 32.2066 11.837 33.0251 9.8897 32.7842C10.7321 31.6285 11.6854 30.8179 12.9592 30.6189C14.8144 30.3299 15.594 28.6872 17.0294 27.8953C16.9994 27.7603 16.9699 27.6258 16.94 27.4909C15.9586 27.4405 14.9365 27.539 14.0057 27.2952C13.095 27.058 12.2769 26.4706 11.3728 26.0135C11.6854 25.1291 11.9634 24.3437 12.2535 23.5228C10.7822 22.8195 10.2561 24.8545 8.91113 24.5416C8.60928 24.1027 8.27654 23.6171 7.9686 23.1693C8.65748 20.5315 11.2623 19.974 13.2199 18.702C13.1666 18.5923 13.1123 18.483 13.058 18.3742C12.7917 18.3486 12.5235 18.2892 12.2605 18.3075C11.969 18.328 11.6835 18.4209 11.3021 18.5013C11.0227 17.7322 10.7667 17.0252 10.4752 16.2225C11.677 15.7411 12.8525 15.2775 14.0216 14.7988C15.0938 14.3594 16.4785 15.1845 17.4454 13.9705C16.9372 13.0889 16.0681 13.2406 15.3394 13.1529C14.6571 13.0707 13.9565 13.1351 13.1872 12.8358C15.0016 12.0733 16.8548 11.3906 18.6229 10.5328C22.5315 8.63609 26.822 8.27141 30.9783 7.41643C36.6428 6.25093 42.3411 5.22739 48.0533 4.32012C53.885 3.39464 59.7339 2.52704 65.6058 1.91955C71.6513 1.2943 77.7314 1.02255 83.7956 0.576622C84.9693 0.489769 86.0204 1.03375 87.2742 0.893204C89.2313 0.674202 91.2549 1.08839 93.2518 1.14957C94.3366 1.18319 95.4322 1.09026 96.5132 0.966988C98.8078 0.703629 101.096 0.380028 103.388 0.0886536C103.688 0.0508347 104.068 -0.0710373 104.286 0.057373C106.089 1.11687 107.982 0.361343 109.833 0.383759C110.523 0.391228 111.213 0.384689 111.904 0.384689C111.923 0.507034 111.943 0.630783 111.962 0.75312C111.267 1.08418 110.573 1.41618 109.878 1.74818C109.898 1.87006 109.917 1.99098 109.937 2.11239C110.734 2.16235 111.534 2.18804 112.328 2.26695C113.111 2.34493 113.886 2.55273 114.668 2.57327C117.279 2.64285 119.893 2.72176 122.503 2.66992C126.085 2.59895 129.664 2.36316 133.247 2.29172C135.723 2.24222 138.203 2.35008 140.68 2.38604C140.924 2.38978 141.169 2.40144 141.409 2.37576C146.799 1.79861 152.195 1.79113 157.604 2.0755C159.637 2.1829 161.686 1.97372 163.729 1.95737C168.458 1.91955 173.187 1.91209 177.917 1.89388C178.161 1.89201 178.409 1.87331 178.647 1.91207C186.385 3.13687 194.199 2.74043 201.98 2.95989C214.338 3.30823 226.7 3.54032 239.06 3.792C242.342 3.85877 245.626 3.82188 248.909 3.81954C250.214 3.81861 250.446 4.0843 250.429 5.3656C250.424 5.71487 250.753 6.06837 250.97 6.50029C250.751 6.51897 250.367 6.55351 249.985 6.5862C248.292 6.72955 246.6 6.8673 244.909 7.02233C244.672 7.04474 244.392 7.08537 244.216 7.22311C242.555 8.52262 240.71 8.21117 238.859 7.86843C238.097 7.72741 236.389 8.20791 235.477 8.66178C235.108 8.84529 234.514 8.84155 234.125 8.67765C232.914 8.16775 231.696 7.95482 230.074 8.19063C229.908 8.62815 229.721 9.11892 229.466 9.79272C230.378 9.92207 231.143 10.1126 231.913 10.1289C240.495 10.3082 249.077 10.4268 257.658 10.6416C260.392 10.7103 263.116 11.1081 265.85 11.201C270.167 11.3467 274.491 11.3201 278.809 11.4513C280.993 11.5176 283.17 11.8221 285.354 11.9243C290.037 12.141 294.722 12.3245 299.408 12.4702C304.764 12.6383 310.122 12.756 315.48 12.883C316.681 12.911 317.882 12.8872 319.016 12.8872C319.399 13.666 319.211 14.1026 318.512 14.225C318.038 14.3085 317.539 14.2441 317.058 14.3057C316.76 14.3454 316.476 14.4967 316.203 14.7526C318.185 15.4857 320.298 14.7918 322.276 15.2326C322.278 15.3783 322.281 15.5235 322.284 15.6692C321.533 15.7687 320.784 15.9097 320.029 15.9611C317.552 16.1306 315.072 16.2627 312.595 16.4247C312.173 16.4523 311.726 16.485 311.343 16.6419C309.254 17.4954 307.05 17.5417 304.865 17.4586C300.845 17.3049 296.87 17.7714 292.881 18.0871C291.366 18.2071 289.837 18.1169 288.316 18.1781C287.76 18.2001 287.212 18.3812 286.659 18.4891C286.661 18.6203 286.664 18.7511 286.665 18.8813C286.972 18.9841 287.274 19.1657 287.583 19.1769C293.169 19.3777 298.756 19.5528 304.342 19.7475C305.132 19.7751 305.922 19.9464 306.708 19.9217C307.794 19.8881 308.642 20.3382 309.153 21.1927C309.543 21.8418 309.991 21.9506 310.642 21.9454C311.797 21.937 312.953 21.9711 314.109 22.0169C314.986 22.0519 315.922 21.8427 316.547 22.828C316.71 23.0862 317.329 23.0965 317.747 23.1488C319.193 23.3281 320.651 23.6582 322.086 23.5882C323.858 23.5004 325.12 24.4721 326.436 25.2888C327.114 25.7095 327.715 25.8365 328.458 25.8636C331.986 25.9911 335.512 26.1643 339.038 26.3263C339.242 26.3357 339.445 26.3992 339.649 26.4379C339.653 26.5332 339.656 26.6294 339.661 26.7241Z" fill="url(#paint0_linear_212_8549)"/>
<defs>
<linearGradient id="paint0_linear_212_8549" x1="0.510254" y1="78" x2="319.924" y2="-62.6162" gradientUnits="userSpaceOnUse">
<stop offset="0.298077" stop-color="#E04A00"/>
<stop offset="1" stop-color="#FF915C"/>
</linearGradient>
</defs>
</svg>
