<svg width="440" height="78" viewBox="0 0 440 78" fill="none" xmlns="http://www.w3.org/2000/svg">
<path d="M5.06094 59.3711C7.48637 60.0061 11.942 59.8721 13.1378 59.1698C10.4453 59.0858 7.75105 58.7673 5.06094 59.3711ZM430.072 26.7241C429.75 26.7774 429.43 26.8684 429.105 26.8787C426.021 26.9819 422.935 27.0426 419.853 27.1831C419.123 27.2158 418.178 27.3279 417.737 27.7015C416.671 28.6017 415.414 28.7493 413.992 28.8109C412.047 28.894 411.734 29.1186 410.65 30.7819C413.085 31.8858 415.784 31.1274 418.255 31.5229C417.95 31.7158 417.592 31.9413 416.908 32.3742C418.188 32.7449 419.144 33.2156 420.138 33.2726C422.887 33.4295 425.652 33.4131 428.41 33.4678C429.177 33.4832 429.955 33.4552 430.709 33.5443C432.676 33.7773 434.474 33.33 436.504 32.8789C436.103 32.4802 435.843 32.2219 435.42 31.8017C437.049 31.8017 438.526 31.8017 440 31.8017C439.329 33.7433 439.148 33.8684 436.854 33.9319C434.934 33.9851 433.013 34.0108 431.095 34.1009C430.413 34.1336 429.667 34.2055 429.079 34.4516C426.788 35.4121 424.355 35.4429 421.874 35.2982C421.493 35.2758 421.026 35.0969 420.747 35.2118C418.544 36.1181 416.178 35.4733 413.928 35.7348C412.324 35.9216 410.784 36.4553 409.216 36.8335C409.22 36.9755 409.225 37.1183 409.229 37.2603C410.056 37.4069 410.882 37.5643 411.712 37.6997C414.919 38.2217 418.024 39.0445 421.428 38.8049C424.637 38.5789 427.892 38.7559 431.573 38.7559C430.91 39.0352 430.625 39.2448 430.313 39.2724C427.095 39.5581 423.876 39.842 420.651 40.0606C419.662 40.1283 418.651 39.9859 417.649 39.9532C416.497 39.9149 415.327 39.7767 414.194 39.8813C409.597 40.3052 405.015 40.824 400.422 41.2648C398.975 41.4035 397.504 41.3858 396.048 41.4824C394.594 41.5786 393.122 41.6472 391.7 41.8821C390.609 42.0614 389.745 42.5788 389.901 43.8564C394.763 44.0039 399.56 43.6677 404.697 43.3026C403.51 44.5479 401.962 44.5666 400.666 44.7006C394.018 45.3842 387.351 45.9464 380.691 46.5539C380.386 46.5815 380.052 46.5735 379.787 46.6739C379.539 46.7692 379.182 46.9947 379.196 47.1455C379.218 47.4065 379.416 47.7829 379.676 47.8772C380.136 48.043 380.698 48.0841 381.219 48.0892C383.372 48.1098 385.526 48.0976 387.84 48.0976C387.427 48.7822 387.089 49.342 386.7 49.986C388.586 50.7718 390.456 50.2955 392.243 50.3894C393.971 50.479 395.714 50.4081 397.465 50.6364C393.265 51.5017 388.796 50.698 384.688 51.9415C384.46 52.9543 385.03 53.2733 386.064 53.2863C387.764 53.3069 389.462 53.3601 391.16 53.3582C395.64 53.3517 400.12 53.2933 404.599 53.3223C405.818 53.3307 407.031 53.5908 408.253 53.7075C409.933 53.8695 411.617 54.1329 413.299 54.1287C419.16 54.1133 425.019 53.9905 430.88 53.9391C431.783 53.9312 432.689 54.0806 433.6 54.3267C430.729 55.1639 427.687 54.8394 424.752 55.1761C421.75 55.5188 418.712 55.6603 415.689 55.89C415.674 56.052 415.66 56.2155 415.645 56.3775C416.171 56.462 416.698 56.6184 417.224 56.6198C421.073 56.6278 424.922 56.5872 428.771 56.6002C430.668 56.6063 432.607 56.3728 434.869 57.1055C430.136 57.3576 425.846 57.5864 421.371 57.825C421.625 59.5481 420.229 59.9795 418.462 60.1593C415.788 60.432 413.116 60.735 410.451 61.0624C409.311 61.2025 408.158 61.3635 407.07 61.6535C406.434 61.8235 405.916 62.2662 405.43 62.7994C407.638 63.4153 409.828 63.1646 412.18 63.187C411.713 64.0872 410.806 64.0513 410.07 64.1106C407.535 64.3137 404.991 64.4351 402.456 64.6312C401.463 64.7087 400.471 64.8638 399.512 65.0739C399.25 65.1313 398.929 65.5334 398.957 65.7514C398.987 65.9737 399.382 66.3029 399.671 66.3416C400.575 66.4631 401.503 66.4701 402.847 66.5448C400.071 67.5907 397.35 67.3946 394.835 67.8961C392.375 68.3859 389.93 68.9159 387.501 69.5986C389.292 70.1921 391.065 69.8704 392.873 69.6911C394.757 69.5052 396.674 69.5244 398.692 69.7588C398.367 69.8937 398.05 70.1304 397.715 70.1459C395.032 70.2743 392.319 70.2126 389.662 70.4895C382.088 71.2796 374.441 70.9906 366.857 71.6349C352.412 72.8621 337.89 73.138 323.387 73.6255C320.612 73.718 317.83 73.6391 315.051 73.6802C314.06 73.6946 313.072 73.8287 312.083 73.9127C311.709 73.9445 311.333 74.036 310.964 74.0215C308.821 73.9365 306.679 73.7488 304.536 73.7404C295.81 73.7068 287.083 73.7427 278.356 73.7161C274.587 73.7049 270.818 73.6045 267.049 73.549C266.74 73.5447 266.418 73.5359 266.126 73.5999C261.493 74.6047 256.768 73.9827 252.091 74.0467C239.889 74.2129 227.685 74.2326 215.481 74.3054C207.139 74.3544 198.795 74.3885 190.453 74.4385C184.901 74.4716 179.35 74.5328 173.797 74.5585C162.219 74.6127 150.639 74.6598 139.06 74.692C133.885 74.7079 128.71 74.6631 123.536 74.6897C122.332 74.6958 121.127 74.8802 119.92 74.9829C119.626 75.893 120.047 76.3511 120.888 76.5131C121.628 76.6555 122.414 76.6742 123.181 76.6957C128.275 76.8381 133.37 76.9633 138.465 77.1047C138.737 77.1127 139.006 77.2121 139.279 77.6212C136.823 77.7547 134.367 77.9985 131.912 77.9999C125.584 78.0036 119.256 77.9093 112.927 77.8364C108.454 77.7855 103.977 77.7823 99.5104 77.6212C92.1148 77.3546 84.7157 77.0716 77.3355 76.6191C71.1061 76.2386 64.9051 75.5825 58.6858 75.0917C49.1644 74.3404 39.6366 73.6349 30.1147 72.891C28.2732 72.7481 26.4394 72.5333 24.608 72.319C24.1107 72.2606 23.636 72.0818 23.1505 71.9581C23.1481 71.8339 23.1452 71.7092 23.1428 71.584C23.9843 71.5378 24.8347 71.4108 25.6685 71.4589C29.3568 71.6732 33.0404 71.9385 36.7263 72.1878C36.8788 72.1981 37.0337 72.2625 37.1809 72.2504C39.5084 72.0697 41.8341 71.8801 44.1011 71.6966C43.0062 71.0223 40.2627 70.6483 35.1614 70.3485C31.9294 70.1585 28.7153 69.8054 25.4899 69.5444C22.4039 69.2951 19.3139 69.0705 16.2261 68.8351C16.2214 68.6941 16.216 68.5531 16.2119 68.4126C18.0415 68.2897 19.8717 68.1683 22.0419 68.0231C20.3417 66.3388 18.0397 67.5394 16.13 66.7348C18.1008 66.0932 20.1607 66.8044 21.9411 65.8047C20.458 65.0482 18.9857 65.3704 17.5762 65.3036C16.1157 65.235 14.6517 65.1159 13.2096 64.9245C11.8571 64.7447 10.3967 65.4708 9.12134 64.5626C15.2962 64.5593 21.3957 63.9126 27.5486 63.8239C27.5694 63.6726 27.5901 63.5208 27.6109 63.3686C27.2619 63.2066 26.9332 62.9432 26.5611 62.8989C24.9065 62.7032 23.2431 62.5342 21.5767 62.423C18.2083 62.1975 14.9015 61.5881 11.4756 61.6619C9.097 61.7128 6.70836 61.3449 4.31972 61.2305C2.53402 61.145 1.14595 60.5978 0 59.2693C0.537666 59.0849 0.964941 58.8304 1.41418 58.8038C4.48767 58.6174 7.56471 58.4811 10.6406 58.3251C12.8719 58.2117 15.0475 58.1141 16.9519 56.8963C17.6878 56.4251 18.9744 56.4093 20.0278 56.3369C26.0917 55.9246 32.1591 55.5421 38.2283 55.1784C42.5314 54.9211 46.8381 54.6792 51.1471 54.4938C52.445 54.4383 53.7577 54.6372 55.0645 54.6465C56.5226 54.6577 57.9867 54.6241 59.4406 54.5349C60.329 54.4812 61.0429 54.1586 61.1183 53.0496C57.5606 52.8824 54.0657 52.7176 50.4635 52.549C51.5626 51.2374 53.1809 50.7513 55.0295 50.5841C58.8341 50.2409 62.6043 49.6199 66.4683 49.738C67.1044 49.7572 67.7489 49.6175 68.3899 49.5512C68.3994 49.4322 68.4095 49.3126 68.4189 49.1935C68.0498 49.0824 67.6712 48.8592 67.3116 48.8756C64.933 48.9862 62.5592 49.1525 60.183 49.2921C55.7227 49.5545 51.2629 49.8258 46.8001 50.0649C44.4946 50.1886 42.1843 50.3371 39.8775 50.3189C37.5702 50.3002 35.2581 50.1569 33.2196 49.0899C32.8131 48.8774 32.1834 48.9297 31.6582 48.855C27.1842 48.2204 22.7102 47.5873 18.2403 46.9382C18.0551 46.9116 17.9044 46.7313 17.6931 46.5927C18.4735 45.9072 19.2539 46.3461 20.0539 46.4442C22.8461 46.7855 25.6567 47.2964 28.4447 46.4362C29.0488 46.2495 29.6001 45.9567 30.1437 45.5005C24.6591 45.4641 19.3222 44.9107 14.0066 43.7803C14.4843 43.6799 14.9538 43.5314 15.4386 43.4903C16.2059 43.4258 16.9887 43.4767 17.7531 43.3992C18.6872 43.3054 19.9702 43.6215 20.2859 42.569C20.5957 41.5408 19.1821 41.5949 18.5465 41.156C18.4973 41.1224 18.4777 41.0631 18.4124 40.9716C18.8634 40.7022 19.321 40.4285 20.1031 39.9606C18.9946 39.7426 18.2332 39.5922 17.2504 39.3984C17.4943 39.066 17.6207 38.6336 17.8949 38.564C18.9922 38.2885 20.1376 38.1335 21.2616 37.9201C23.7054 37.455 26.1468 36.982 28.8732 36.4576C27.9106 35.5004 26.7979 35.3505 25.9759 35.4672C24.5991 35.6633 22.9802 35.3187 21.8568 36.3376C21.7333 36.4483 21.3488 36.4123 21.0912 36.3932C20.7405 36.3684 20.3263 36.1686 20.0563 36.2596C16.6641 37.4027 13.2304 36.7672 9.83407 36.3712C8.79197 36.2494 7.83829 35.6531 6.60866 35.1847C9.06911 34.3592 13.3354 33.6835 15.222 33.7381C16.5276 33.7759 17.7287 33.4962 19.3845 32.8514C16.6291 32.2065 14.3633 33.0251 11.8939 32.7842C12.9621 31.6285 14.171 30.8179 15.7864 30.6189C18.1388 30.3299 19.1275 28.6872 20.9476 27.8952C20.9096 27.7603 20.8722 27.6258 20.8343 27.4909C19.5898 27.4404 18.2937 27.539 17.1133 27.2952C15.9585 27.058 14.9211 26.4706 13.7746 26.0134C14.171 25.1291 14.5235 24.3436 14.8915 23.5228C13.0256 22.8195 12.3586 24.8545 10.653 24.5416C10.2702 24.1027 9.84831 23.6171 9.45782 23.1693C10.3314 20.5315 13.6345 19.974 16.1169 18.702C16.0493 18.5923 15.9804 18.483 15.9116 18.3742C15.5739 18.3485 15.2339 18.2892 14.9004 18.3074C14.5306 18.328 14.1686 18.4209 13.685 18.5012C13.3307 17.7322 13.0061 17.0252 12.6363 16.2225C14.1603 15.7411 15.6511 15.2774 17.1335 14.7988C18.4931 14.3594 20.2491 15.1845 21.4752 13.9705C20.8307 13.0889 19.7287 13.2406 18.8047 13.1528C17.9394 13.0707 17.051 13.1351 16.0754 12.8358C18.3762 12.0733 20.7263 11.3906 22.9683 10.5328C27.9248 8.63607 33.3656 8.27139 38.636 7.41641C45.8191 6.25092 53.045 5.22738 60.2887 4.32011C67.6837 3.39462 75.1006 2.52702 82.5466 1.91953C90.2128 1.29429 97.9229 1.02254 105.613 0.576607C107.101 0.489754 108.434 1.03374 110.024 0.893188C112.506 0.674187 115.072 1.08838 117.604 1.14955C118.98 1.18317 120.369 1.09024 121.74 0.966972C124.65 0.703613 127.552 0.380013 130.458 0.0886383C130.839 0.0508194 131.319 -0.0710526 131.597 0.0573578C133.883 1.11686 136.283 0.361328 138.63 0.383743C139.505 0.391212 140.381 0.384674 141.256 0.384674C141.281 0.507019 141.306 0.630768 141.33 0.753105C140.449 1.08417 139.569 1.41617 138.688 1.74817C138.713 1.87004 138.737 1.99097 138.762 2.11237C139.772 2.16234 140.787 2.18803 141.794 2.26694C142.787 2.34492 143.771 2.55271 144.762 2.57326C148.073 2.64283 151.388 2.72174 154.697 2.66991C159.239 2.59893 163.778 2.36314 168.322 2.2917C171.461 2.2422 174.606 2.35007 177.747 2.38602C178.057 2.38976 178.367 2.40142 178.672 2.37574C185.506 1.7986 192.349 1.79111 199.208 2.07549C201.786 2.18288 204.385 1.9737 206.975 1.95736C212.972 1.91953 218.969 1.91207 224.967 1.89386C225.276 1.89199 225.591 1.8733 225.893 1.91206C235.705 3.13686 245.613 2.74041 255.481 2.95988C271.152 3.30821 286.827 3.54031 302.501 3.79198C306.663 3.85876 310.828 3.82186 314.99 3.81953C316.646 3.8186 316.94 4.08428 316.918 5.36559C316.912 5.71486 317.329 6.06835 317.604 6.50027C317.326 6.51895 316.84 6.5535 316.355 6.58618C314.208 6.72954 312.063 6.86729 309.918 7.02232C309.618 7.04472 309.263 7.08535 309.04 7.2231C306.933 8.52261 304.594 8.21115 302.246 7.86842C301.28 7.72739 299.115 8.20789 297.958 8.66177C297.489 8.84528 296.736 8.84153 296.244 8.67764C294.708 8.16773 293.163 7.9548 291.106 8.19061C290.896 8.62814 290.659 9.1189 290.336 9.7927C291.492 9.92205 292.462 10.1126 293.438 10.1289C304.32 10.3082 315.204 10.4268 326.085 10.6416C329.552 10.7103 333.007 11.1081 336.473 11.201C341.948 11.3467 347.43 11.3201 352.907 11.4513C355.676 11.5176 358.437 11.822 361.206 11.9243C367.144 12.141 373.086 12.3245 379.028 12.4702C385.82 12.6383 392.614 12.7559 399.408 12.8829C400.931 12.911 402.455 12.8872 403.893 12.8872C404.377 13.666 404.14 14.1026 403.253 14.2249C402.652 14.3085 402.019 14.2441 401.41 14.3057C401.032 14.3454 400.671 14.4967 400.325 14.7526C402.839 15.4857 405.517 14.7918 408.026 15.2326C408.029 15.3783 408.033 15.5235 408.037 15.6692C407.084 15.7687 406.135 15.9097 405.177 15.961C402.036 16.1305 398.892 16.2627 395.75 16.4247C395.215 16.4523 394.648 16.485 394.162 16.6419C391.513 17.4954 388.719 17.5417 385.948 17.4585C380.85 17.3049 375.81 17.7714 370.751 18.0871C368.83 18.2071 366.89 18.1169 364.962 18.1781C364.257 18.2 363.562 18.3812 362.861 18.4891C362.864 18.6203 362.867 18.751 362.869 18.8813C363.257 18.9841 363.641 19.1657 364.032 19.1769C371.116 19.3777 378.201 19.5528 385.285 19.7475C386.287 19.7751 387.288 19.9464 388.285 19.9217C389.662 19.8881 390.737 20.3382 391.386 21.1927C391.879 21.8418 392.448 21.9506 393.273 21.9454C394.737 21.937 396.204 21.9711 397.67 22.0169C398.782 22.0519 399.969 21.8427 400.761 22.8279C400.968 23.0862 401.753 23.0964 402.284 23.1487C404.117 23.328 405.965 23.6582 407.786 23.5881C410.032 23.5004 411.632 24.4721 413.301 25.2887C414.162 25.7095 414.923 25.8365 415.866 25.8636C420.339 25.991 424.81 26.1643 429.282 26.3263C429.541 26.3356 429.798 26.3991 430.057 26.4379C430.062 26.5332 430.066 26.6293 430.072 26.7241Z" fill="white"/>
</svg>
