<svg width="1472" height="1331" viewBox="0 0 1472 1331" fill="none" xmlns="http://www.w3.org/2000/svg">
<g opacity="0.2">
<mask id="mask0_208_453" style="mask-type:luminance" maskUnits="userSpaceOnUse" x="0" y="0" width="1472" height="1331">
<path d="M0.00012207 1330.69L1472 1330.69L1472 0.000488281L-2.62876e-05 0.000589189L0.00012207 1330.69Z" fill="white"/>
</mask>
<g mask="url(#mask0_208_453)">
<g filter="url(#filter0_f_208_453)">
<path d="M-83.6045 580.736L341.56 580.736L341.56 387.943L-83.6045 387.943L-83.6045 580.736Z" fill="#DCC5FF"/>
<path d="M204.996 692.35L1261.08 692.35L1261.08 320.001L204.996 320.001L204.996 692.35Z" fill="#3E0C84"/>
<path d="M531.258 573.416L1012.42 573.416L1012.42 293.741L531.258 293.741L531.258 573.416Z" fill="#8338EC"/>
<path d="M1007.98 652.852L1683.51 652.852L1683.51 378.969L1007.98 378.969L1007.98 652.852Z" fill="#501EFE"/>
<path d="M99.3887 862.518L685.697 862.518L685.697 527.404L99.3887 527.404L99.3887 862.518Z" fill="#006FFF"/>
<path d="M-236.554 972.473L557.329 972.473L557.329 658.872L-236.554 658.872L-236.554 972.473Z" fill="#8D809E"/>
</g>
</g>
</g>
<defs>
<filter id="filter0_f_208_453" x="-611.554" y="-81.2598" width="2670.07" height="1428.73" filterUnits="userSpaceOnUse" color-interpolation-filters="sRGB">
<feFlood flood-opacity="0" result="BackgroundImageFix"/>
<feBlend mode="normal" in="SourceGraphic" in2="BackgroundImageFix" result="shape"/>
<feGaussianBlur stdDeviation="187.5" result="effect1_foregroundBlur_208_453"/>
</filter>
</defs>
</svg>
