<svg width="2024" height="942" viewBox="0 0 2024 942" fill="none" xmlns="http://www.w3.org/2000/svg">
<g clip-path="url(#clip0_208_487)">
<g opacity="0.4">
<g opacity="0.6" filter="url(#filter0_f_208_487)">
<path d="M1433.39 -76.9377C1363.02 -64.5689 1308 -31.8315 1286.15 8.10766C1264.93 46.9019 1285.55 87.834 1324.64 121.86C1363.34 155.551 1420.66 183.451 1491.28 186.69C1560.38 189.859 1620.53 165.748 1669.09 137.659C1717.7 109.538 1760.66 74.8262 1752.27 35.7124C1743.87 -3.43865 1687.38 -31.2125 1628.4 -52.0482C1568.88 -73.0746 1500.35 -88.7075 1433.39 -76.9377Z" fill="url(#paint0_linear_208_487)"/>
</g>
<g opacity="0.9" filter="url(#filter1_f_208_487)">
<path d="M1016.32 -312.706C916.953 -296.602 861.739 -237.829 805.957 -185.202C753.742 -135.942 702.717 -84.2373 712.303 -25.8882C722.489 36.0983 777.388 92.0483 857.828 130.504C942.295 170.883 1047.69 193.304 1154.27 185.395C1265.66 177.128 1377.8 146.252 1435.55 87.6309C1490.54 31.8062 1455.58 -36.2909 1435.67 -100.259C1416.37 -162.24 1404.07 -228.901 1324.46 -269.236C1240.18 -311.93 1122.24 -329.872 1016.32 -312.706Z" fill="url(#paint1_linear_208_487)"/>
</g>
<g filter="url(#filter2_f_208_487)">
<path opacity="0.6" d="M763.044 -98.3033C708.305 -95.859 652.297 -69.9523 629.528 -29.5613C608.695 7.39187 640.085 47.6996 659.655 85.1035C673.002 110.609 692.73 132.729 721.97 147.105C748.367 160.082 779.102 156.882 809.875 158.959C857.774 162.189 910.772 186.489 948.515 162.388C988.955 136.564 997.385 86.8556 986.663 46.0629C976.437 7.16754 933.336 -16.6239 894.94 -41.4132C854.447 -67.5528 814.751 -100.613 763.044 -98.3033Z" fill="#0252D4"/>
</g>
<g opacity="0.9" filter="url(#filter3_f_208_487)">
<path opacity="0.6" d="M477.055 -137.636C397.974 -116.457 324.242 -62.6275 303.416 0.279645C284.367 57.8339 342.492 102.994 382.502 148.01C409.784 178.71 445.336 202.678 492.384 212.91C534.857 222.146 578.696 207.743 624.209 200.576C695.05 189.422 779.787 205.554 827.439 160.153C878.494 111.507 875.553 40.4665 847.409 -12.0885C820.575 -62.1981 750.426 -80.8539 686.834 -102.411C619.773 -125.143 551.748 -157.641 477.055 -137.636Z" fill="url(#paint2_linear_208_487)"/>
</g>
</g>
</g>
<defs>
<filter id="filter0_f_208_487" x="1137.65" y="-220.981" width="755.676" height="547.952" filterUnits="userSpaceOnUse" color-interpolation-filters="sRGB">
<feFlood flood-opacity="0" result="BackgroundImageFix"/>
<feBlend mode="normal" in="SourceGraphic" in2="BackgroundImageFix" result="shape"/>
<feGaussianBlur stdDeviation="70" result="effect1_foregroundBlur_208_487"/>
</filter>
<filter id="filter1_f_208_487" x="511.135" y="-519.161" width="1153.95" height="906.132" filterUnits="userSpaceOnUse" color-interpolation-filters="sRGB">
<feFlood flood-opacity="0" result="BackgroundImageFix"/>
<feBlend mode="normal" in="SourceGraphic" in2="BackgroundImageFix" result="shape"/>
<feGaussianBlur stdDeviation="100" result="effect1_foregroundBlur_208_487"/>
</filter>
<filter id="filter2_f_208_487" x="462.661" y="-258.418" width="688.256" height="591.353" filterUnits="userSpaceOnUse" color-interpolation-filters="sRGB">
<feFlood flood-opacity="0" result="BackgroundImageFix"/>
<feBlend mode="normal" in="SourceGraphic" in2="BackgroundImageFix" result="shape"/>
<feGaussianBlur stdDeviation="80" result="effect1_foregroundBlur_208_487"/>
</filter>
<filter id="filter3_f_208_487" x="99.6863" y="-343.879" width="967.785" height="759.786" filterUnits="userSpaceOnUse" color-interpolation-filters="sRGB">
<feFlood flood-opacity="0" result="BackgroundImageFix"/>
<feBlend mode="normal" in="SourceGraphic" in2="BackgroundImageFix" result="shape"/>
<feGaussianBlur stdDeviation="100" result="effect1_foregroundBlur_208_487"/>
</filter>
<linearGradient id="paint0_linear_208_487" x1="1423.07" y1="13.5898" x2="1908.08" y2="232.071" gradientUnits="userSpaceOnUse">
<stop stop-color="#8338EC"/>
<stop offset="1" stop-color="#E04A00"/>
</linearGradient>
<linearGradient id="paint1_linear_208_487" x1="1027.82" y1="-24.7375" x2="1658.04" y2="261.58" gradientUnits="userSpaceOnUse">
<stop stop-color="#511FFE"/>
<stop offset="1" stop-color="#FFDFB8"/>
</linearGradient>
<linearGradient id="paint2_linear_208_487" x1="362.187" y1="57.0288" x2="749.732" y2="24.4319" gradientUnits="userSpaceOnUse">
<stop stop-color="#7E5BFF"/>
<stop offset="1" stop-color="#3900FF"/>
</linearGradient>
<clipPath id="clip0_208_487">
<rect width="2024" height="942" fill="white" transform="matrix(-1 0 0 1 2024 0)"/>
</clipPath>
</defs>
</svg>
